<?xml version="1.0" encoding="utf-8"?>
<!-- Generator: Adobe Illustrator 22.1.0, SVG Export Plug-In . SVG Version: 6.00 Build 0)  -->
<svg version="1.1" id="Calque_1" xmlns="http://www.w3.org/2000/svg" xmlns:xlink="http://www.w3.org/1999/xlink" x="0px" y="0px"
	 viewBox="0 0 200 50" style="enable-background:new 0 0 200 50;" xml:space="preserve">
<style type="text/css">
	.st0{fill:#EFEFEF;}
</style>
<g>
	<g>
		<path class="st0" d="M3.8,19.1v3.1h5.1v2.7H3.8v3.3h5.7v2.9H0.2V16.2h9.3v2.9H3.8z"/>
		<path class="st0" d="M22.4,20.6c0.8,0.9,1.2,2.1,1.2,3.7v6.8H20v-6.4c0-0.8-0.2-1.4-0.6-1.8c-0.4-0.4-1-0.7-1.7-0.7
			c-0.7,0-1.3,0.2-1.7,0.7c-0.4,0.5-0.6,1.1-0.6,2v6.3h-3.6V19.4h3.6v2.2c0.3-0.7,0.8-1.3,1.5-1.7c0.7-0.4,1.5-0.6,2.4-0.6
			C20.5,19.2,21.6,19.7,22.4,20.6z"/>
		<path class="st0" d="M32.8,28v3.1h-1.6c-1.4,0-2.5-0.3-3.2-1c-0.8-0.7-1.2-1.8-1.2-3.4v-4.3h-1.6v-3h1.6v-2.9h3.6v2.9h2.4v3h-2.4
			v4.4c0,0.5,0.1,0.8,0.3,1c0.2,0.2,0.5,0.3,1,0.3H32.8z"/>
		<path class="st0" d="M40.3,19.9c0.7-0.4,1.5-0.6,2.3-0.6v3.9h-1c-1,0-1.7,0.2-2.2,0.6c-0.5,0.4-0.8,1.1-0.8,2.1v5.4h-3.6V19.4h3.6
			v2.2C39,20.9,39.6,20.3,40.3,19.9z"/>
		<path class="st0" d="M55.3,25.9h-8.2c0,0.9,0.3,1.5,0.7,1.9c0.4,0.4,0.9,0.6,1.6,0.6c0.5,0,1-0.1,1.3-0.4c0.4-0.3,0.6-0.6,0.7-1
			h3.8c-0.2,0.8-0.5,1.6-1,2.2c-0.5,0.7-1.2,1.2-2,1.5c-0.8,0.4-1.7,0.6-2.7,0.6c-1.2,0-2.2-0.2-3.1-0.7c-0.9-0.5-1.6-1.2-2.1-2.1
			c-0.5-0.9-0.8-2-0.8-3.2c0-1.2,0.2-2.3,0.8-3.2c0.5-0.9,1.2-1.6,2.1-2.1c0.9-0.5,1.9-0.7,3.1-0.7c1.2,0,2.2,0.2,3.1,0.7
			c0.9,0.5,1.6,1.2,2.1,2c0.5,0.9,0.7,1.9,0.7,3C55.4,25.2,55.4,25.6,55.3,25.9z M51.2,22.6c-0.4-0.4-1-0.6-1.6-0.6
			c-0.7,0-1.2,0.2-1.6,0.6c-0.4,0.4-0.7,1-0.7,1.7h4.6C51.8,23.6,51.6,23,51.2,22.6z"/>
		<path class="st0" d="M67.4,19.9c0.8,0.5,1.4,1.2,1.8,2.1c0.4,0.9,0.7,2,0.7,3.2c0,1.2-0.2,2.3-0.7,3.2c-0.4,0.9-1,1.6-1.8,2.1
			c-0.8,0.5-1.6,0.7-2.6,0.7c-0.9,0-1.7-0.2-2.3-0.6c-0.6-0.4-1.1-1-1.4-1.7v7.8h-3.6V19.4h3.6v2.1c0.3-0.7,0.8-1.3,1.4-1.7
			c0.6-0.4,1.4-0.6,2.3-0.6C65.8,19.2,66.6,19.5,67.4,19.9z M61.8,23.2c-0.5,0.5-0.7,1.2-0.7,2.1c0,0.9,0.2,1.6,0.7,2.1
			c0.5,0.5,1.1,0.8,1.9,0.8c0.8,0,1.4-0.3,1.9-0.8c0.5-0.5,0.7-1.2,0.7-2.1c0-0.9-0.2-1.6-0.7-2.1c-0.5-0.5-1.1-0.8-1.9-0.8
			C62.9,22.4,62.3,22.6,61.8,23.2z"/>
		<path class="st0" d="M77.3,19.9c0.7-0.4,1.5-0.6,2.3-0.6v3.9h-1c-1,0-1.7,0.2-2.2,0.6c-0.5,0.4-0.8,1.1-0.8,2.1v5.4h-3.6V19.4h3.6
			v2.2C76,20.9,76.5,20.3,77.3,19.9z"/>
		<path class="st0" d="M92.3,25.9h-8.2c0,0.9,0.3,1.5,0.7,1.9c0.4,0.4,0.9,0.6,1.6,0.6c0.5,0,1-0.1,1.3-0.4c0.4-0.3,0.6-0.6,0.7-1
			h3.8c-0.2,0.8-0.5,1.6-1,2.2c-0.5,0.7-1.2,1.2-2,1.5c-0.8,0.4-1.7,0.6-2.7,0.6c-1.2,0-2.2-0.2-3.1-0.7c-0.9-0.5-1.6-1.2-2.1-2.1
			c-0.5-0.9-0.8-2-0.8-3.2c0-1.2,0.2-2.3,0.8-3.2c0.5-0.9,1.2-1.6,2.1-2.1c0.9-0.5,1.9-0.7,3.1-0.7c1.2,0,2.2,0.2,3.1,0.7
			c0.9,0.5,1.6,1.2,2.1,2c0.5,0.9,0.7,1.9,0.7,3C92.4,25.2,92.4,25.6,92.3,25.9z M88.1,22.6c-0.4-0.4-1-0.6-1.6-0.6
			c-0.7,0-1.2,0.2-1.6,0.6s-0.7,1-0.7,1.7h4.6C88.8,23.6,88.6,23,88.1,22.6z"/>
		<path class="st0" d="M105.1,20.6c0.8,0.9,1.2,2.1,1.2,3.7v6.8h-3.6v-6.4c0-0.8-0.2-1.4-0.6-1.8c-0.4-0.4-1-0.7-1.7-0.7
			c-0.7,0-1.3,0.2-1.7,0.7c-0.4,0.5-0.6,1.1-0.6,2v6.3h-3.6V19.4H98v2.2c0.3-0.7,0.8-1.3,1.5-1.7c0.7-0.4,1.5-0.6,2.4-0.6
			C103.3,19.2,104.3,19.7,105.1,20.6z"/>
		<path class="st0" d="M119.9,25.9h-8.2c0,0.9,0.3,1.5,0.7,1.9c0.4,0.4,0.9,0.6,1.6,0.6c0.5,0,1-0.1,1.3-0.4s0.6-0.6,0.7-1h3.8
			c-0.2,0.8-0.5,1.6-1,2.2s-1.2,1.2-2,1.5c-0.8,0.4-1.7,0.6-2.7,0.6c-1.2,0-2.2-0.2-3.1-0.7c-0.9-0.5-1.6-1.2-2.1-2.1
			c-0.5-0.9-0.8-2-0.8-3.2c0-1.2,0.2-2.3,0.7-3.2c0.5-0.9,1.2-1.6,2.1-2.1c0.9-0.5,1.9-0.7,3.1-0.7c1.2,0,2.2,0.2,3.1,0.7
			c0.9,0.5,1.6,1.2,2.1,2c0.5,0.9,0.7,1.9,0.7,3C120,25.2,120,25.6,119.9,25.9z M115.8,22.6c-0.4-0.4-1-0.6-1.6-0.6
			c-0.7,0-1.2,0.2-1.6,0.6c-0.4,0.4-0.7,1-0.7,1.7h4.6C116.4,23.6,116.2,23,115.8,22.6z"/>
		<path class="st0" d="M133.8,19.4v11.8h-3.6V29c-0.3,0.7-0.8,1.2-1.5,1.6c-0.7,0.4-1.4,0.6-2.3,0.6c-1.4,0-2.4-0.5-3.2-1.4
			c-0.8-0.9-1.2-2.1-1.2-3.7v-6.8h3.6v6.4c0,0.8,0.2,1.4,0.6,1.9c0.4,0.4,1,0.7,1.7,0.7c0.7,0,1.3-0.2,1.7-0.7
			c0.4-0.5,0.6-1.1,0.6-2v-6.3H133.8z"/>
		<path class="st0" d="M141.7,19.9c0.7-0.4,1.5-0.6,2.3-0.6v3.9h-1c-1,0-1.7,0.2-2.2,0.6c-0.5,0.4-0.8,1.1-0.8,2.1v5.4h-3.6V19.4
			h3.6v2.2C140.4,20.9,141,20.3,141.7,19.9z"/>
		<path class="st0" d="M163,16.2v14.9h-3.6v-6.2h-5.7v6.2h-3.6V16.2h3.6V22h5.7v-5.8H163z"/>
		<path class="st0" d="M176.7,25.9h-8.2c0,0.9,0.3,1.5,0.7,1.9c0.4,0.4,0.9,0.6,1.6,0.6c0.5,0,1-0.1,1.3-0.4s0.6-0.6,0.7-1h3.8
			c-0.2,0.8-0.5,1.6-1,2.2s-1.2,1.2-2,1.5c-0.8,0.4-1.7,0.6-2.7,0.6c-1.2,0-2.2-0.2-3.1-0.7c-0.9-0.5-1.6-1.2-2.1-2.1
			c-0.5-0.9-0.8-2-0.8-3.2c0-1.2,0.2-2.3,0.8-3.2c0.5-0.9,1.2-1.6,2.1-2.1c0.9-0.5,1.9-0.7,3.1-0.7c1.2,0,2.2,0.2,3.1,0.7
			c0.9,0.5,1.6,1.2,2.1,2c0.5,0.9,0.7,1.9,0.7,3C176.8,25.2,176.7,25.6,176.7,25.9z M172.5,22.6c-0.4-0.4-1-0.6-1.6-0.6
			c-0.7,0-1.2,0.2-1.6,0.6c-0.4,0.4-0.7,1-0.7,1.7h4.6C173.1,23.6,172.9,23,172.5,22.6z"/>
		<path class="st0" d="M184.1,19.9c0.7-0.4,1.5-0.6,2.3-0.6v3.9h-1c-1,0-1.7,0.2-2.2,0.6c-0.5,0.4-0.8,1.1-0.8,2.1v5.4h-3.6V19.4
			h3.6v2.2C182.9,20.9,183.4,20.3,184.1,19.9z"/>
		<path class="st0" d="M196.8,19.9c0.9,0.5,1.6,1.2,2.2,2.1c0.5,0.9,0.8,2,0.8,3.2c0,1.2-0.3,2.3-0.8,3.2c-0.5,0.9-1.3,1.6-2.2,2.1
			c-0.9,0.5-2,0.7-3.1,0.7c-1.2,0-2.2-0.2-3.1-0.7c-0.9-0.5-1.7-1.2-2.2-2.1c-0.5-0.9-0.8-2-0.8-3.2c0-1.2,0.3-2.3,0.8-3.2
			c0.5-0.9,1.3-1.6,2.2-2.1c0.9-0.5,2-0.7,3.1-0.7C194.8,19.2,195.8,19.5,196.8,19.9z M191.9,23.1c-0.5,0.5-0.7,1.2-0.7,2.2
			c0,0.9,0.2,1.7,0.7,2.2c0.5,0.5,1.1,0.7,1.7,0.7c0.7,0,1.3-0.2,1.7-0.7c0.5-0.5,0.7-1.2,0.7-2.2c0-0.9-0.2-1.7-0.7-2.2
			c-0.5-0.5-1-0.8-1.7-0.8C192.9,22.3,192.4,22.6,191.9,23.1z"/>
	</g>
</g>
</svg>
