<?xml version="1.0" encoding="utf-8"?>
<!-- Generator: Adobe Illustrator 22.1.0, SVG Export Plug-In . SVG Version: 6.00 Build 0)  -->
<svg version="1.1" id="Calque_1" xmlns="http://www.w3.org/2000/svg" xmlns:xlink="http://www.w3.org/1999/xlink" x="0px" y="0px"
	 viewBox="0 0 1383 324" style="enable-background:new 0 0 1383 324;" xml:space="preserve">
<title>logo-anytime-BLC</title>
<desc>Created with Sketch.</desc>
<g id="Page-1">
	<g id="logo-anytime-BLC">
		<path id="Shape" d="M525.4,82.6v137.9H508v-23.6c-15.8,18.9-33.8,28.3-54,28.3c-20.2,0-37.3-7.2-51.3-21.7
			c-13.9-14.4-20.9-31.6-20.9-51.6c0-20,7-37.1,21-51.4c14-14.3,30.8-21.4,50.4-21.4c22.5,0,40.8,9.6,54.8,28.8V82.6H525.4z
			 M509,152.2c0-15.7-5.3-29-15.8-39.9s-23.5-16.2-38.8-16.2c-14.7-0.3-28.9,5.8-38.8,16.7c-10.3,10.6-16,24.8-15.8,39.6
			c0,15.2,5.4,28.4,16.1,39.6c10.7,11.2,23.6,16.8,38.6,16.8c15,0,27.8-5.4,38.6-16.1C503.7,182,509.1,168.5,509,152.2z"/>
		<path id="Path" d="M565.4,82.6h17.9v24.7C597.5,88.4,614.7,79,635,79c10-0.1,19.7,2.8,28,8.4c8.1,5.3,14.2,13,17.7,22.1
			c3.5,9.1,5.2,22.5,5.2,40.1v70.9h-17.6v-65.6c0-16.1-0.7-27-2.2-32.7c-1.3-5.3-3.6-10.2-6.8-14.6c-3-4-7-7.1-11.6-9.1
			c-5.4-2.2-11.2-3.3-17-3.1c-6.8,0-13.6,1.7-19.6,4.9c-6.4,3.3-12,8-16.4,13.8c-4.2,5.4-7.3,11.6-9.1,18.2
			c-1.6,6.2-2.3,18.8-2.3,37.6v50.6h-17.9V82.6z"/>
		<polygon id="Path_1_" points="709,82.6 727.7,82.6 775.2,188.8 821.2,82.6 840.2,82.6 757.8,270.8 739.1,270.8 765.6,210.1 		"/>
		<path id="Path_2_" d="M896.4,198.7c0,4.7,0.6,7.4,1.8,8.3c1.2,0.9,4.3,1.3,9.4,1.3h10.6v15.1c-5.7,1-11.4,1.7-17.1,1.8
			c-7.8,0-13.5-1.9-17.1-5.7s-5.5-9.8-5.5-17.9V97.7h-24.4V82.6h24.4V29.4h17.9v53.2h28v15.1h-28V198.7z"/>
		<path id="Shape_1_" d="M942.6,44.2c0-3.9,1.5-7.6,4.3-10.4c2.7-2.9,6.5-4.5,10.4-4.4c5.2,0,10.1,2.8,12.7,7.3s2.6,10.1,0,14.7
			s-7.5,7.3-12.7,7.3c-3.9,0.1-7.7-1.5-10.4-4.4C944.2,51.7,942.6,48,942.6,44.2z M948.3,82.6h17.9v137.9h-17.9V82.6z"/>
		<path id="Path_3_" d="M1002.9,82.6h17.7v23.9c12.3-18.3,28-27.5,47.3-27.5c9.8-0.1,19.4,2.9,27.4,8.7c8.1,5.8,13.5,14,16.2,24.5
			c5.7-10.7,13-18.9,21.8-24.7s19-8.6,30.5-8.6c11.5,0,21.9,4.5,31.3,13.4s14,26.5,14,52.8v75.3h-18.2v-75.3
			c0-12.6-0.8-21.9-2.3-27.9c-1.6-6-5.2-11.3-10.1-15.1c-5.2-4.1-12.1-6.1-20.7-6.1s-16.6,2.9-24,8.6c-7.3,5.5-12.6,13.1-15.3,21.8
			c-2.8,8.8-4.2,22.2-4.2,40v54h-17.4v-70.7c0-14.7-0.8-25.2-2.3-31.5c-1.6-6.3-5.2-11.9-10.4-15.8c-5.4-4.2-11.9-6.3-19.7-6.4
			c-7.8,0-15.5,2.4-21.9,6.9c-7,4.7-12.5,11.2-16.1,18.8c-3.9,8-5.8,21.4-5.8,40.2v58.4h-17.7L1002.9,82.6z"/>
		<path id="Shape_2_" d="M1362.5,175.8l15,7.8c-14.9,27.7-36.9,41.5-65.9,41.5c-20.8,0-37.9-7.1-51.4-21.4s-20.3-31.5-20.3-51.5
			s6.8-37.3,20.4-51.7s30.4-21.5,50.4-21.5c20,0,36.8,6.7,50.4,20s20.7,31.5,21.2,54.5h-124.1c0.5,16.6,5.8,30,15.7,40.1
			c9.4,9.9,22.5,15.4,36.2,15.2C1333.4,208.8,1350.9,197.8,1362.5,175.8z M1362.5,138.2c-2.4-13.1-8.5-23.4-18.2-30.9
			c-9.6-7.4-21.4-11.3-33.5-11.2c-26,0-42.9,14-50.9,42.1H1362.5z"/>
		<path id="Path_4_" d="M253.6,257l-16.3,16.3l-53.2-53.1l-0.2-0.3c-0.1-0.1-11.2-12.7-26-11.9c-7.7,0.4-15.1,4.4-22.9,12.1
			l-0.2,0.2c-10.7,10.7-14.5,19.9-15.2,30.6c-0.5,7.4-1.2,20.6,15.7,35.5c8,7.2,18.4,11.3,29.2,11.5c10.2,0.1,18.4-2.7,28.1-12.9
			c4-4.2,10.1-13.1,11-21.3l17.8,18c-4.1,10.4-12.1,18.7-13,19.6l-0.2,0.2c-15,14.4-31.6,21.9-47.8,21.8c-14.2-0.1-27.6-5.7-40-16.7
			C110.8,298,95,280,96.5,254.8c1-16.6,9.3-32.8,24.7-48.2l0.2-0.2c12.3-12.3,25.5-18.9,39.2-19.6c22.6-1.1,38,15,40.2,17.5
			L253.6,257z"/>
		<path id="Path_5_" d="M257,70.8L273.3,87l-53.2,53.1l-0.3,0.2c-0.1,0.1-12.7,11.2-11.9,26c0.4,7.7,4.4,15.1,12.1,22.9l0.2,0.2
			c10.7,10.7,19.9,14.6,30.6,15.2c7.4,0.5,20.6,1.2,35.5-15.7c7.2-8,11.3-18.4,11.5-29.1c0.1-10.2-2.7-18.4-12.9-28.1
			c-4.2-4-13.1-10.1-21.3-11l18-17.8c10.4,4.1,18.7,12.1,19.6,13l0.2,0.2c14.4,15,21.9,31.6,21.8,47.8c-0.1,14.1-5.7,27.6-16.7,40
			c-8.5,9.6-26.5,25.4-51.7,23.8c-16.6-1-32.8-9.3-48.2-24.7l-0.2-0.2c-12.3-12.3-18.9-25.5-19.6-39.2c-1.1-22.6,15-38,17.5-40.2
			L257,70.8z"/>
		<path id="Path_6_" d="M70.5,67.1l16.3-16.2l53.1,53.2l0.2,0.3c0.1,0.1,11.2,12.7,26,11.9c7.7-0.4,15.1-4.4,22.9-12.1
			c0-0.1,0.1-0.2,0.1-0.2c10.7-10.7,14.5-19.9,15.2-30.6c0.5-7.4,1.2-20.6-15.7-35.5c-8-7.2-18.4-11.3-29.2-11.5
			c-10.2-0.1-18.4,2.7-28.1,12.9c-4,4.2-10.1,13.1-11,21.3l-17.8-18c4.1-10.4,12.1-18.7,13-19.6l0.2-0.2
			c15-14.4,31.6-21.9,47.8-21.8c14.1,0.1,27.6,5.7,40,16.7c9.6,8.5,25.4,26.5,23.8,51.7c-1,16.6-9.3,32.8-24.7,48.2l-0.2,0.2
			c-12.4,12.3-25.5,18.9-39.2,19.6c-22.6,1.1-38-15-40.2-17.5L70.5,67.1z"/>
		<path id="Path_7_" d="M67.1,253.3l-16.3-16.3l53.2-53.2l0.3-0.2c0.1-0.1,12.7-11.2,11.9-26c-0.4-7.7-4.4-15.1-12.1-22.9l-0.2-0.2
			c-10.7-10.7-19.9-14.5-30.5-15.2c-7.4-0.5-20.6-1.2-35.5,15.7c-7.2,8-11.3,18.4-11.5,29.2c-0.1,10.2,2.7,18.4,12.9,28.1
			c4.2,4,13.1,10.1,21.3,11l-18,17.8c-10.4-4.1-18.7-12.1-19.6-13l-0.2-0.2C8.4,192.9,0.8,176.4,1,160.1c0.1-14.1,5.7-27.6,16.7-40
			c8.5-9.6,26.5-25.4,51.7-23.8c16.6,1,32.8,9.3,48.2,24.7l0.2,0.2c12.3,12.3,18.9,25.5,19.6,39.2c1.1,22.6-15,38-17.5,40.2
			L67.1,253.3z"/>
	</g>
</g>
</svg>
