<?xml version="1.0" encoding="utf-8"?>
<!-- Generator: Adobe Illustrator 22.1.0, SVG Export Plug-In . SVG Version: 6.00 Build 0)  -->
<svg version="1.1" id="Logo" xmlns="http://www.w3.org/2000/svg" xmlns:xlink="http://www.w3.org/1999/xlink" x="0px" y="0px"
	 viewBox="0 0 532.5 139.6" style="enable-background:new 0 0 532.5 139.6;" xml:space="preserve">
<style type="text/css">
	.st0{fill:url(#SVGID_1_);}
	.st1{fill:#192A6B;}
</style>
<g>
	<g>
		<g>
			<linearGradient id="SVGID_1_" gradientUnits="userSpaceOnUse" x1="532.9796" y1="-0.4545" x2="395.6825" y2="136.8694">
				<stop  offset="5.000000e-02" style="stop-color:#42B8EB"/>
				<stop  offset="0.1027" style="stop-color:#3EAADE"/>
				<stop  offset="0.3209" style="stop-color:#2E73AD"/>
				<stop  offset="0.5093" style="stop-color:#234C89"/>
				<stop  offset="0.6585" style="stop-color:#1C3373"/>
				<stop  offset="0.75" style="stop-color:#192A6B"/>
			</linearGradient>
			<path class="st0" d="M529.9,0h-95.4l-39.5,39.5c-0.7,0.7-1.1,1.7-1.1,2.8v22.6h23.3V42.1c0-0.6,0.5-1.1,1.1-1.1h12.7
				c0.6,0,1.1,0.5,1.1,1.1v22.7h22.6c0.6,0,1.1,0.5,1.1,1.1v12.7c0,0.6-0.5,1.1-1.1,1.1h-22.6v22.7c0,0.6-0.5,1.1-1.1,1.1h-12.7
				c-0.6,0-1.1-0.5-1.1-1.1V79.8h-23.3v54.9c0,2.2,1.8,3.9,3.9,3.9h92.5c1,0,2-0.4,2.8-1.1L532.5,98V2.6C532.5,1.2,531.4,0,529.9,0z
				 M512.9,103.6h-15.2c-0.3,0-0.6-0.1-0.8-0.4l-14.2-19.2l-14.2,19.2c-0.2,0.3-0.5,0.4-0.8,0.4h-15c-0.9,0-1.4-1-0.8-1.7l21.6-29.2
				c0.3-0.4,0.3-0.9,0-1.3L451.7,42c-0.3-0.4,0-1,0.5-1h15.9c0.3,0,0.7,0.2,0.8,0.4L482.7,60l13.7-18.7c0.2-0.3,0.5-0.4,0.8-0.4h16
				c0.5,0,0.8,0.6,0.5,1L492,71.5c-0.3,0.3-0.3,0.8,0,1.2l21.7,29.4C514.2,102.6,513.7,103.6,512.9,103.6z"/>
			<g>
				<path class="st1" d="M282.5,95.3H275c-0.2,0-0.3,0.2-0.3,0.3v42.7c0,0.2,0.1,0.3,0.3,0.3h7.5c0.2,0,0.3-0.1,0.3-0.3V95.6
					C282.8,95.4,282.7,95.3,282.5,95.3z"/>
				<path class="st1" d="M65.2,94.4c-12.7,0-22.7,9.9-22.7,22.6c0,12.7,10,22.6,22.7,22.6C78,139.5,88,129.6,88,117
					C88,104.3,78,94.4,65.2,94.4z M79.6,117c0,8.4-6.3,15.1-14.4,15.1c-8.1,0-14.4-6.6-14.4-15.1c0-8.4,6.3-15.1,14.4-15.1
					C73.3,101.9,79.6,108.5,79.6,117z"/>
				<path class="st1" d="M115.1,95.3H96c-0.1,0-0.2,0.1-0.2,0.3v42.8c0,0.1,0.1,0.2,0.2,0.2h7.7c0.1,0,0.2-0.1,0.2-0.2v-12h9.9
					c11.3,0,18.6-6.3,18.6-16C132.5,101.2,125.7,95.3,115.1,95.3z M114.8,119.1H104v-16.5h10.8c5.8,0,9.7,3.1,9.7,7.8
					C124.5,115.6,120.6,119.1,114.8,119.1z"/>
				<path class="st1" d="M19.4,95.3H0.2c-0.1,0-0.2,0.1-0.2,0.3v42.8c0,0.1,0.1,0.2,0.2,0.2h7.7c0.1,0,0.2-0.1,0.2-0.2v-12h9.9
					c11.3,0,18.6-6.3,18.6-16C36.8,101.2,29.9,95.3,19.4,95.3z M19,119.1H8.2v-16.5H19c5.8,0,9.7,3.1,9.7,7.8
					C28.7,115.6,24.8,119.1,19,119.1z"/>
				<path class="st1" d="M179.1,95.3h-7.6c-0.1,0-0.2,0.1-0.2,0.3v23.5c0,7.8-4.6,13-11.4,13c-6.8,0-11.3-5.2-11.3-13V95.5
					c0-0.1-0.1-0.3-0.2-0.3h-7.6c-0.1,0-0.2,0.1-0.2,0.3V119c0,12.7,7.4,20.6,19.4,20.6c12.1,0,19.6-7.9,19.6-20.6V95.5
					C179.3,95.4,179.2,95.3,179.1,95.3z"/>
				<path class="st1" d="M216.2,131.5h-19.5v-36c0-0.1-0.1-0.3-0.2-0.3h-7.7c-0.1,0-0.2,0.1-0.2,0.3v40.8c0,1.3,1,2.3,2.3,2.3h22.5
					c0.7,0,1.3-0.4,1.5-1l2.1-4.9c0-0.1,0.1-0.2,0.1-0.3C217.1,131.9,216.7,131.5,216.2,131.5z"/>
				<path class="st1" d="M248.6,95.2c0-0.1-0.1-0.1-0.2-0.1h-7.7c-0.1,0-0.2,0.1-0.2,0.1L222,138.3c0,0.1,0,0.2,0,0.2
					c0,0.1,0.1,0.1,0.2,0.1h8.1c0.1,0,0.2-0.1,0.2-0.2l3.4-8.5h21.1l3.4,8.5c0,0.1,0.1,0.2,0.2,0.2h8c0.1,0,0.2,0,0.2-0.1
					c0-0.1,0.1-0.2,0-0.2L248.6,95.2z M236.9,122.7l7.6-18.8l7.7,18.8H236.9z"/>
				<path class="st1" d="M321.1,123.2l0.7-0.3l0,0c5.2-2.5,8.1-7.2,8.1-12.9c0-8.8-6.9-14.7-17.1-14.7h-18.1c-0.1,0-0.2,0.1-0.2,0.3
					v42.8c0,0.1,0.1,0.2,0.2,0.2h7.7c0.1,0,0.2-0.1,0.2-0.2v-13.6h10l9.7,13.8c0,0.1,0.1,0.1,0.2,0.1h9.1c0.1,0,0.2-0.1,0.2-0.1
					c0-0.1,0-0.2,0-0.3L321.1,123.2z M302.6,102.6h9.9c5.4,0,9.3,3.1,9.3,7.4c0,4.3-3.9,7.4-9.3,7.4h-9.9V102.6z"/>
				<path class="st1" d="M124.6,62.1l-0.7-0.2l0.6-0.3c2.4-1.2,5.2-4.2,5.2-9.5c0-6.9-5.4-11.1-14.4-11.1H96c-0.1,0-0.2,0.1-0.2,0.2
					V82c0,1.3,1,2.3,2.3,2.3h18.2c9.3,0,15.4-4.6,15.4-11.6C131.7,66.1,128.2,63.4,124.6,62.1z M104,47.9h10.1
					c7.3,0,8.1,3.9,8.1,5.5c0,3.7-3.1,6.1-8.1,6.1H104V47.9z M115.7,77.5H104V66.2h12c4.9,0,7.8,2,7.8,5.3
					C123.7,74.3,121.6,77.5,115.7,77.5z"/>
				<path class="st1" d="M227.6,84.1V41.2c0-0.1-0.1-0.2-0.2-0.2h-7.7c-0.1,0-0.2,0.1-0.2,0.2V70l-24.6-28.9c0-0.1-0.1-0.1-0.2-0.1
					h-5.8c-0.1,0-0.2,0.1-0.2,0.2v42.9c0,0.1,0.1,0.2,0.2,0.2h7.7c0.1,0,0.2-0.1,0.2-0.2v-28l24.4,28.2c0,0.1,0.1,0.1,0.2,0.1h6
					C227.5,84.3,227.6,84.2,227.6,84.1z"/>
				<path class="st1" d="M310,85.3c12.1,0,19.6-7.9,19.6-20.6V41.2c0-0.1-0.1-0.2-0.2-0.2h-7.6c-0.1,0-0.2,0.1-0.2,0.2v23.5
					c0,7.8-4.6,13-11.5,13c-6.8,0-11.3-5.2-11.3-13V41.2c0-0.1-0.1-0.2-0.2-0.2h-7.6c-0.1,0-0.2,0.1-0.2,0.2v23.5
					C290.6,77.4,298,85.3,310,85.3z"/>
				<path class="st1" d="M340,95.3c-0.1,0-0.2,0.1-0.2,0.2v40.8c0,1.3,1,2.3,2.3,2.3h23.8c0.5,0,1-0.3,1.4-0.7l3.9-5.2
					c0.1-0.1,0.2-0.3,0.2-0.5c0-0.5-0.4-0.9-0.9-0.9h-22.4v-10.5h15.5c0.1,0,0.2-0.1,0.2-0.2v-6.8c0-0.1-0.1-0.2-0.2-0.2h-15.5
					v-11.1h21.4c0.1,0,0.2-0.1,0.2-0.2v-6.8c0-0.1-0.1-0.2-0.2-0.2H340z"/>
				<path class="st1" d="M340,41c-0.1,0-0.2,0.1-0.2,0.2V82c0,1.3,1,2.3,2.3,2.3h23.8c0.5,0,1-0.3,1.4-0.7l3.9-5.2
					c0.1-0.1,0.2-0.3,0.2-0.5c0-0.5-0.4-0.9-0.9-0.9h-22.4V66.6h15.5c0.1,0,0.2-0.1,0.2-0.2v-6.8c0-0.1-0.1-0.2-0.2-0.2h-15.5V48.3
					h21.4c0.1,0,0.2-0.1,0.2-0.2v-6.8c0-0.1-0.1-0.2-0.2-0.2H340z"/>
				<path class="st1" d="M285.2,78.7c0,0.2,0,0.3-0.1,0.5l-4,5.4c-0.3,0.4-0.8,0.7-1.4,0.7h-21.2c-6.1-0.1-11.8-2.4-16-6.7
					c-4.2-4.2-6.5-9.9-6.5-15.9c0-12.7,9.9-22.6,22.7-22.6c12.7,0,22.7,9.9,22.7,22.6c0,5.2-2,10.4-5.8,14.5l-0.9,1
					c0,0,9.6-0.4,9.6-0.4C284.9,77.8,285.2,78.2,285.2,78.7z M244.3,62.7c0,8.4,6.3,15.1,14.4,15.1c8.1,0,14.4-6.6,14.4-15.1
					c0-8.4-6.3-15.1-14.4-15.1C250.6,47.6,244.3,54.2,244.3,62.7z"/>
				<path class="st1" d="M163.2,41.1c0-0.1-0.1-0.1-0.2-0.1h-7.7c-0.1,0-0.2,0.1-0.2,0.1L136.7,84c0,0.1,0,0.2,0,0.2
					c0,0.1,0.1,0.1,0.2,0.1h8.1c0.1,0,0.2-0.1,0.2-0.2l3.4-8.4h21l3.4,8.4c0,0.1,0.1,0.2,0.2,0.2h8c0.1,0,0.2,0,0.2-0.1
					c0-0.1,0.1-0.2,0-0.2L163.2,41.1z M166.7,68.5h-15.2l7.5-18.7L166.7,68.5z"/>
			</g>
		</g>
	</g>
</g>
</svg>
