<svg xmlns="http://www.w3.org/2000/svg" xmlns:xlink="http://www.w3.org/1999/xlink" viewBox="0 0 150 27"><defs><style>.cls-1{fill:url(#Dégradé_sans_nom_10);}.cls-2{fill:url(#Dégradé_sans_nom_9);}.cls-3{fill:#fff;}.cls-4{fill:#fc0;}</style><radialGradient id="Dégradé_sans_nom_10" cx="9.51" cy="-757.2" r="15.02" gradientTransform="translate(-78.11 1343.13) scale(9.83 1.77)" gradientUnits="userSpaceOnUse"><stop offset="0" stop-color="#006cb5"/><stop offset="1" stop-color="#1f3460"/></radialGradient><radialGradient id="Dégradé_sans_nom_9" cx="12.6" cy="-857" r="7.2" gradientTransform="translate(-2.32 1053.13) scale(2.16 1.21)" gradientUnits="userSpaceOnUse"><stop offset="0.06" stop-opacity="0.5"/><stop offset="1" stop-opacity="0"/></radialGradient></defs><title>banquepostale_1</title><g id="Calque_2" data-name="Calque 2"><g id="Calque_1-2" data-name="Calque 1"><g id="_Groupe_" data-name="&lt;Groupe&gt;"><rect id="_Tracé_" data-name="&lt;Tracé&gt;" class="cls-1" width="150" height="27"/></g><g id="_Groupe_2" data-name="&lt;Groupe&gt;"><rect id="_Tracé_2" data-name="&lt;Tracé&gt;" class="cls-2" x="7.54" y="5.71" width="32.93" height="18.1"/><path id="_Tracé_transparent_" data-name="&lt;Tracé transparent&gt;" class="cls-3" d="M62.75,12a.83.83,0,0,0-.9-.88H59.78v1.77h2.09A.83.83,0,0,0,62.75,12ZM63,14.71a.88.88,0,0,0-.94-.92H59.78v1.84h2.34A.86.86,0,0,0,63,14.71Zm-4.28-4.55H62a1.66,1.66,0,0,1,1.8,1.68,1.44,1.44,0,0,1-.93,1.41,1.57,1.57,0,0,1,1.22,1.57,1.67,1.67,0,0,1-1.82,1.73h-3.5Z"/><path id="_Tracé_transparent_2" data-name="&lt;Tracé transparent&gt;" class="cls-3" d="M68.28,11.26l-1.23,3h2.48Zm2.12,5.29-.53-1.32H66.7l-.54,1.32H65l2.7-6.39h1.1l2.7,6.39Z"/><path id="_Tracé_3" data-name="&lt;Tracé&gt;" class="cls-3" d="M77.43,16.55,73.82,11.8v4.75h-1V10.16h1l3.59,4.68V10.16h1v6.39Z"/><path id="_Tracé_4" data-name="&lt;Tracé&gt;" class="cls-3" d="M88.18,14V10.16h1V14a1.75,1.75,0,0,0,3.5,0V10.16h1V14a2.77,2.77,0,0,1-5.54,0Z"/><path id="_Tracé_5" data-name="&lt;Tracé&gt;" class="cls-3" d="M95.57,16.55V10.16h4.62v.94H96.58v1.75h2.85v.93H96.58v1.84h3.64v.94H95.57Z"/><path id="_Tracé_transparent_3" data-name="&lt;Tracé transparent&gt;" class="cls-3" d="M106.65,10.18h-2.77V16.6h1V14.25h1.59a1.94,1.94,0,0,0,.34,0,2,2,0,0,0-.17-4.05Zm-.1,3.13H104.9V11.13h1.66a1.09,1.09,0,1,1,0,2.18Z"/><polygon id="_Tracé_6" data-name="&lt;Tracé&gt;" class="cls-3" points="128.4 11.12 128.4 10.18 123.51 10.18 123.51 11.12 125.46 11.12 125.46 11.14 125.46 16.6 126.45 16.6 126.45 11.12 128.4 11.12"/><polygon id="_Tracé_7" data-name="&lt;Tracé&gt;" class="cls-3" points="136.83 10.18 135.84 10.18 135.84 16.6 139.74 16.6 139.74 15.65 136.83 15.65 136.83 10.18"/><path id="_Tracé_8" data-name="&lt;Tracé&gt;" class="cls-3" d="M120.18,12.82c-1.1-.2-1.66-.36-1.64-.89s.41-.84,1.11-.92a2,2,0,0,1,.49,0,2.66,2.66,0,0,1,1.54.58.18.18,0,0,1,.1.09l.56-.81a3.66,3.66,0,0,0-2.34-.8c-1.48,0-2.48.82-2.49,1.94,0,1.32,1.15,1.59,2.26,1.79s1.82.36,1.8.92-.46.95-1.37,1h-.36a2.92,2.92,0,0,1-1.9-.76s-.08-.05-.11-.09l-.57.82a3.73,3.73,0,0,0,2.69,1c1.62,0,2.6-.81,2.64-2C122.64,13.25,121.37,13,120.18,12.82Z"/><path id="_Tracé_transparent_4" data-name="&lt;Tracé transparent&gt;" class="cls-3" d="M113.06,10.06a3.2,3.2,0,0,0-3.28,3.3,3.28,3.28,0,1,0,6.56,0A3.17,3.17,0,0,0,113.06,10.06Zm0,5.65a2.22,2.22,0,0,1-2.26-2.37,2.27,2.27,0,1,1,4.53,0A2.22,2.22,0,0,1,113.06,15.71Z"/><path id="_Tracé_transparent_5" data-name="&lt;Tracé transparent&gt;" class="cls-3" d="M130.8,10.18l-2.69,6.42h1.13l.53-1.32h3.17l.54,1.32h1.12l-2.69-6.39H130.8Zm-.67,4.16,1.23-3,1.23,3Z"/><polygon id="_Tracé_9" data-name="&lt;Tracé&gt;" class="cls-3" points="141.86 15.65 141.86 13.81 144.56 13.81 144.56 12.88 141.86 12.88 141.86 11.12 145.3 11.12 145.3 10.18 140.85 10.18 140.85 16.6 145.34 16.6 145.34 15.65 141.86 15.65"/><path id="_Tracé_transparent_6" data-name="&lt;Tracé transparent&gt;" class="cls-3" d="M86.61,13.36a3.28,3.28,0,1,0-6.56,0,3.19,3.19,0,0,0,3.28,3.3,3.32,3.32,0,0,0,.8-.09l.47,1.14h1.12l-.66-1.5A3.23,3.23,0,0,0,86.61,13.36Zm-3.28,2.36a2.22,2.22,0,0,1-2.26-2.36,2.27,2.27,0,1,1,4.53,0,2.42,2.42,0,0,1-.91,2l-.25-.6H83.37l.41,1Z"/><g id="_Groupe_3" data-name="&lt;Groupe&gt;"><path id="_Tracé_10" data-name="&lt;Tracé&gt;" class="cls-4" d="M42.2,16.67V10h1.08V15.7h3.54v1H42.2Z"/><path id="_Tracé_transparent_7" data-name="&lt;Tracé transparent&gt;" class="cls-4" d="M51.55,11.11,50.24,14.3h2.64Zm2.28,5.56-.57-1.39h-3.4l-.58,1.39H48.1L51,10h1.18L55,16.67Z"/></g><g id="_Groupe_4" data-name="&lt;Groupe&gt;"><g id="_Groupe_5" data-name="&lt;Groupe&gt;"><path id="_Tracé_transparent_8" data-name="&lt;Tracé transparent&gt;" class="cls-3" d="M17,8.81A14.74,14.74,0,0,1,21.43,11l7.9-.08.54-.71c.57-.76.6-1.54-.61-1.55-.65,0-10.93,0-12.13.05C17,8.71,16.81,8.71,17,8.81Zm18.33,2.48-13.73.25c.06.56-.54,1.38-1.78,2.14a47.86,47.86,0,0,1-7.25,3.13,0,0,0,0,0,0,.09c8.91-2.26,14.82-3.95,22.75-5.46C35.62,11.4,35.77,11.29,35.37,11.29Zm-8.28,2.44L14.78,16.84s0,.05,0,.05l9.53-.3a1.73,1.73,0,0,0,1.22-.78l1.56-2S27.15,13.71,27.09,13.73Z"/></g></g></g></g></g></svg>