<svg xmlns="http://www.w3.org/2000/svg" xmlns:xlink="http://www.w3.org/1999/xlink" viewBox="0 0 35 35"><defs><style>.cls-1{fill:url(#Dégradé_sans_nom_10);}.cls-2{fill:url(#Dégradé_sans_nom_9);}.cls-3{fill:#fff;}.cls-4{fill:#fc0;}</style><radialGradient id="Dégradé_sans_nom_10" cx="-28.93" cy="-793.1" r="15.96" gradientTransform="translate(66.05 1715.68) scale(2.16)" gradientUnits="userSpaceOnUse"><stop offset="0" stop-color="#006cb5"/><stop offset="1" stop-color="#1f3460"/></radialGradient><radialGradient id="Dégradé_sans_nom_9" cx="-22.05" cy="-873.57" r="7.66" gradientTransform="translate(66.05 1068.03) scale(2.16 1.21)" gradientUnits="userSpaceOnUse"><stop offset="0.06" stop-opacity="0.5"/><stop offset="1" stop-opacity="0"/></radialGradient></defs><title>banquepostale</title><g id="Calque_2" data-name="Calque 2"><g id="Calque_1-2" data-name="Calque 1"><g id="_Groupe_" data-name="&lt;Groupe&gt;"><g id="_Groupe_2" data-name="&lt;Groupe&gt;"><rect id="_Tracé_" data-name="&lt;Tracé&gt;" class="cls-1" width="35" height="35"/></g><g id="_Groupe_3" data-name="&lt;Groupe&gt;"><g id="_Groupe_4" data-name="&lt;Groupe&gt;"><rect id="_Tracé_2" data-name="&lt;Tracé&gt;" class="cls-2" width="35" height="19.24"/><g id="_Groupe_5" data-name="&lt;Groupe&gt;"><path id="_Tracé_transparent_" data-name="&lt;Tracé transparent&gt;" class="cls-3" d="M5.91,22.42a.58.58,0,0,0-.63-.61H3.85V23H5.3A.56.56,0,0,0,5.91,22.42Zm.2,1.86a.6.6,0,0,0-.65-.63H3.85v1.26H5.47A.59.59,0,0,0,6.11,24.28Zm-3-3.11H5.38a1.15,1.15,0,0,1,1.25,1.15,1,1,0,0,1-.64,1,1.08,1.08,0,0,1,.84,1.08,1.15,1.15,0,0,1-1.26,1.18H3.15Z"/><path id="_Tracé_transparent_2" data-name="&lt;Tracé transparent&gt;" class="cls-3" d="M9.74,21.93,8.89,24H10.6Zm1.47,3.61-.37-.9H8.64l-.37.9H7.49l1.87-4.37h.76L12,25.54Z"/><path id="_Tracé_3" data-name="&lt;Tracé&gt;" class="cls-3" d="M16.08,25.54l-2.51-3.25v3.25h-.7V21.17h.68L16,24.37v-3.2h.7v4.37Z"/><path id="_Tracé_4" data-name="&lt;Tracé&gt;" class="cls-3" d="M23.52,23.8V21.17h.7v2.62A1.09,1.09,0,0,0,25.43,25a1.08,1.08,0,0,0,1.21-1.18V21.17h.71V23.8a1.72,1.72,0,0,1-1.92,1.82A1.72,1.72,0,0,1,23.52,23.8Z"/><path id="_Tracé_5" data-name="&lt;Tracé&gt;" class="cls-3" d="M28.63,25.54V21.17h3.2v.64h-2.5V23h2v.64h-2v1.26h2.52v.64H28.63Z"/><path id="_Tracé_transparent_3" data-name="&lt;Tracé transparent&gt;" class="cls-3" d="M5.06,27.47H3.15v4.38h.7v-1.6H5.18a1.39,1.39,0,0,0-.12-2.77ZM5,29.61H3.85v-1.5H5a.75.75,0,1,1,0,1.5Z"/><polygon id="_Tracé_6" data-name="&lt;Tracé&gt;" class="cls-3" points="20.13 28.11 20.13 27.47 16.74 27.47 16.74 28.11 18.09 28.11 18.09 28.13 18.09 31.86 18.77 31.86 18.77 28.11 20.13 28.11"/><polygon id="_Tracé_7" data-name="&lt;Tracé&gt;" class="cls-3" points="25.96 27.47 25.27 27.47 25.27 31.86 27.98 31.86 27.98 31.21 25.96 31.21 25.96 27.47"/><path id="_Tracé_8" data-name="&lt;Tracé&gt;" class="cls-3" d="M14.43,29.27c-.76-.14-1.14-.25-1.13-.61s.28-.57.76-.63a2,2,0,0,1,.35,0,2,2,0,0,1,1.06.4s.06,0,.07.06l.39-.55a2.57,2.57,0,0,0-1.62-.55c-1,0-1.72.56-1.73,1.32s.8,1.09,1.57,1.23,1.26.24,1.25.63-.32.65-1,.69H14.2a2,2,0,0,1-1.32-.52l-.08-.06-.39.56a2.6,2.6,0,0,0,1.86.67c1.13,0,1.81-.55,1.83-1.37S15.26,29.42,14.43,29.27Z"/><path id="_Tracé_transparent_4" data-name="&lt;Tracé transparent&gt;" class="cls-3" d="M9.5,27.38a2.26,2.26,0,1,0,0,4.52,2.26,2.26,0,1,0,0-4.52Zm0,3.87a1.53,1.53,0,0,1-1.56-1.62A1.57,1.57,0,1,1,9.5,31.25Z"/><path id="_Tracé_transparent_5" data-name="&lt;Tracé transparent&gt;" class="cls-3" d="M21.79,27.47l-1.87,4.38h.78l.37-.9h2.2l.37.9h.78l-1.86-4.36h-.77Zm-.47,2.84.85-2.08L23,30.31Z"/><polygon id="_Tracé_9" data-name="&lt;Tracé&gt;" class="cls-3" points="29.45 31.21 29.45 29.95 31.31 29.95 31.31 29.31 29.45 29.31 29.45 28.11 31.83 28.11 31.83 27.47 28.74 27.47 28.74 31.86 31.86 31.86 31.86 31.21 29.45 31.21"/><path id="_Tracé_transparent_6" data-name="&lt;Tracé transparent&gt;" class="cls-3" d="M22.43,23.36a2.27,2.27,0,1,0-2.27,2.26,2.36,2.36,0,0,0,.55-.07l.32.78h.78l-.46-1A2.22,2.22,0,0,0,22.43,23.36ZM20.16,25a1.62,1.62,0,1,1,1.57-1.61,1.66,1.66,0,0,1-.63,1.33l-.17-.41h-.75l.29.67Z"/></g><g id="_Groupe_6" data-name="&lt;Groupe&gt;"><path id="_Tracé_10" data-name="&lt;Tracé&gt;" class="cls-4" d="M3.15,19.24V14.88h.7v3.74h2.3v.64h-3Z"/><path id="_Tracé_transparent_7" data-name="&lt;Tracé transparent&gt;" class="cls-4" d="M9.22,15.63l-.85,2.08h1.72Zm1.49,3.61-.38-.9H8.12l-.37.9H7l1.86-4.36h.77l1.87,4.36Z"/></g><g id="_Groupe_7" data-name="&lt;Groupe&gt;"><g id="_Groupe_8" data-name="&lt;Groupe&gt;"><path id="_Tracé_transparent_8" data-name="&lt;Tracé transparent&gt;" class="cls-3" d="M10.1,3.29a15.81,15.81,0,0,1,4.67,2.36l8.39-.09c.24-.29.32-.41.58-.75.61-.81.64-1.64-.65-1.65-.69,0-11.62,0-12.89,0C10,3.2,9.85,3.2,10.1,3.29ZM29.59,5.94,15,6.21c.06.59-.58,1.45-1.9,2.27-.68.41-2.23,1.24-7.71,3.32-.07,0,0,.11,0,.1,9.48-2.41,15.76-4.2,24.19-5.8C29.85,6.05,30,5.94,29.59,5.94Zm-8.8,2.59L7.7,11.84s0,.05,0,.05l10.13-.32a1.84,1.84,0,0,0,1.3-.83l1.65-2.15S20.85,8.5,20.79,8.53Z"/></g></g></g></g></g></g></g></svg>