<?xml version="1.0" standalone="no"?>
<!DOCTYPE svg PUBLIC "-//W3C//DTD SVG 20010904//EN"
 "http://www.w3.org/TR/2001/REC-SVG-20010904/DTD/svg10.dtd">
<svg version="1.0" xmlns="http://www.w3.org/2000/svg"
 width="232.000000pt" height="52.000000pt" viewBox="0 0 232.000000 52.000000"
 preserveAspectRatio="xMidYMid meet">

<g transform="translate(0.000000,52.000000) scale(0.100000,-0.100000)"
fill="#000000" stroke="none">
<path d="M17 502 c-15 -16 -17 -49 -17 -255 l0 -237 153 0 c139 0 157 2 197
22 58 30 83 75 77 142 -4 41 -10 55 -38 80 l-34 31 28 27 c36 35 39 111 5 153
-36 46 -74 55 -221 55 -117 0 -136 -2 -150 -18z m264 -82 c12 -7 19 -21 19
-40 0 -45 -31 -60 -122 -60 l-78 0 0 55 0 55 81 0 c44 0 89 -5 100 -10z m23
-212 c20 -28 20 -58 2 -84 -12 -16 -29 -20 -110 -22 l-96 -4 0 66 0 66 94 0
c87 0 96 -2 110 -22z"/>
<path d="M470 265 l0 -255 55 0 55 0 0 238 c0 269 -1 272 -73 272 l-37 0 0
-255z"/>
<path d="M1370 265 l0 -255 55 0 55 0 0 79 c0 118 19 116 87 -9 l38 -70 63 0
c34 0 62 2 62 5 0 2 -32 57 -71 121 l-70 117 73 74 72 73 -64 0 -65 0 -62 -67
-62 -68 -1 111 c0 127 -9 144 -73 144 l-37 0 0 -255z"/>
<path d="M684 391 c-34 -21 -64 -57 -64 -78 0 -18 90 -16 114 2 36 27 116 13
116 -20 0 -20 -26 -32 -85 -40 -116 -17 -155 -51 -155 -133 0 -90 58 -129 176
-119 126 10 164 61 164 223 0 110 -13 143 -64 168 -49 23 -162 22 -202 -3z
m166 -220 c0 -43 -9 -60 -41 -76 -57 -30 -99 -14 -99 36 0 32 6 37 69 54 67
19 71 18 71 -14z"/>
<path d="M1084 397 c-88 -34 -103 -71 -104 -254 l0 -133 55 0 55 0 0 140 c0
127 2 142 20 160 26 26 70 26 98 0 20 -19 22 -30 22 -148 0 -86 4 -132 12
-140 7 -7 32 -12 56 -12 l44 0 -4 148 c-5 172 -14 198 -81 231 -48 23 -123 27
-173 8z"/>
<path d="M2051 213 c-73 -2 -130 -8 -138 -15 -10 -8 -13 -34 -11 -97 l3 -86
154 -3 c85 -1 158 1 163 6 4 4 8 46 9 92 1 70 -2 86 -17 97 -10 7 -23 12 -28
11 -6 -1 -67 -4 -135 -5z m116 -60 c13 -12 22 -35 25 -65 l6 -48 -134 0 -134
0 0 64 0 64 108 1 c90 1 112 -2 129 -16z"/>
</g>
</svg>
