<svg xmlns="http://www.w3.org/2000/svg" viewBox="0 0 2426.2 921.7"><defs><style>.cls-1{fill:#37a094;}</style></defs><title>bnp</title><g id="Calque_2" data-name="Calque 2"><g id="Calque_1-2" data-name="Calque 1"><path class="cls-1" d="M823.7,184c-75,43.9-98.1,47.4-178.9,96.1,47.1-51.3,63.5-73,93-116-75.1,4-183.9,12.9-261.9,30.2,67.9-36,202.1-76.4,272.9-85.9C732.4,85.8,599.5,13.6,566.4,0c105.1,8.1,233.8,47.2,296,85.5,25.1-7.6,50.2-8.2,95.7-12.1-11.6,20-11.7,31.6-56.7,61.1,12.5,33.2-17.1,215.7-41.5,264.3-1.1-76.5-7.9-173-36.2-214.8ZM276.3,838.7c-43.2-15.9-74.2-34.5-108.1-66.3,10.2-28,21.8-50.2,40.9-78.1-35.2,5-60.6,8.8-90.7,14.8C93.7,666,82.9,624.8,70.3,567.5c-6.8,60.7-9.3,104.2-.5,152.7C42.2,727.7,22.6,734.5,0,744.7c31.7,19.6,57.4,34.8,93.2,51.2,18.9,40.9,38.7,68.8,70.6,100.1-7.6-26.7-9.4-48.2-6.6-76.2,39.9,11.7,73.8,17.5,119.1,18.9ZM388.1,231.6c-13.6,17.4-29,49.8-33.1,64.8,110.5,15.3,199.7,71.9,199.7,71.9-97.3-17.1-148-15-184.1-11.9-36,3.6-43.3,7.9-43.3,7.9-26.1,56.7-41.6,155.2-41.6,155.3-17.7-42.4-43.2-127.4-43.2-127.5C193.7,418.4,81.5,524,81.4,524c61.7-123.8,124.3-180.4,124.3-180.4-21.6-21.5-78-32.3-119.3-34.2,21.5-8.8,76.6-19.2,118.9-21,42.2-1.3,67.7,1.3,67.8,1.3,37.8-29.9,95-55,115-58.1ZM505.4,762.2c-19.7,26.3-36.3,47.3-58.1,71.6-37.3,10.1-66.9,13.9-103.2,14.1A247.67,247.67,0,0,0,411,871.1c-23.1,21.2-42.9,36.3-65.4,50.6,37.8-9.1,87.8-25.3,124.8-46.9,19.1.5,37.3-.7,50.6-3-3.2-11.5-5.6-19.8-8.4-34.6,35-27.1,60.4-51.5,89.2-80.7-30.8,21.5-57.5,37.8-92.9,54.6-1.6-16.3-2.8-32.6-3.5-48.9Z"/><path d="M456.5,522.1c1.5,16.2,2.5,56.5,2.5,71.3,0,13.6-.2,59-2.7,78.6l-.3,1.6h88.9c43.4,0,89.8-11.1,89.8-42,0-19.4-17.5-33.8-50.4-41.7,24.1-5.1,40.6-18.5,40.6-34,0-25.2-36.4-34.8-70.3-35.4l-98.1-.1Zm68.6,15.5c37.1.1,50.9,6.3,50.9,22.4a14.93,14.93,0,0,1-4.9,11.3c-7.1,6.8-21.3,10.2-38.8,9.6h-.9l-10.2,21.5h10.4c20.5-.6,38.2,4.6,47.3,13.5,4.2,4.1,6.3,8.8,6.3,13.8,0,17.1-18.6,25.8-55.2,25.8-6.2,0-16.1,0-22.5-.4-1.3-22.4-1.4-52.9-1.4-61.9,0-10.6.6-34.4,1.5-54.7a170.93,170.93,0,0,1,17.5-.9Zm314.4-17.1H796.4l1.8,38.6c.8,19.2,1.5,38.8,3.2,57.7-2.9-5.8-5.4-9-18.3-24.2-.4-.6-45.2-55.9-60.8-71.6l-.5-.5H671.5l.1,1.5c1.5,16.1,2.5,56.5,2.5,71.3,0,13.5-.2,59-2.8,78.6l-.2,1.5h44.6l-.1-1.4c-2.6-37.5-2.6-75.2-2.6-111.5v-.1c1.5,4.3,3.6,8.4,10.6,16.7.8.9,77.4,90.5,81.4,95.9l.4.5h35.9l-.2-1.5c-2.7-19.7-2.9-65.1-2.9-78.6,0-14.9,1.1-55.3,2.5-71.3l.2-1.5-1.4-.1Zm51.9,1.5c1.4,16.2,2.5,56.5,2.5,71.4,0,13.5-.2,59-2.9,78.6l-.2,1.6h53.3l-.2-1.6c-1.9-14-2.5-40.9-2.7-61.6,2.2.1,9.8.4,9.8.4l7.4.3c70.2,0,104.2-15.1,104.2-46.1,0-35.4-47.8-43.6-87.8-44.4H891.2Zm65.2,16.9c24.9-.4,42.5,3.7,50.9,12.1a19.09,19.09,0,0,1,5.7,13.9c0,22.2-31,26.8-57,26.8l-10.5-.2-4.2-.5c-.2-5.1-.3-11.7-.3-19.4,0-9.8.1-20.9.6-31.7,5-.5,9.9-.9,14.8-1ZM1164.3,522c1.5,16.2,2.6,56.5,2.6,71.4,0,13.5-.2,59-2.8,78.6l-.2,1.6h53.2l-.2-1.6c-1.8-14-2.5-40.9-2.7-61.6l9.7.4,7.5.3c70.1,0,104.2-15.1,104.2-46.1,0-35.4-47.8-43.6-87.8-44.4h-83.5V522Zm65.2,16.9c24.9-.4,42.5,3.7,50.8,12.1a18.79,18.79,0,0,1,5.8,13.9c0,22.2-31,26.8-57.1,26.8l-10.5-.2-4.2-.5c-.2-5.1-.3-11.8-.3-19.4,0-9.8.2-20.9.6-31.7,3.4-.4,9.2-.8,14.9-1Zm177.4-18.3h-.9l-.4.9c-9.9,21.7-73.6,133-83.5,150l-1.2,2.2h45.7l.3-.9c4-10.4,9.1-22.3,15.1-35l37.8-.5,31.1.3s5.5.1,6.8.1c8.3,16.5,14.3,28.9,17,35.1l.3.9h52.9l-85.2-153-35.8-.1Zm13,45c4.2,7.2,15.1,27.7,27.5,51.8l-4.1.1-23.4.3s-24.2-.3-28-.4C1400.8,599.9,1410.1,582.7,1419.9,565.6Zm129-43.6c1.4,16.1,2.6,56.5,2.6,71.3,0,13.5-.3,59-2.9,78.6l-.2,1.6h53.2l-.2-1.5c-2.7-19.7-2.9-65.1-2.9-78.6,0-10.6.6-34.4,1.5-53.4,4.8-.4,9.6-.7,14.5-.9,24.8-.4,42.4,3.7,50.8,12a18.36,18.36,0,0,1,5.8,13.8c0,17.7-20.8,26.6-40.1,27.4a60.73,60.73,0,0,1-11.3-.5l-3.6-.5,2.4,2.8c18.6,22.1,47,60.5,58.9,78.9l.5.6h57l-1.7-2.3c-1.9-2.5-39.3-46.3-55.2-65,0,0-.6-.7-1-1.2,28.9-7,43.2-20.2,43.2-40.3,0-35.4-47.8-43.6-87.9-44.3l-83.5-.1.1,1.6Zm261.5-1.6h-51l.2,1.5c1.5,16.2,2.5,56.5,2.5,71.4,0,13.4-.2,58.9-2.8,78.6l-.2,1.6h53.2l-.3-1.6c-2.6-19.6-2.8-65.1-2.8-78.6,0-14.9,1.1-55.3,2.5-71.4l.1-1.5Zm49.8,1.7c1.5,16.1,2.6,56.4,2.6,71.3,0,13.6-.2,59-2.8,78.6l-.2,1.6h88.8c43.4,0,89.9-11.1,89.9-42,0-19.4-17.6-33.8-50.6-41.7,24.1-5.1,40.6-18.5,40.6-34,0-25.2-36.3-34.8-70.3-35.4l-98-.1Zm68.6,15.5c37.2.1,51,6.3,51,22.4a15,15,0,0,1-5,11.3c-7,6.8-21.2,10.2-38.8,9.6h-.9l-10.2,21.5h10.4c20.5-.6,38.1,4.6,47.3,13.5,4.2,4.1,6.3,8.8,6.3,13.8,0,17.1-18.5,25.8-55.1,25.8-6.2,0-16.2,0-22.5-.4-1.3-22.4-1.3-52.9-1.3-61.9,0-10.8.5-34.4,1.5-54.7a142.17,142.17,0,0,1,17.3-.9Zm242-17.2H2135l-.4.8c-10.5,23.1-77.9,140.4-83.5,150.1l-1.2,2.1h45.7l.3-1c4.6-11.9,9.6-23.5,15.1-35,1.6,0,37.7-.5,37.7-.5l31.1.4s5.4.1,6.8.1c8.3,16.4,14.3,28.9,17,35.1l.4.9h52.8l-85.1-153.1-.9.1Zm-22,45.1c4.3,7.2,15.1,27.7,27.5,51.8l-4,.1-23.5.3-27.9-.5C2129.8,599.8,2139.1,582.5,2148.8,565.5Zm121.2-5.4c0,26.9,33.8,37.8,63.7,47.4,23.2,7.5,47.1,15.3,47.1,28.1a12.44,12.44,0,0,1-3.8,9.5c-5.4,5.3-16.9,7.5-34.8,6.8-17.5-.7-37.7-5.2-59.9-13.5l-9.4-3.5v33.4l6.1,1.1,3.7.6c11.2,2.2,32.4,6.2,53.9,6.2,56.1,0,89.6-17.8,89.6-47.4,0-27.6-34.6-38.6-65.1-48.3-22.5-7.2-45.8-14.6-45.8-26.4,0-3.4,0-13.6,28.8-13.6,21.6,0,42.7,7,54.1,10.8l11.1,3.5-.2-5.7V521.3l-10.9-1.5c-10.8-1.7-28.9-4.5-47.7-4.5C2302.4,515.1,2270,533.2,2270,560.1Z"/></g></g></svg>