<?xml version="1.0" encoding="UTF-8"?> <svg xmlns="http://www.w3.org/2000/svg" viewBox="0 0 211.96 48.55"><defs><style>.cls-1{fill:#d20073;}.cls-2{fill:#009de0;}.cls-3{fill:#23bbea;}.cls-4{fill:#003883;}.cls-5{fill:#006fb7;}</style></defs><title>boursorama_4</title><g id="Calque_2" data-name="Calque 2"><g id="Calque_1-2" data-name="Calque 1"><path class="cls-1" d="M43.63,8.21a.8.8,0,0,1,.06.48V35.82a7.84,7.84,0,0,1-1.3,4.61,7,7,0,0,1-6.47,3.23,7.31,7.31,0,0,1-6.61-5.83,10.54,10.54,0,0,1-.18-2c0-3.34,0-6.69,0-10,0-.3,0-.59,0-.88a.13.13,0,0,1,0-.12,1.81,1.81,0,0,1,.4-.47L39.75,14.06a2.75,2.75,0,0,0,.53-.65l.08-.09a.66.66,0,0,0,.27-.23,20.55,20.55,0,0,0,1.55-1.67,6.78,6.78,0,0,0,1.26-2.91C43.46,8.39,43.45,8.23,43.63,8.21Z"></path><path class="cls-1" d="M18.78,14.61l-2.61,0c-2.83,0-5.65,0-8.48,0A7.49,7.49,0,0,1,.12,8.51,7.24,7.24,0,0,1,3.62,1.1,9.93,9.93,0,0,1,6.69,0a2.54,2.54,0,0,1,.39,0h27.8c.18,0,.35,0,.53,0,0,.19-.22.18-.35.21a7.22,7.22,0,0,0-4,2.3c-.13.14-.26.28-.4.41C27,6.6,23.35,10.25,19.71,13.88c-.23.23-.45.47-.69.68C18.94,14.61,18.87,14.66,18.78,14.61Z"></path><path class="cls-2" d="M29.16,24.76l-.06.14a5.36,5.36,0,0,0-.74.69L12.7,41.25a7.47,7.47,0,0,1-2.85,1.88A7.27,7.27,0,0,1,2.6,42a1.6,1.6,0,0,1-.43-.43c0-.12,0-.2.09-.28L2.57,41l26-26c.17-.16.29-.41.59-.42l.05.05a.47.47,0,0,1,.06.15,2.33,2.33,0,0,1,0,.53V24A1.52,1.52,0,0,1,29.16,24.76Z"></path><path class="cls-3" d="M29.05,14.61l-.32.36Q15.62,28.07,2.52,41.18a1.88,1.88,0,0,0-.35.39,6.52,6.52,0,0,1-2-4.15,7.58,7.58,0,0,1,2.39-6.5q7.68-7.67,15.34-15.35a8.26,8.26,0,0,0,.91-1l.21-.1a1.57,1.57,0,0,1,.48,0H28.3C28.55,14.46,28.83,14.4,29.05,14.61Z"></path><path class="cls-1" d="M176.07,5.91c.23-.2.43-.4.65-.56a5.2,5.2,0,0,1,7,.88l.14.18a.18.18,0,0,0,.3,0l.09-.1a5.09,5.09,0,0,1,3.26-1.85,6.88,6.88,0,0,1,3.57.31,5,5,0,0,1,3.1,3.34,8.29,8.29,0,0,1,.4,2.47q0,4.11,0,8.22c0,.51-.06.57-.55.57h-2.39c-.51,0-.58-.07-.58-.59V11.36a6.44,6.44,0,0,0-.19-1.75,3.46,3.46,0,0,0-.34-.82,2.22,2.22,0,0,0-1.47-1.11,3.38,3.38,0,0,0-1.7.05,2.16,2.16,0,0,0-1.24.94,4.57,4.57,0,0,0-.64,2q-.06.75-.06,1.5c0,2.15,0,4.3,0,6.45,0,.75,0,.75-.76.75s-1.42,0-2.12,0-.63,0-.63-.62V12.39a15,15,0,0,0-.06-1.9,4.12,4.12,0,0,0-.48-1.6,2.41,2.41,0,0,0-1.6-1.21,3.67,3.67,0,0,0-1.36,0,2.14,2.14,0,0,0-1.68,1.41,6,6,0,0,0-.44,2.33c0,2.42,0,4.83,0,7.25,0,.74,0,.74-.73.74h-2.16c-.62,0-.63,0-.63-.61V5.37c0-.49.08-.57.56-.56.71,0,1.41,0,2.12,0,.48,0,.56.07.54.56A1,1,0,0,0,176.07,5.91Z"></path><path class="cls-4" d="M30.56,2.94A7.52,7.52,0,0,1,35,.15a.72.72,0,0,0,.38-.1,7.39,7.39,0,0,1,6,2,7.24,7.24,0,0,1,2.12,4,7.05,7.05,0,0,1,.09,2.15c-.07.34-.14.68-.23,1a7.55,7.55,0,0,1-1.78,3,10.32,10.32,0,0,1-.95.92,2.16,2.16,0,0,0-.3.18h0A5.86,5.86,0,0,1,37,14.64c-2.39.15-4.78.09-7.18.09-.23,0-.47,0-.67-.13h0a.73.73,0,0,1-.13-.54c0-2.28-.05-4.56,0-6.84A6.54,6.54,0,0,1,30.56,2.94Z"></path><path class="cls-1" d="M99.52,18.1c-.19.07-.27.22-.38.34A4.15,4.15,0,0,1,96,19.85a6.24,6.24,0,0,1-4.25-1.44,5.06,5.06,0,0,1-1.85-3.78c-.1-2.15-.09-4.3-.08-6.45,0-.94,0-1.88,0-2.82,0-.45,0-.48.48-.48H92.8c.49,0,.52,0,.52.53v6.85a7.38,7.38,0,0,0,.26,2.19,4.62,4.62,0,0,0,.23.62,2.44,2.44,0,0,0,2.39,1.56,2.56,2.56,0,0,0,2.55-1.54,5.56,5.56,0,0,0,.5-2.4c0-2.38,0-4.75,0-7.12,0-.72.06-.78.78-.75s1.44,0,2.17,0h.26c.2,0,.33.13.32.35V18.72c0,.65,0,.65-.63.65H100c-.44,0-.51-.07-.49-.52A3.15,3.15,0,0,0,99.52,18.1Z"></path><path class="cls-4" d="M93.31,30.39l.76-.57a5,5,0,0,1,3.25-1.06,5.54,5.54,0,0,1,5.54,4.84,12.1,12.1,0,0,1,.12,1.8c0,2.57,0,5.13,0,7.69v.18c0,.43-.06.49-.48.49H100c-.44,0-.51-.07-.51-.52,0-1.86,0-3.71,0-5.57a19.73,19.73,0,0,0-.07-2.43A6.41,6.41,0,0,0,99,33.58a2.61,2.61,0,0,0-3.76-1.26,3.13,3.13,0,0,0-1.58,2.52,11.86,11.86,0,0,0-.09,1.58V43c0,.14,0,.27,0,.4,0,.31-.09.4-.4.4-.91,0-1.83,0-2.74,0-.29,0-.36-.08-.38-.37,0-.12,0-.24,0-.36V29.87c0-.65,0-.65.63-.64h2.07c.55,0,.56,0,.55.53Z"></path><path class="cls-4" d="M133.17,42.43c-.24.23-.43.41-.61.6a4,4,0,0,1-2.68,1.19,6.28,6.28,0,0,1-4.49-1.38,5.18,5.18,0,0,1-1.92-4c-.07-2.66,0-5.33,0-8,0-.39,0-.79,0-1.19s0-.37.39-.38h2.65c.41,0,.46.05.46.46v5.53a25.14,25.14,0,0,0,.06,2.6,5,5,0,0,0,.48,1.74A2.46,2.46,0,0,0,129.76,41a2.53,2.53,0,0,0,2.47-1.31,4.93,4.93,0,0,0,.6-2.11c.06-.72.07-1.44.06-2.16,0-1.86,0-3.71,0-5.57,0-.63,0-.66.64-.65s1.5,0,2.26,0c.58,0,.59,0,.59.58V43.24c0,.51,0,.52-.53.52h-2.16c-.48,0-.51,0-.51-.49Z"></path><path class="cls-1" d="M117.38,14.77h1.32a.51.51,0,0,1,.57.37c.09.22.18.44.28.65a1.74,1.74,0,0,0,2.53.51,1.36,1.36,0,0,0-.1-2.22,8,8,0,0,0-1.61-.71,18.25,18.25,0,0,1-1.75-.63,4,4,0,0,1-2.48-3.35,4.4,4.4,0,0,1,2.45-4.47,4.89,4.89,0,0,1,5.27.37,4.7,4.7,0,0,1,1.84,3c.07.34,0,.44-.39.47a7.85,7.85,0,0,1-.84,0l-1.63,0c-.46,0-.53,0-.68-.46a1.39,1.39,0,0,0-2.31-.3,1.07,1.07,0,0,0,.21,1.59,2.8,2.8,0,0,0,1,.44c.77.24,1.54.47,2.3.78a5.5,5.5,0,0,1,1.2.63,3.85,3.85,0,0,1,1.58,3.76,5,5,0,0,1-3.66,4.32,5.56,5.56,0,0,1-4.52-.54,4.69,4.69,0,0,1-2.23-3.39c0-.17-.06-.35-.08-.52s0-.35.31-.35Z"></path><path class="cls-1" d="M148.92,6.05a5.45,5.45,0,0,1,3.54-1.45l.7-.06a.28.28,0,0,1,.32.29.91.91,0,0,1,0,.17V7.3c0,.39-.07.45-.46.5a5.45,5.45,0,0,0-2.21.7,3.13,3.13,0,0,0-1.6,2.59c0,.22,0,.44,0,.66,0,2.3,0,4.6,0,6.89,0,.71,0,.73-.71.73h-2.26c-.46,0-.51-.05-.51-.51V5.34c0-.45.05-.5.52-.5h2.2c.43,0,.47,0,.47.49C148.93,5.53,148.92,5.74,148.92,6.05Z"></path><path class="cls-1" d="M109.75,5.94a5.84,5.84,0,0,1,3.42-1.33c.23,0,.46-.06.7-.07s.41.06.43.4V7.28c0,.42,0,.48-.47.52a5.31,5.31,0,0,0-2,.6,3.17,3.17,0,0,0-1.77,3c0,2.42,0,4.83,0,7.25,0,.74,0,.74-.72.74s-1.51,0-2.26,0c-.46,0-.5-.05-.5-.51V5.29c0-.39.06-.44.47-.45h2.17c.52,0,.55,0,.55.54Z"></path><path class="cls-5" d="M29.15,14.6c2,0,4.09.05,6.13,0A11.24,11.24,0,0,0,38,14.36a7.71,7.71,0,0,0,1.9-.79.83.83,0,0,1,.48-.2c0,.23-.16.37-.3.51-.33.34-.67.67-1,1l-9.59,9.59a1.26,1.26,0,0,1-.32.29c0-.12,0-.23,0-.35V14.82C29.14,14.74,29.15,14.67,29.15,14.6Z"></path><path class="cls-5" d="M40.37,13.37a.27.27,0,0,1,.3-.18A.27.27,0,0,1,40.37,13.37Z"></path><path class="cls-5" d="M30.56,2.94c-.24.45-.5.89-.72,1.35a8,8,0,0,0-.62,2.19,19.16,19.16,0,0,0-.08,2.73c0,1.79,0,3.59,0,5.38l-.09,0H19.5a.75.75,0,0,1-.51-.09c.05-.15.18-.23.28-.34l11-10.95C30.33,3.11,30.41,3,30.56,2.94Z"></path><path class="cls-4" d="M69.1,36a4,4,0,0,0-2.25-2.47l-.62-.28c.26-.21.46-.4.68-.57a3.69,3.69,0,0,0,1.38-2.9,5.06,5.06,0,0,0-3.22-4.82,8.76,8.76,0,0,0-3-.49c-1.51,0-3,0-4.51,0-.71,0-.71,0-.71.71v18c0,.11,0,.21,0,.31,0,.29.09.35.39.37h.22c1.56,0,3.12,0,4.69,0a12.32,12.32,0,0,0,3-.33,5.4,5.4,0,0,0,3.31-2.26A5.71,5.71,0,0,0,69.1,36Zm-8.65-7.85c0-.17,0-.33.25-.33a10.48,10.48,0,0,1,2.24.09,2.33,2.33,0,0,1,1.44.88,1.94,1.94,0,0,1-.9,2.89,4.63,4.63,0,0,1-1.52.27c-.36,0-.73,0-1.1,0s-.41,0-.41-.4c0-.56,0-1.12,0-1.68h0Zm5.26,10.66A2,2,0,0,1,64.55,40a5.39,5.39,0,0,1-2,.4c-.56,0-1.12,0-1.67,0-.35,0-.41-.06-.41-.42,0-.72,0-1.44,0-2.16h0V35.65c0-.21,0-.35.29-.35a14.16,14.16,0,0,1,3,.16,3.48,3.48,0,0,1,.94.37A2.37,2.37,0,0,1,65.71,38.77Z"></path><path class="cls-1" d="M69.38,12.75A4.35,4.35,0,0,0,66.54,9a.69.69,0,0,1-.27-.16,1.16,1.16,0,0,1,.4-.33A3.89,3.89,0,0,0,68.28,5,5,5,0,0,0,66,1a6.76,6.76,0,0,0-3.71-1C60.62,0,58.93,0,57.23,0a.62.62,0,0,0-.36,0V1c0,3.65,0,7.31,0,11v6.84c0,.58.06.62.64.62,1.51,0,3,0,4.51,0a14.9,14.9,0,0,0,2.9-.26,5.48,5.48,0,0,0,3.85-2.77A5.76,5.76,0,0,0,69.38,12.75ZM60.45,3.82c0-.4,0-.45.46-.44a11.58,11.58,0,0,1,1.86.07,3.45,3.45,0,0,1,.63.17,1.94,1.94,0,0,1,1.24,2.31,1.6,1.6,0,0,1-.93,1.22,4,4,0,0,1-1.53.37c-.44,0-.88,0-1.33,0s-.4,0-.4-.39c0-.56,0-1.12,0-1.68S60.44,4.37,60.45,3.82Zm4,11.81a6.37,6.37,0,0,1-2,.37c-.53,0-1.06,0-1.59,0-.37,0-.43-.06-.43-.44,0-.72,0-1.44,0-2.16s0-1.41,0-2.12c0-.3,0-.37.31-.37a12.26,12.26,0,0,1,2.9.16,3.17,3.17,0,0,1,1.58.82A2.34,2.34,0,0,1,64.45,15.63Z"></path><path class="cls-4" d="M120.27,29.84c0-.59,0-.63-.63-.61s-1.39,0-2.08,0c-.47,0-.54.07-.53.53a8.57,8.57,0,0,1,0,1.12c-.21-.19-.35-.31-.48-.45a5.66,5.66,0,0,0-5.15-1.59,7.28,7.28,0,0,0-5.71,4.43,7.68,7.68,0,0,0,0,6.38,7,7,0,0,0,5,4.36,6,6,0,0,0,5.9-1.45s.07,0,.14,0v5.59c0,.36,0,.41.36.41.93,0,1.86,0,2.78,0,.28,0,.34-.07.37-.33s0-.23,0-.35v-18Zm-4.68,10a4.05,4.05,0,0,1-5.66.11,4.63,4.63,0,0,1-1.42-3.4,4.36,4.36,0,0,1,1.8-3.76,4.05,4.05,0,0,1,6,1.32A4.83,4.83,0,0,1,115.59,39.82Z"></path><path class="cls-1" d="M168.88,5.41a2.43,2.43,0,0,0,0-.27c0-.26-.11-.34-.37-.32a23.63,23.63,0,0,1-2.38,0c-.47,0-.5,0-.5.52V6.52a.9.9,0,0,1-.39-.3,6.31,6.31,0,0,0-5.69-1.74,7,7,0,0,0-5.5,4.59,8.21,8.21,0,0,0-.4,4.47,7.52,7.52,0,0,0,1.29,3.35,6.68,6.68,0,0,0,4.94,2.9,6.92,6.92,0,0,0,4.27-1,8.84,8.84,0,0,0,1.48-1.1c0,.5,0,.9,0,1.3s.07.37.36.37h2.47c.32,0,.39-.09.41-.39a1.7,1.7,0,0,0,0-.22Q168.89,12.09,168.88,5.41ZM164.66,15a4,4,0,0,1-3.2,1.7,4.24,4.24,0,0,1-4.11-2.78,4.82,4.82,0,0,1,.39-4.29,4.08,4.08,0,0,1,4.3-2A4.19,4.19,0,0,1,165.46,11a6,6,0,0,1,.09.91A4.67,4.67,0,0,1,164.66,15Z"></path><path class="cls-4" d="M86.69,29.78a1.61,1.61,0,0,0,0-.22c0-.27-.06-.34-.35-.34-.84,0-1.68,0-2.51,0-.29,0-.33.05-.34.34s0,.85,0,1.32c-.23-.06-.31-.22-.42-.33a6.17,6.17,0,0,0-4.21-1.8,6.69,6.69,0,0,0-6.36,3.48,8.19,8.19,0,0,0,.08,8.66,6.38,6.38,0,0,0,5.66,3.28,7.16,7.16,0,0,0,5-1.89c.08-.07.12-.21.29-.15V43.3c0,.42,0,.46.45.46h2c.75,0,.77,0,.77-.76Q86.7,36.39,86.69,29.78Zm-4.06,9.38A3.78,3.78,0,0,1,79.56,41a4.42,4.42,0,0,1-4.63-3.67,4.83,4.83,0,0,1,1-3.86,4.21,4.21,0,0,1,7.3,1.58A5,5,0,0,1,82.63,39.16Z"></path><path class="cls-1" d="M212,5.37a2.25,2.25,0,0,1,0-.26c0-.22-.12-.3-.31-.28-.84.07-1.68,0-2.51,0-.31,0-.36.06-.37.37s0,.84,0,1.37l-.36-.35a6.46,6.46,0,0,0-4.28-1.85,6.65,6.65,0,0,0-6.24,3.29,8.25,8.25,0,0,0-.26,8.43A6.24,6.24,0,0,0,201,19.28a6.94,6.94,0,0,0,6.91-.88c.29-.21.57-.44.91-.72v1.25c0,.38,0,.43.43.43h2c.73,0,.73,0,.73-.75Zm-4,9.39A4.16,4.16,0,0,1,202,15.89,4.42,4.42,0,0,1,200.16,12a4.45,4.45,0,0,1,1.72-3.54,4.19,4.19,0,0,1,6.29,1.41A4.86,4.86,0,0,1,207.93,14.76Z"></path><path class="cls-4" d="M153.83,34.8a7.53,7.53,0,0,0-12.32-4.29A7.76,7.76,0,0,0,139,37.94a7.56,7.56,0,0,0,11.74,4.93,7,7,0,0,0,2.48-3h-3.69a1.16,1.16,0,0,0-.9.4,1.64,1.64,0,0,1-.5.36,4,4,0,0,1-5.37-2c-.22-.52-.21-.56.37-.56H151c.78,0,1.56,0,2.34,0,.39,0,.47-.08.53-.44A8,8,0,0,0,153.83,34.8Zm-11.34.38a4.08,4.08,0,0,1,4.07-3.32,4,4,0,0,1,3.93,3.32Z"></path><path class="cls-1" d="M79.66,4.36a7.83,7.83,0,0,0-7.75,7.74,7.73,7.73,0,0,0,7.74,7.72,7.63,7.63,0,0,0,7.72-7.71A7.7,7.7,0,0,0,79.66,4.36Zm3,11a4.11,4.11,0,0,1-6,0,4.77,4.77,0,0,1-1.24-3.43,4.34,4.34,0,0,1,2.08-3.69,3.93,3.93,0,0,1,4.92.5A4.81,4.81,0,0,1,82.62,15.36Z"></path><path class="cls-1" d="M135.42,4.36a7.74,7.74,0,1,0,7.69,7.76A7.76,7.76,0,0,0,135.42,4.36ZM138,15.68a4.15,4.15,0,0,1-6.66-2.2,4.91,4.91,0,0,1,.41-3.68,4.35,4.35,0,0,1,2.8-2.13,6,6,0,0,1,.94-.09A4.2,4.2,0,0,1,139.06,10,4.69,4.69,0,0,1,138,15.68Z"></path></g></g></svg> 