<?xml version="1.0" encoding="UTF-8" standalone="no"?>
<svg
   xmlns:dc="http://purl.org/dc/elements/1.1/"
   xmlns:cc="http://creativecommons.org/ns#"
   xmlns:rdf="http://www.w3.org/1999/02/22-rdf-syntax-ns#"
   xmlns:svg="http://www.w3.org/2000/svg"
   xmlns="http://www.w3.org/2000/svg"
   viewBox="0 0 500 128.39853"
   height="128.39853"
   width="500"
   xml:space="preserve"
   id="svg10"
   version="1.1"><metadata
     id="metadata16"><rdf:RDF><cc:Work
         rdf:about=""><dc:format>image/svg+xml</dc:format><dc:type
           rdf:resource="http://purl.org/dc/dcmitype/StillImage" /><dc:title></dc:title></cc:Work></rdf:RDF></metadata><defs
     id="defs14"><linearGradient
       id="linearGradient164"
       spreadMethod="pad"
       gradientTransform="matrix(-95.004744,-95.023319,-95.023319,95.004744,471.24143,66.524939)"
       gradientUnits="userSpaceOnUse"
       y2="0"
       x2="1"
       y1="0"
       x1="0"><stop
         id="stop154"
         offset="0"
         style="stop-opacity:1;stop-color:#58bfee" /><stop
         id="stop156"
         offset="0.05"
         style="stop-opacity:1;stop-color:#58bfee" /><stop
         id="stop158"
         offset="0.56587419"
         style="stop-opacity:1;stop-color:#192d6a" /><stop
         id="stop160"
         offset="0.75"
         style="stop-opacity:1;stop-color:#192d6a" /><stop
         id="stop162"
         offset="1"
         style="stop-opacity:1;stop-color:#192d6a" /></linearGradient></defs><g
     transform="matrix(1.3333333,0,0,-1.3333333,-127.91626,88.281331)"
     id="g18"><g
       transform="matrix(2.2817048,0,0,2.2817048,-122.96317,-84.862957)"
       id="g295"><path
         id="path68"
         style="opacity:1;fill:#192d6a;fill-opacity:1;fill-rule:nonzero;stroke:none;stop-opacity:1"
         d="m 196.0569,31.6022 h -1.292 c -0.03,0 -0.055,-0.026 -0.055,-0.056 v -7.316 c 0,-0.03 0.025,-0.055 0.055,-0.055 h 1.292 c 0.03,0 0.055,0.025 0.055,0.055 v 7.316 c 0,0.03 -0.025,0.056 -0.055,0.056" /><path
         id="path72"
         style="opacity:1;fill:#192d6a;fill-opacity:1;fill-rule:nonzero;stroke:none;stop-opacity:1"
         d="m 161.2936,27.888 c 0,-1.447 -1.084,-2.581 -2.468,-2.581 -1.384,0 -2.469,1.134 -2.469,2.581 0,1.447 1.085,2.581 2.469,2.581 1.384,0 2.468,-1.134 2.468,-2.581 m -2.468,3.871 c -2.177,0 -3.883,-1.7 -3.883,-3.871 0,-2.17 1.706,-3.871 3.883,-3.871 2.183,0 3.893,1.701 3.893,3.871 0,2.171 -1.71,3.871 -3.893,3.871" /><path
         id="path76"
         style="opacity:1;fill:#192d6a;fill-opacity:1;fill-rule:nonzero;stroke:none;stop-opacity:1"
         d="m 167.3203,27.5137 h -1.858 v 2.831 h 1.858 c 0.991,0 1.657,-0.539 1.657,-1.343 0,-0.89 -0.666,-1.488 -1.657,-1.488 m 0.057,4.088 h -3.276 c -0.024,0 -0.043,-0.02 -0.043,-0.043 v -7.342 c 0,-0.023 0.019,-0.041 0.043,-0.041 h 1.319 c 0.023,0 0.042,0.018 0.042,0.041 v 2.052 h 1.7 c 1.941,0 3.195,1.073 3.195,2.733 0,1.579 -1.17,2.6 -2.98,2.6" /><path
         id="path80"
         style="opacity:1;fill:#192d6a;fill-opacity:1;fill-rule:nonzero;stroke:none;stop-opacity:1"
         d="m 150.9074,27.5137 h -1.858 v 2.831 h 1.858 c 0.991,0 1.657,-0.539 1.657,-1.343 0,-0.89 -0.666,-1.488 -1.657,-1.488 m 0.057,4.088 h -3.276 c -0.024,0 -0.043,-0.02 -0.043,-0.043 v -7.342 c 0,-0.023 0.019,-0.041 0.043,-0.041 h 1.319 c 0.023,0 0.042,0.018 0.042,0.041 v 2.052 h 1.7 c 1.941,0 3.195,1.073 3.195,2.733 0,1.579 -1.169,2.6 -2.98,2.6" /><path
         id="path84"
         style="opacity:1;fill:#192d6a;fill-opacity:1;fill-rule:nonzero;stroke:none;stop-opacity:1"
         d="m 178.3294,31.6022 h -1.308 c -0.024,0 -0.043,-0.021 -0.043,-0.043 v -4.032 c 0,-1.334 -0.788,-2.231 -1.961,-2.231 -1.159,0 -1.938,0.897 -1.938,2.231 v 4.032 c 0,0.022 -0.019,0.043 -0.042,0.043 h -1.308 c -0.023,0 -0.042,-0.021 -0.042,-0.043 v -4.021 c 0,-2.178 1.276,-3.532 3.33,-3.532 2.069,0 3.354,1.354 3.354,3.532 v 4.021 c 0,0.022 -0.019,0.043 -0.042,0.043" /><path
         id="path88"
         style="opacity:1;fill:#192d6a;fill-opacity:1;fill-rule:nonzero;stroke:none;stop-opacity:1"
         d="m 184.7003,25.3979 h -3.336 v 6.161 c 0,0.023 -0.018,0.043 -0.042,0.043 h -1.319 c -0.023,0 -0.042,-0.02 -0.042,-0.043 v -6.984 c 0,-0.219 0.178,-0.398 0.397,-0.399 h 3.864 c 0.119,0.001 0.22,0.074 0.264,0.177 l 0.352,0.84 c 0.007,0.018 0.011,0.037 0.011,0.056 0,0.082 -0.067,0.149 -0.149,0.149" /><path
         id="path92"
         style="opacity:1;fill:#192d6a;fill-opacity:1;fill-rule:nonzero;stroke:none;stop-opacity:1"
         d="m 188.2402,26.8953 1.295,3.224 1.321,-3.224 z m 2.009,4.725 c -0.006,0.015 -0.022,0.025 -0.038,0.025 h -1.326 c -0.017,0 -0.032,-0.01 -0.039,-0.025 l -3.163,-7.386 c -0.005,-0.013 -0.003,-0.028 0.004,-0.04 0.008,-0.012 0.021,-0.019 0.035,-0.019 h 1.39 c 0.017,0 0.033,0.011 0.039,0.027 l 0.586,1.448 h 3.622 l 0.587,-1.449 c 0.007,-0.015 0.022,-0.026 0.039,-0.026 h 1.377 c 0.015,0 0.028,0.007 0.035,0.019 0.008,0.012 0.01,0.027 0.004,0.039 z" /><path
         id="path96"
         style="opacity:1;fill:#192d6a;fill-opacity:1;fill-rule:nonzero;stroke:none;stop-opacity:1"
         d="m 199.5029,30.345 h 1.691 c 0.929,0 1.602,-0.532 1.602,-1.265 0,-0.731 -0.673,-1.262 -1.602,-1.262 h -1.691 z m 3.163,-3.528 0.122,0.059 c 0.882,0.436 1.388,1.24 1.388,2.204 0,1.508 -1.175,2.522 -2.925,2.522 h -3.109 c -0.023,0 -0.042,-0.02 -0.042,-0.043 v -7.341 c 0,-0.024 0.019,-0.043 0.042,-0.043 h 1.319 c 0.023,0 0.042,0.019 0.042,0.043 v 2.332 h 1.717 l 1.664,-2.357 c 0.008,-0.011 0.021,-0.018 0.034,-0.018 h 1.562 c 0.015,0 0.03,0.009 0.037,0.023 0.007,0.014 0.006,0.031 -0.003,0.044 z" /><path
         id="path100"
         style="opacity:1;fill:#192d6a;fill-opacity:1;fill-rule:nonzero;stroke:none;stop-opacity:1"
         d="m 99.3482,25.3526 h -2.01 v 1.93 h 2.056 c 0.833,0 1.33,-0.341 1.33,-0.914 0,-0.469 -0.36,-1.016 -1.376,-1.016 m -2.008,5.072 h 1.729 c 1.252,0 1.387,-0.663 1.387,-0.948 0,-0.641 -0.531,-1.039 -1.387,-1.039 h -1.729 z m 3.532,-2.442 -0.124,0.032 0.11,0.053 c 0.403,0.201 0.899,0.713 0.899,1.634 0,1.19 -0.925,1.9 -2.474,1.9 h -3.304 c -0.023,0 -0.042,-0.019 -0.042,-0.042 v -6.984 c 0,-0.221 0.179,-0.4 0.4,-0.4 h 3.127 c 1.599,0 2.632,0.781 2.632,1.991 0,1.126 -0.607,1.587 -1.224,1.816" /><path
         id="path104"
         style="opacity:1;fill:#192d6a;fill-opacity:1;fill-rule:nonzero;stroke:none;stop-opacity:1"
         d="m 118.5237,24.2173 v 7.343 c 0,0.023 -0.019,0.042 -0.042,0.042 h -1.32 c -0.022,0 -0.041,-0.019 -0.041,-0.042 v -4.93 l -4.209,4.957 c -0.008,0.01 -0.02,0.015 -0.032,0.015 h -0.998 c -0.024,0 -0.042,-0.019 -0.042,-0.042 v -7.343 c 0,-0.023 0.018,-0.042 0.042,-0.042 h 1.319 c 0.023,0 0.042,0.019 0.042,0.042 v 4.802 l 4.174,-4.829 c 0.008,-0.01 0.019,-0.015 0.031,-0.015 h 1.034 c 0.023,0 0.042,0.019 0.042,0.042" /><path
         id="path108"
         style="opacity:1;fill:#192d6a;fill-opacity:1;fill-rule:nonzero;stroke:none;stop-opacity:1"
         d="m 132.648,24.0065 c 2.069,0 3.354,1.354 3.354,3.533 v 4.021 c 0,0.023 -0.019,0.042 -0.042,0.042 h -1.307 c -0.023,0 -0.042,-0.019 -0.042,-0.042 v -4.032 c 0,-1.335 -0.789,-2.233 -1.963,-2.233 -1.159,0 -1.938,0.898 -1.938,2.233 v 4.032 c 0,0.023 -0.019,0.042 -0.042,0.042 h -1.307 c -0.023,0 -0.042,-0.019 -0.042,-0.042 v -4.021 c 0,-2.179 1.275,-3.533 3.329,-3.533" /><path
         id="path112"
         style="opacity:1;fill:#192d6a;fill-opacity:1;fill-rule:nonzero;stroke:none;stop-opacity:1"
         d="m 205.9024,31.6022 c -0.023,0 -0.042,-0.019 -0.042,-0.042 v -6.985 c 0,-0.22 0.18,-0.4 0.4,-0.4 h 4.072 c 0.091,0 0.179,0.044 0.233,0.118 l 0.665,0.889 c 0.018,0.025 0.029,0.056 0.029,0.089 0,0.083 -0.066,0.149 -0.149,0.149 h -3.844 v 1.795 h 2.654 c 0.024,0 0.043,0.019 0.043,0.042 v 1.161 c 0,0.024 -0.019,0.043 -0.043,0.043 h -2.654 v 1.896 h 3.667 c 0.023,0 0.042,0.019 0.042,0.042 v 1.161 c 0,0.023 -0.019,0.042 -0.042,0.042 z" /><path
         id="path116"
         style="opacity:1;fill:#192d6a;fill-opacity:1;fill-rule:nonzero;stroke:none;stop-opacity:1"
         d="m 137.7805,31.6022 c -0.024,0 -0.042,-0.019 -0.042,-0.042 v -6.985 c 0,-0.22 0.18,-0.4 0.4,-0.4 h 4.072 c 0.091,0 0.178,0.044 0.233,0.118 l 0.665,0.889 c 0.018,0.025 0.029,0.056 0.029,0.089 0,0.083 -0.067,0.149 -0.149,0.149 h -3.845 v 1.795 h 2.655 c 0.024,0 0.043,0.019 0.043,0.042 v 1.161 c 0,0.024 -0.019,0.043 -0.043,0.043 h -2.655 v 1.896 h 3.667 c 0.024,0 0.043,0.019 0.043,0.042 v 1.161 c 0,0.023 -0.019,0.042 -0.043,0.042 z" /><path
         id="path120"
         style="opacity:1;fill:#192d6a;fill-opacity:1;fill-rule:nonzero;stroke:none;stop-opacity:1"
         d="m 121.381,27.888 c 0,-1.447 1.084,-2.58 2.468,-2.58 1.384,0 2.469,1.133 2.469,2.58 0,1.447 -1.085,2.581 -2.469,2.581 -1.384,0 -2.468,-1.134 -2.468,-2.581 m 7.015,-2.745 c 0,-0.031 -0.006,-0.056 -0.025,-0.082 l -0.677,-0.926 c -0.055,-0.074 -0.142,-0.118 -0.233,-0.118 h -3.642 c -1.044,0.013 -2.015,0.419 -2.736,1.143 -0.719,0.722 -1.116,1.691 -1.116,2.728 0,2.171 1.705,3.871 3.882,3.871 2.183,0 3.894,-1.7 3.894,-3.871 0,-0.891 -0.352,-1.776 -0.989,-2.492 l -0.158,-0.17 c 0,0 1.65,0.065 1.652,0.065 0.089,0.005 0.148,-0.06 0.148,-0.148" /><path
         id="path124"
         style="opacity:1;fill:#192d6a;fill-opacity:1;fill-rule:nonzero;stroke:none;stop-opacity:1"
         d="m 108.0977,26.8797 h -2.603 l 1.289,3.208 z m -0.604,4.699 c -0.007,0.015 -0.022,0.026 -0.039,0.026 h -1.317 c -0.017,0 -0.032,-0.011 -0.039,-0.026 l -3.145,-7.345 c -0.006,-0.013 -0.005,-0.028 0.003,-0.039 0.008,-0.012 0.021,-0.019 0.035,-0.019 h 1.382 c 0.017,0 0.032,0.01 0.039,0.026 l 0.582,1.441 h 3.602 l 0.585,-1.441 c 0.006,-0.016 0.021,-0.026 0.039,-0.026 h 1.369 c 0.014,0 0.027,0.007 0.035,0.019 0.007,0.011 0.009,0.026 0.003,0.039 z" /></g><g
       transform="matrix(2.2817048,0,0,2.2817048,-122.96317,-84.862957)"
       id="g278"><path
         id="path128"
         style="opacity:1;fill:#2567ab;fill-opacity:1;fill-rule:nonzero;stroke:none;stop-opacity:1"
         d="m 158.909,44.0489 h 3.076 c 1.522,0 2.468,0.708 2.468,1.848 0,0.508 -0.24,1.687 -2.468,1.687 h -3.076 z m 6.021,-3.681 c 0,1.019 -0.885,1.627 -2.367,1.627 h -3.658 v -3.434 h 3.576 c 1.808,0 2.449,0.974 2.449,1.807 m 2.44,-0.36 c 0,-2.151 -1.839,-3.542 -4.683,-3.542 h -5.562 c -0.393,0 -0.712,0.32 -0.712,0.713 v 12.425 c 0,0.041 0.033,0.074 0.074,0.074 h 5.878 c 2.756,0 4.401,-1.263 4.401,-3.38 0,-1.639 -0.882,-2.55 -1.598,-2.906 l -0.197,-0.095 0.222,-0.058 c 1.097,-0.407 2.177,-1.226 2.177,-3.231" /><path
         id="path132"
         style="opacity:1;fill:#2567ab;fill-opacity:1;fill-rule:nonzero;stroke:none;stop-opacity:1"
         d="m 179.5351,45.1926 c 0,1.303 -1.199,2.25 -2.85,2.25 h -3.008 v -4.497 h 3.008 c 1.651,0 2.85,0.945 2.85,2.247 m 3.061,-8.685 c -0.013,-0.025 -0.038,-0.041 -0.067,-0.041 h -2.777 c -0.024,0 -0.046,0.012 -0.06,0.032 l -2.962,4.192 h -3.053 v -4.149 c 0,-0.042 -0.034,-0.075 -0.075,-0.075 h -2.347 c -0.041,0 -0.074,0.033 -0.074,0.075 v 13.06 c 0,0.041 0.033,0.077 0.074,0.077 h 5.531 c 3.112,0 5.204,-1.804 5.204,-4.486 0,-1.716 -0.901,-3.146 -2.471,-3.921 v 0 l -0.216,-0.105 3.287,-4.581 c 0.017,-0.024 0.019,-0.053 0.006,-0.078" /><path
         id="path136"
         style="opacity:1;fill:#2567ab;fill-opacity:1;fill-rule:nonzero;stroke:none;stop-opacity:1"
         d="m 195.7088,38.4168 c 0,-0.06 -0.02,-0.114 -0.053,-0.158 l -1.182,-1.582 c -0.097,-0.132 -0.252,-0.21 -0.415,-0.21 h -7.243 c -0.392,0 -0.712,0.319 -0.712,0.712 v 12.425 c 0,0.041 0.034,0.075 0.075,0.075 h 8.949 c 0.041,0 0.075,-0.034 0.075,-0.075 v -2.065 c 0,-0.042 -0.034,-0.075 -0.075,-0.075 h -6.523 v -3.374 h 4.723 c 0.041,0 0.075,-0.033 0.075,-0.075 v -2.065 c 0,-0.042 -0.034,-0.075 -0.075,-0.075 h -4.723 v -3.194 h 6.84 c 0.145,0 0.264,-0.118 0.264,-0.264" /><path
         id="path140"
         style="opacity:1;fill:#2567ab;fill-opacity:1;fill-rule:nonzero;stroke:none;stop-opacity:1"
         d="m 208.7624,43.1299 c 0,2.44 -1.956,4.28 -4.551,4.28 h -2.53 v -8.676 h 2.53 c 2.595,0 4.551,1.89 4.551,4.396 m 2.497,10e-4 c 0,-1.853 -0.712,-3.546 -2.004,-4.768 -1.293,-1.223 -3.083,-1.896 -5.044,-1.896 h -4.268 c -0.388,0 -0.702,0.317 -0.702,0.708 v 12.429 c 0,0.041 0.034,0.074 0.075,0.074 h 4.895 c 4.084,0 7.048,-2.754 7.048,-6.547" /></g><path
       id="path166"
       style="opacity:1;fill:url(#linearGradient164);stroke:none;stroke-width:2.2817;stop-opacity:1"
       d="M 403.10897,66.211 375.81065,38.912684 c -0.50653,-0.511102 -0.79403,-1.200177 -0.79403,-1.918914 v 0 -15.611424 h 16.11568 v 15.677593 c 0,0.435806 0.35595,0.787189 0.79175,0.787189 v 0 h 8.78685 c 0.4358,0 0.78947,-0.351383 0.78947,-0.787189 v 0 -15.677593 h 15.60914 c 0.43809,0 0.79175,-0.353664 0.79175,-0.78947 v 0 -8.786845 c 0,-0.435806 -0.35366,-0.78947 -0.79175,-0.78947 v 0 H 401.50037 V -4.6610328 c 0,-0.4335239 -0.35367,-0.7871882 -0.78947,-0.7871882 v 0 h -8.78685 c -0.4358,0 -0.79175,0.3536643 -0.79175,0.7871882 v 0 15.6775938 h -16.11568 v -38.01092 c 0,-1.49908 1.21387,-2.715229 2.71295,-2.715229 v 0 h 63.99041 c 0.72102,0 1.41009,0.287495 1.91891,0.796315 v 0 l 27.29832,27.2983161 V 64.399326 c 0,0.999387 -0.81001,1.811674 -1.81167,1.811674 v 0 z m 42.81619,-28.637677 c 0.12778,0.17341 0.33085,0.273805 0.54761,0.273805 v 0 h 11.05714 c 0.34682,0 0.54533,-0.392454 0.33998,-0.673103 v 0 L 442.8517,16.755048 c -0.17797,-0.239579 -0.17797,-0.565862 0.002,-0.80316 v 0 l 15.04328,-20.3208626 c 0.33084,-0.4449324 0.0114,-1.0792464 -0.54305,-1.0792464 v 0 h -10.53235 c -0.21676,0 -0.41755,0.1026767 -0.54533,0.2738046 v 0 L 436.4307,8.1233592 426.59655,-5.1538811 c -0.1369,-0.184818 -0.35366,-0.2943399 -0.58412,-0.2943399 v 0 h -10.40457 c -0.59781,0 -0.94234,0.6845115 -0.5864,1.1636695 v 0 L 429.9826,15.917663 c 0.18938,0.260114 0.18938,0.611497 0,0.867048 v 0 l -14.99308,20.389314 c -0.20764,0.280649 -0.007,0.673103 0.33997,0.673103 v 0 h 11.02976 c 0.23274,0 0.4495,-0.109522 0.5864,-0.29434 v 0 l 9.48505,-12.891632 z" /></g></svg>
