<?xml version="1.0" encoding="utf-8"?>
<!-- Generator: Adobe Illustrator 22.1.0, SVG Export Plug-In . SVG Version: 6.00 Build 0)  -->
<svg version="1.1" id="Calque_1" xmlns="http://www.w3.org/2000/svg" xmlns:xlink="http://www.w3.org/1999/xlink" x="0px" y="0px"
	 viewBox="0 0 136 57" style="enable-background:new 0 0 136 57;" xml:space="preserve">
<style type="text/css">
	.st0{fill:#005C94;}
	.st1{fill:#FF0A18;}
	.st2{fill:#00B400;}
	.st3{fill:none;}
	.st4{fill:#FF9E00;}
</style>
<title>Artboard</title>
<desc>Created with Sketch.</desc>
<g>
	<path class="st0" d="M58.6,29.9c0,4.7-3.5,8.6-7.8,8.6S43,34.7,43,29.9V13.5h-6.3v16.4c0,7.8,6.3,14.1,14.1,14.1
		s14.1-6.3,14.1-14.1V13.5h-6.3V29.9z"/>
	<path class="st1" d="M85.2,12.8c-7.8,0-14.1,6.3-14.1,14.1v16.4h6.3V26.8c0-4.7,3.5-8.6,7.8-8.6s7.8,3.9,7.8,8.6v16.4h6.3V26.8
		C99.3,19.1,92.9,12.8,85.2,12.8z"/>
	<path class="st2" d="M15.7,12.8c-3.5,0-6.8,1.2-9.4,3.1V0.3H0v28.1c0,0.3,0,0.5,0,0.8h0v14.1h5.5l0.3-2.7c2.7,2.2,6.1,3.5,9.9,3.5
		c8.6,0,15.6-7,15.6-15.6S24.3,12.8,15.7,12.8z M15.3,38.5c-5.4,0-9.8-4.6-9.8-10.2s4.4-10.2,9.8-10.2S25,22.8,25,28.4
		S20.7,38.5,15.3,38.5z"/>
	<ellipse class="st3" cx="15.3" cy="28.4" rx="9.8" ry="10.2"/>
	<ellipse class="st3" cx="120.7" cy="28.4" rx="9.8" ry="10.2"/>
	<g>
		<ellipse class="st3" cx="120.7" cy="28.4" rx="9.8" ry="10.2"/>
		<path class="st4" d="M136,13.5h-5.5l-0.3,2.7c-2.7-2.2-6.1-3.5-9.9-3.5c-8.6,0-15.6,7-15.6,15.6s7,15.6,15.6,15.6
			c3.5,0,6.8-1.2,9.4-3.1v15.6h6.3V28.4c0-0.3,0-0.5,0-0.8h0V13.5z M120.7,38.5c-5.4,0-9.8-4.6-9.8-10.2s4.4-10.2,9.8-10.2
			s9.8,4.6,9.8,10.2S126.1,38.5,120.7,38.5z"/>
	</g>
</g>
</svg>
