<?xml version="1.0" encoding="utf-8"?>
<!-- Generator: Adobe Illustrator 22.1.0, SVG Export Plug-In . SVG Version: 6.00 Build 0)  -->
<svg version="1.1" id="Calque_1" xmlns="http://www.w3.org/2000/svg" xmlns:xlink="http://www.w3.org/1999/xlink" x="0px" y="0px"
	 viewBox="0 0 600 91.8" style="enable-background:new 0 0 600 91.8;" xml:space="preserve">
<style type="text/css">
	.st0{fill:#77787B;}
	.st1{fill:#ED1C2E;}
	.st2{fill:#FFFFFF;}
</style>
<title>caissedepargne</title>
<g id="Calque_2_1_">
	<g id="layer">
		<path class="st0" d="M219.8,31.3c-2.9-1.7-4.9-2.6-6.9-2.6c-1.8,0-3.1,1.1-3.1,2.5s0.9,2.5,3.7,4.6c4.3,3.2,5.7,5.9,5.7,9
			c0.1,2.6-0.9,5.1-2.8,6.9c-1.8,1.9-4.4,2.8-7,2.7c-3.7,0-7.4-1-10.5-3l1.5-6.2c1,0.7,2,1.3,3.1,1.9c2,1,3.1,1.5,4.8,1.5
			c2.6,0,3.6-1.6,3.6-2.9c0-1.5-1.2-3.1-4.4-5.5c-2.2-1.7-5-4.1-5-8.7c0-4.2,3.8-8.7,10-8.7c2.9,0.2,5.7,1,8.2,2.4L219.8,31.3z"/>
		<path class="st0" d="M134.5,30c-1.7-0.5-3.4-0.7-5.2-0.6c-7.6,0-12.6,4.3-12.6,10.7c0,4.6,2.5,7.7,7.4,7.7c4.1,0,7.5-2.1,9.6-3.4
			l-1.1,7.9c-2.7,1.4-5.8,2.2-8.9,2.2c-9.4,0-14.3-5.8-14.3-14.1c0-10.7,7.4-17.9,19.7-17.9c2.2,0,4.5,0.3,6.6,0.9L134.5,30z"/>
		<path class="st0" d="M168.3,53.4H161l-0.9-5.4h-8.5l-2.4,5.4h-7.3l13.6-30.1h7.2L168.3,53.4z M159.6,42.6
			c-0.9-2.9-1.4-11.1-1.4-11.1s-3.1,8.6-4.4,11.1H159.6z"/>
		<path class="st0" d="M250.2,31.3c-2.9-1.7-4.9-2.6-6.9-2.6c-1.8,0-3.1,1.1-3.1,2.5s0.9,2.5,3.7,4.6c4.3,3.2,5.7,5.9,5.7,9
			c0.1,2.6-0.9,5.1-2.8,6.9c-1.8,1.9-4.4,2.8-7,2.7c-3.7,0-7.4-1-10.5-3l1.5-6.2c1,0.7,2,1.3,3.1,1.9c2,1,3.1,1.5,4.8,1.5
			c2.6,0,3.6-1.6,3.6-2.9c0-1.5-1.2-3.1-4.4-5.5c-2.2-1.7-5-4.1-5-8.7c0-4.2,3.8-8.7,10-8.7c2.9,0.2,5.7,1,8.2,2.4L250.2,31.3z"/>
		<polygon class="st0" points="283.5,29.6 271.6,29.6 270.9,34.8 281.8,34.8 280.9,41.1 270,41.1 269.2,47.2 283.6,47.2 282.7,53.4 
			261.1,53.4 265.2,23.3 284.3,23.3 		"/>
		<polygon class="st0" points="381.5,29.6 369.6,29.6 368.9,34.8 379.8,34.8 378.9,41.1 368,41.1 367.2,47.2 381.6,47.2 380.8,53.4 
			359.2,53.4 363.2,23.3 382.3,23.3 		"/>
		<polygon class="st0" points="599.2,29.6 587.4,29.6 586.6,34.8 597.5,34.8 596.7,41.1 585.8,41.1 585,47.2 599.4,47.2 598.5,53.4 
			576.9,53.4 581,23.3 600,23.3 		"/>
		<path class="st0" d="M447.1,53.4h-7.3l-0.9-5.4h-8.5l-2.4,5.4h-7.3l13.6-30.1h7.2L447.1,53.4z M438.3,42.6
			c-0.9-2.9-1.4-11.1-1.4-11.1s-3.1,8.6-4.4,11.1H438.3z"/>
		<path class="st0" d="M320.5,23.4c6.2,0,7.5,0.5,9.9,1.7c4.6,2.3,7.2,6.9,7.2,12.9c0,4.9-1.2,8.1-3.7,10.9
			c-2.6,2.7-6.2,4.3-9.9,4.5h-14.6l4-30L320.5,23.4z M317.3,47.2h3.3c2.1,0,5.5-0.4,7.3-2.5c1.6-1.8,2.3-3.6,2.3-6.7
			c0.1-2.1-0.7-4.2-2.1-5.8c-1.5-1.4-3-2.2-6.3-2.2h-2L317.3,47.2z"/>
		<polygon class="st0" points="347.6,23.3 343.9,31.3 348.2,31.3 356.2,23.3 		"/>
		<path class="st0" d="M404.1,23.3h3.1c5.2,0,9.8,3.4,9.8,8.9c0,3.5-2,10-10,10h-4.5L401,53.4h-7.2l4.1-30h6.2V23.3z M403.2,36.8h1
			c1.1,0.1,2.2-0.1,3.2-0.6c1.3-0.6,2.2-1.9,2.2-3.4c0.1-0.9-0.3-1.9-1-2.5c-0.9-0.8-1.7-1.1-3.6-1.1h-0.7L403.2,36.8z"/>
		<path class="st0" d="M468.8,23.3h2.7c6.9,0,9.3,5.2,9.3,8.8c0.1,2.5-1,4.9-3,6.4c-0.8,0.6-1.7,1.1-2.7,1.4l-0.2,0.1
			c1.7,1,3,3.1,4.2,5.6l3.8,7.7h-8l-3-6.3c-1.9-4-2.5-5.1-4-5.7c-0.4-0.2-0.9-0.3-1.4-0.3H466l-1.6,12.3h-7l4-30.1h7.4V23.3z
			 M466.9,36h1.5c1.2,0.1,2.3-0.1,3.4-0.6c1.1-0.6,1.7-1.7,1.8-2.9c0-0.9-0.4-1.7-1-2.3c-0.7-0.7-2-1.1-4-1.1h-0.9L466.9,36z"/>
		<path class="st0" d="M521.2,30.1c-2.2-0.6-4.5-0.8-6.8-0.8c-11.6,0-14.6,6.6-14.6,10.4c0,5.3,4.1,8.2,9.7,8.2
			c0.8,0.1,1.7,0,2.5-0.3l0.7-4.8h-5.8l0.8-5.7h12.7l-2.2,16.1c-2.9,0.6-5.8,0.9-8.7,0.9c-6.2,0-10-1.5-13.2-4.5
			c-2.7-2.6-3.8-5.5-3.8-9.7c0-10.1,8.1-17.2,21.1-17.2c2.9-0.1,5.8,0.2,8.6,1L521.2,30.1z"/>
		<polygon class="st0" points="543,39.1 541.2,53.4 534.3,53.4 538.3,23.4 545.1,23.4 552.5,36.7 555.5,43 556,37.2 557.8,23.4 
			564.7,23.4 560.7,53.4 554,53.4 546.9,40.2 543.5,33.1 		"/>
		<rect class="st1" width="91.8" height="91.8"/>
		<polygon class="st2" points="51.3,60.4 72.7,60.4 70,64.8 48.5,64.8 		"/>
		<polygon class="st2" points="35.7,79 73.9,79 71.2,83.4 33,83.4 		"/>
		<polygon class="st2" points="62,39 64.8,37.3 71.6,48 62.4,53.7 60.7,50.9 66.9,46.9 		"/>
		<polygon class="st2" points="6.7,46.7 36,46.7 33.3,51.1 4,51.1 		"/>
		<path class="st2" d="M59.2,46.5c1.5,0,2.8-1.3,2.8-2.8c0-1.5-1.2-2.8-2.7-2.8c0,0-0.1,0-0.1,0c-1.5,0-2.8,1.3-2.8,2.8
			C56.4,45.2,57.7,46.5,59.2,46.5"/>
		<polygon class="st2" points="11.6,38.9 40.9,38.9 38.1,43.3 8.8,43.3 		"/>
		<polygon class="st2" points="16.4,31.1 45.7,31.1 43,35.4 13.7,35.4 		"/>
		<path class="st2" d="M78.1,2.5C52.5,15.2,15.4,29.9,15.4,59.9c0,11.2,6.4,19.3,12.9,22.4l33-52.8l-2.6-4.1L27.1,76
			c-3.3-2.4-7.4-8.7-7.4-17c0-23.1,29.2-38.3,54.4-50L78.1,2.5z"/>
		<polygon class="st1" points="110.7,60.4 598.6,60.4 595.9,64.6 108,64.6 		"/>
	</g>
</g>
<g>
	<path class="st0" d="M178.2,53.3l6.4-30.3h6.2l-6.3,30.3H178.2z"/>
</g>
</svg>
