<svg xmlns="http://www.w3.org/2000/svg" xmlns:xlink="http://www.w3.org/1999/xlink" viewBox="0 0 337.8 92.3"><defs><style>.cls-1{fill:#231f20;}.cls-2{fill:url(#Dégradé_sans_nom);}</style><radialGradient id="Dégradé_sans_nom" cx="308.9" cy="45.85" r="38.5" gradientTransform="matrix(1, 0, 0, -1, 0, 92)" gradientUnits="userSpaceOnUse"><stop offset="0.22" stop-color="#1c88be"/><stop offset="0.64" stop-color="#22508a"/><stop offset="1" stop-color="#22508a"/></radialGradient></defs><title>creditdunord</title><g id="Calque_2" data-name="Calque 2"><g id="Calque_1-2" data-name="Calque 1"><path class="cls-1" d="M47.5,44.6l9.8-4.4,1.4,3.6L48.2,46.3l-.7-1.7M20.6,49.4h6.2c-.8-5.6-6.1-8.7-12.5-8.7C5.3,40.7,0,46.2,0,53.4S5.3,66,14.3,66c7.1,0,12.1-3.9,12.7-9.9H20.9c-.5,3.2-2.7,5.4-6.6,5.4-5.8,0-7.9-4-7.9-8.1s2.1-8.3,7.9-8.3c3.1,0,5.9,1.9,6.3,4.3m8-1.5V65.4h5.8V57.5c0-3.1,1.4-5.6,5.7-5.6l2,.2V47.6l-1.2-.2c-2.8,0-5.7,1.6-6.7,3.8h-.1V47.9H28.6m18.9,9.9H62.7c.4-5.4-3.1-10.4-10.2-10.4s-10.7,4-10.7,9.3,4.1,9.2,10.7,9.2c4.7,0,8.2-1.8,9.8-5.9H57.2c-.3,1.1-2.2,2.3-4.5,2.3a4.93,4.93,0,0,1-5.2-4.5m0-3c.1-1.4,1.2-3.7,4.8-3.7s4.1,1.2,4.6,3.7ZM80,63.2v2.2h5.5V41.2H79.7V50h0a8.12,8.12,0,0,0-6.3-2.6c-6.2,0-9.3,4.4-9.3,9.1s3.1,9.4,9.4,9.4c2.7,0,5.1-.8,6.4-2.7H80m-.1-6.6c0,2.9-1.1,5.7-4.9,5.7s-5.1-2.9-5.1-5.7,1.3-5.5,5.1-5.5S79.9,53.8,79.9,56.6ZM93.4,41.2H87.7v4h5.7ZM87.6,65.4h5.8V47.9H87.6Zm10.2,0h5.8V52.5h3.7V47.9h-3.7V42.7H97.8v5.2H95.2v4.6h2.6V65.4M132,63.2v2.2h5.5V41.2h-5.8V50h-.1a7.82,7.82,0,0,0-6.2-2.6c-6.2,0-9.3,4.4-9.3,9.1s3.1,9.4,9.4,9.4c2.7,0,5.1-.8,6.4-2.7h.1m-.1-6.6c0,2.9-1.1,5.7-5,5.7s-5-2.9-5-5.7,1.3-5.5,5-5.5S131.9,53.8,131.9,56.6Zm27.4,8.8V47.9h-5.7v9.2c0,3.5-1.4,5-4.5,5s-3.7-1.4-3.7-4.3V47.9h-5.8V58.7c0,4.3,1.6,7.2,7.7,7.2a8.09,8.09,0,0,0,6.4-2.9h.2v2.4h5.4m11.8-24.2V65.4h6V49.2h.1l12,16.2h6.4V41.2h-6V57.5h0L177.5,41.2h-6.4m36.8,6.2c-6.6,0-10.8,3.7-10.8,9.3s4.2,9.2,10.8,9.2,10.9-3.7,10.9-9.2-4.3-9.3-10.9-9.3m-5,9.3c0-2.8,1.1-5.6,5-5.6s5.1,2.8,5.1,5.6-1.1,5.6-5.1,5.6S202.9,59.4,202.9,56.7Zm17.2-8.8V65.4h5.8V57.5c0-3.1,1.4-5.6,5.7-5.6l2,.2V47.6l-1.2-.2c-2.8,0-5.7,1.6-6.7,3.8h-.1V47.9h-5.5m29.4,15.3v2.2H255V41.2h-5.8V50h-.1a7.82,7.82,0,0,0-6.2-2.6c-6.2,0-9.3,4.4-9.3,9.1s3.1,9.4,9.4,9.4c2.7,0,5-.8,6.4-2.7h.1m-.1-6.6c0,2.9-1.2,5.7-5,5.7s-5-2.9-5-5.7,1.2-5.5,5-5.5,5,2.7,5,5.5Z"/><polygon class="cls-2" points="315.7 47.8 308.4 0 301.9 47.8 280 47.8 298.5 57.8 292.4 76.2 308.6 63.5 329.3 92.3 318.8 57.8 337.8 47.8 315.7 47.8"/></g></g></svg>