<svg xmlns="http://www.w3.org/2000/svg" viewBox="0 0 111.69 20.51"><defs><style>.cls-1{fill:#006c50;}.cls-2{fill:#009597;}.cls-3{fill:#ed1c24;}</style></defs><title>creditagricole</title><g id="Calque_2" data-name="Calque 2"><g id="Calque_1-2" data-name="Calque 1"><path class="cls-1" d="M.28,18.09h27v2.42H.28ZM17.45,5l1.82,4.56,3.22-1.7-2.8-6.17H15.63L9.94,12.28a9.55,9.55,0,0,0,4.6-1.43c.44-.27,1.72-3.62,2.9-5.88Z"/><path class="cls-2" d="M22.5,7.82,19.28,9.5a45.46,45.46,0,0,1-6.78,3.05c-3.72,1.07-8.24,1.7-9.87.27s2-7,8.68-8.3A5.85,5.85,0,0,1,13,4.35,9.74,9.74,0,0,0,12.21,2a1.65,1.65,0,0,0-1.71-.64c-1.45.1-7.6,1.73-10,6.85a5.9,5.9,0,0,0,1.61,6.71c.54.39,4,3.52,12.13.37a85.45,85.45,0,0,0,15.11-8V4.06c-2.26,1.27-4.54,2.52-6.82,3.75Z"/><path class="cls-3" d="M29.31,2.8,24.06,5.6c-.89.36-1.25-.11-1.36-.28A12.46,12.46,0,0,1,22,3.54a1.86,1.86,0,0,0,.81-.09C23.42,3.28,29.28,0,29.31,0Z"/><path class="cls-1" d="M37.2,3.79a4.81,4.81,0,0,1,2.8.89l-.62.81a3.32,3.32,0,0,0-2.09-.73A2.4,2.4,0,0,0,34.65,7,2.41,2.41,0,0,0,37.29,9.3a3.64,3.64,0,0,0,2.2-.76l.63.82a5.13,5.13,0,0,1-2.92.92c-2,0-4-1.2-4-3.25s1.92-3.24,4-3.24Zm4.26.1h3.4c1.58,0,2.86.64,2.86,2,0,1.08-.8,1.64-1.86,1.88l2.06,2.38H46.34L44.47,8H42.8v2.17H41.44ZM44.76,7c1,0,1.56-.4,1.56-1.08s-.59-1-1.57-1h-2V7Zm4.45,1.35V3.88h5.68v1H50.55V6.41h4v1h-4v1c0,.55.26.81.79.81H55v1H51a1.67,1.67,0,0,1-1.8-1.83Zm4.33-6.26-1,1.11H51.35l.8-1.11Zm3.08,1.8h2.84c2.42,0,4,1.25,4,3.14s-1.61,3.14-4,3.14H56.62Zm2.93,5.27c1.52,0,2.54-.85,2.54-2.12s-1-2.15-2.54-2.15H58V9.15Zm5.37-5.27h1.36v6.28H64.92Zm2.68,1v-1h6.17v1h-2.4v5.27H70V4.88ZM38.66,16.78H35.2l-.76,1.51H33.09L36.34,12H37.7L41,18.29H39.41Zm-.5-1-1.23-2.49L35.69,15.8Zm7.16-3.9a4.89,4.89,0,0,1,2.8.88l-.64.83a3.37,3.37,0,0,0-2.09-.72,2.39,2.39,0,0,0-2.64,2.25,2.33,2.33,0,0,0,2.6,2.29,3.3,3.3,0,0,0,1.78-.49V15.73H45.24v-1h3.23V17.4a5.39,5.39,0,0,1-3.17,1c-2.38,0-3.94-1.4-3.94-3.26,0-2.05,1.92-3.23,4-3.23Zm4.84.1h3.4c1.57,0,2.86.64,2.86,2,0,1.08-.8,1.64-1.86,1.88l2,2.38H55l-1.87-2.19H51.47V18.3H50.12Zm3.3,3.12c.95,0,1.56-.4,1.56-1.08s-.58-1-1.57-1H51.51v2.11ZM58.13,12h1.36v6.28H58.13ZM65,11.9a4.92,4.92,0,0,1,2.8.88l-.63.83A3.37,3.37,0,0,0,65,12.89a2.39,2.39,0,0,0-2.63,2.27A2.39,2.39,0,0,0,65,17.43a3.58,3.58,0,0,0,2.2-.76l.63.81a5.14,5.14,0,0,1-2.91.93c-2,0-4-1.2-4-3.26s1.92-3.25,4-3.25Zm3.4,3.24c0-1.77,1.65-3.24,4-3.24s4,1.47,4,3.24-1.65,3.25-4,3.25S68.35,16.92,68.35,15.14Zm1.4,0a2.6,2.6,0,0,0,5.15,0,2.6,2.6,0,0,0-5.16,0ZM77.54,12H78.9v5.28h4v1H77.55Zm6.18,4.47V12h5.69v1H85.07v1.52h4v1h-4v1a.7.7,0,0,0,.57.81.81.81,0,0,0,.22,0h3.67v1h-4a1.69,1.69,0,0,1-1.81-1.84Zm9.56.93.63-.91a5,5,0,0,0,2.89.88c1,0,1.8-.3,1.8-.76s-.91-.68-1.95-.9c-1.43-.3-3.14-.68-3.14-1.92S95,11.9,96.61,11.9a5.94,5.94,0,0,1,3.2.9l-.63.91a4.29,4.29,0,0,0-2.54-.81c-.89,0-1.76.28-1.76.73s.83.59,1.8.8c1.47.29,3.28.68,3.28,2s-1.5,1.95-3.18,1.95a6.69,6.69,0,0,1-3.53-1Zm7.14.42a.53.53,0,0,1,.49-.57h0a.57.57,0,0,1,.54.33.59.59,0,0,1-.11.63.57.57,0,0,1-.62.13.56.56,0,0,1-.35-.52Zm7.18-1.05h-3.46l-.75,1.51H102L105.27,12h1.37l3.26,6.28h-1.54Zm-.49-1-1.24-2.49-1.23,2.49Zm3.46,2a.53.53,0,0,1,.5-.57h.05a.57.57,0,1,1,0,1.13.53.53,0,0,1-.55-.51Z"/></g></g></svg>