<?xml version="1.0" encoding="utf-8"?>
<!-- Generator: Adobe Illustrator 22.1.0, SVG Export Plug-In . SVG Version: 6.00 Build 0)  -->
<svg version="1.1" id="Calque_1" xmlns="http://www.w3.org/2000/svg" xmlns:xlink="http://www.w3.org/1999/xlink" x="0px" y="0px"
	 viewBox="0 0 1024 222" style="enable-background:new 0 0 1024 222;" xml:space="preserve">
<style type="text/css">
	.st0{fill:#064545;}
</style>
<g transform="translate(0.000000,222.000000) scale(0.100000,-0.100000)">
	<path class="st0" d="M3085,2110c-165-60-313-117-330-126c-47-27-75-55-109-112c-17-29-35-61-41-70c-16-27-137-238-170-296
		c-16-30-35-60-41-67c-29-35-75-152-76-191c-1-24,9-92,20-153c12-60,23-126,26-145c2-19,7-42,10-50s8-37,11-65c10-76,12-89,18-105
		c3-8,11-49,17-90s20-92,30-112c11-21,17-38,15-38c-10,0,148-135,425-365c40-33,78-65,84-70c6-6,28-21,49-33c38-22,44-22,420-22
		c369,0,384,1,421,21c39,21,100,66,140,104c27,25,112,95,139,114c11,8,36,30,56,49c19,19,58,52,86,72c66,50,176,160,160,160
		c-3,0-1,9,5,20c10,18,26,90,35,152c2,15,9,53,15,85c5,32,13,72,15,88c3,17,8,37,10,45c3,8,7,38,11,65c3,28,12,79,19,115
		c39,189,39,189-142,500c-24,41-48,82-53,90s-37,63-70,121c-58,103-92,147-135,175c-18,11-178,72-475,180c-52,19-112,42-133,50
		c-20,7-65,14-100,13C3394,2219,3343,2203,3085,2110z M3525,1667c69-22,166-55,190-66c11-5,43-17,70-26c51-17,89-50,79-66
		c-3-5-1-9,4-9s15-12,23-27c7-16,23-44,35-63c74-123,127-216,127-225c0-5-3-23-7-40c-3-16-9-50-12-75s-10-65-15-90s-11-61-14-80
		s-8-48-12-65c-3-16-7-38-8-48s-11-24-23-33c-11-8-27-20-34-27s-66-56-130-110c-64-53-120-102-123-107c-4-6-92-10-223-10l-217,1
		l-160,134l-160,134l-12,63c-7,35-15,81-18,103c-4,22-10,58-15,80s-11,60-14,85s-8,56-11,69c-4,23,26,87,48,102c5,3,7,9,5,12
		c-4,9,45,87,55,87c4,0,6,4,3,8c-3,5,4,21,15,38c11,16,31,50,45,76c25,49,54,75,89,81c11,2,29,8,41,14c11,7,67,28,125,47
		c57,19,122,42,144,50s45,11,50,6C3471,1686,3498,1675,3525,1667z"/>
	<path class="st0" d="M75,2138c-11-6-32-25-47-41l-28-29v-997V75l31-38L61,0h187l187,1l32,28c17,16,36,38,42,49c7,14,11,150,11,411
		v391h435h434l3-404l3-405l34-35l35-36h192h192l36,42l36,42v986v987l-50,47l-49,46h-164c-179,0-184-1-244-70c-23-25-23-27-23-362
		v-338H955H520v339v338l-50,47l-49,46H258C154,2150,88,2145,75,2138z"/>
	<path class="st0" d="M5031,2114c-22-19-44-50-49-67c-6-19-9-413-8-998l1-966l37-42l38-41h638h638l37,38l36,37l1,164l2,163l-43,44
		l-43,44h-407h-406l-1,732c0,403-1,756-1,784c-1,47-5,56-45,98l-45,46h-170h-171L5031,2114z"/>
	<path class="st0" d="M6569,2140c-9-5-33-26-53-46l-36-36v-204c0-129,4-213,11-231c7-15,20-47,30-70c11-24,19-47,19-52s7-21,14-37
		c8-15,13-31,10-36c-3-4,0-8,5-8c6,0,11-8,11-18s7-28,16-40c8-12,12-27,9-32c-3-6-2-10,3-10c9,0,37-78,34-92c-1-5,3-8,10-8
		c6,0,9-3,5-6c-3-4,4-27,17-53c25-49,96-231,96-244c0-4,11-30,25-57c14-28,23-50,20-50s6-22,20-50c14-27,22-50,19-50c-4,0-2-6,3-12
		c5-7,24-51,42-98s39-98,46-115c8-16,11-33,9-37c-3-4,0-8,5-8c6,0,11-6,11-13c0-8,7-28,16-46c9-17,17-37,18-44c2-7,13-34,25-62
		c13-27,24-54,25-60c1-5,9-26,18-45c8-19,22-55,32-80c11-29,29-53,51-67c34-22,42-23,293-23h258l30,28c17,15,41,54,54,87
		s27,64,32,69c4,6,8,16,8,23c0,8,9,33,20,55c11,23,20,45,20,49c0,3,8,24,17,45c9,22,18,45,19,53c2,8,8,17,14,21c7,4,11,10,10,14
		c-2,5,2,22,14,56c18,53,70,177,77,184c5,6,9,17,9,26s9,34,21,55c11,22,22,47,24,55s11,33,21,55s19,45,20,50c1,6,10,28,20,50
		s18,42,19,45c5,23,32,94,51,132c14,27,23,49,22,50c-5,7,37,108,45,108c4,0,5,4,2,10c-3,5,0,20,7,32c6,13,13,30,14,38
		c2,8,8,16,14,18c5,2,7,8,4,13c-3,6,1,21,10,34s16,31,16,40c0,8,5,15,11,15c5,0,8,4,5,8c-3,5,0,19,7,33c36,72,40,104,39,309l-1,205
		l-45,42l-45,43h-171h-171l-45-42l-45-43l-3-165l-4-165l-82-215c-44-118-92-244-105-280c-21-59-58-158-116-310
		c-38-100-51-135-62-160c-6-14-11-27-12-30c0-3-9-29-20-57c-19-53-41-68-51-36c-4,10-13,33-21,52c-8,18-16,39-17,45
		c-2,12-21,64-41,111c-7,17-23,57-34,90s-39,107-61,165c-23,58-45,116-50,130c-4,14-21,61-38,105c-114,307-134,362-143,377
		c-5,10-9,88-9,174v157l-49,48l-48,49h-164C6659,2150,6578,2145,6569,2140z"/>
	<path class="st0" d="M8905,2138c-27-16-64-54-78-81c-8-16-10-69-7-175l5-153l46-43l46-42l176,1l177,1v-578V490h-180h-180l-45-44
		l-45-43V241V78l32-31c18-18,31-35,30-40c-1-4,288-7,643-7h646l34,34l35,33v172v171l-41,40l-41,40h-178h-178l2,577l1,578l160,1
		c88,1,168,2,177,3c10,0,36,17,58,37l40,36v175v175l-42,39l-43,39h-615C9098,2149,8919,2146,8905,2138z"/>
</g>
</svg>
