<svg xmlns="http://www.w3.org/2000/svg" viewBox="0 0 137.6 37"><defs><style>.cls-1{fill:#fff;}.cls-2{fill:#db0011;}</style></defs><title>hsbc</title><g id="Calque_2" data-name="Calque 2"><g id="HSBC_MASTERBRAND_LOGO_WW_CMYK"><path d="M90.3,19.6H83.6v6.6H80.2V10.7h3.4V17h6.7V10.7h3.4V26.2H90.3Z"/><path d="M101.8,26.5c-3.3,0-6.1-1.3-6.2-5H99c0,1.7,1,2.6,2.9,2.6,1.4,0,2.9-.7,2.9-2.2,0-1.2-1.1-1.6-2.8-2.1l-1.1-.3c-2.4-.7-4.9-1.7-4.9-4.4,0-3.5,3.2-4.6,6.2-4.6s5.6,1.1,5.6,4.5h-3.4a2.19,2.19,0,0,0-2.5-2.2,2.27,2.27,0,0,0-2.5,2c0,1.1,1,1.5,3.2,2.2l1.3.4c2.7.8,4.3,1.8,4.3,4.3C108.2,25.2,104.8,26.5,101.8,26.5Z"/><path d="M110.1,10.7h5.4a10.3,10.3,0,0,1,3,.2,3.77,3.77,0,0,1,3.3,3.7c0,2-1.3,3-3.1,3.5,2.1.4,3.6,1.5,3.6,3.8,0,3.5-3.5,4.3-6.2,4.3H110V10.7Zm5.4,6.5c1.5,0,3-.3,3-2.1,0-1.6-1.4-2-2.8-2h-2.4v4.1Zm.4,6.7c1.6,0,3.1-.4,3.1-2.3s-1.3-2.3-2.9-2.3h-2.7v4.5h2.5Z"/><path d="M131.2,26.5c-5,0-7.3-3.2-7.3-7.9s2.5-8.2,7.4-8.2c3.1,0,6.1,1.4,6.2,4.9H134a2.56,2.56,0,0,0-2.7-2.4c-3,0-3.9,3.3-3.9,5.7s.9,5.3,3.8,5.3a2.74,2.74,0,0,0,2.9-2.4h3.5C137.2,25.2,134.4,26.5,131.2,26.5Z"/><rect class="cls-1" x="18.5" width="37" height="37"/><polygon class="cls-2" points="55.6 37 74.1 18.5 55.6 0 55.6 0 55.6 37"/><polygon class="cls-2" points="18.5 37 0 18.5 18.5 0 18.5 0 18.5 37"/><polygon class="cls-2" points="55.6 0 37 18.5 18.5 0 18.5 0 55.6 0"/><polygon class="cls-2" points="18.5 37 37 18.5 55.6 37 55.6 37 18.5 37"/></g></g></svg>