<?xml version="1.0" encoding="utf-8"?>
<!-- Generator: Adobe Illustrator 22.1.0, SVG Export Plug-In . SVG Version: 6.00 Build 0)  -->
<svg version="1.1" id="Layer_1" xmlns="http://www.w3.org/2000/svg" xmlns:xlink="http://www.w3.org/1999/xlink" x="0px" y="0px"
	 viewBox="0 0 151.8 36.5" style="enable-background:new 0 0 151.8 36.5;" xml:space="preserve">
<style type="text/css">
	.st0{opacity:0.76;}
	.st1{fill:url(#SVGID_1_);}
	.st2{fill:url(#SVGID_2_);}
	.st3{fill:url(#SVGID_3_);}
</style>
<g>
	<g class="st0">
		<g>
			<path d="M37.8,9c0-1.4,1.2-2.6,2.6-2.6C41.8,6.5,43,7.6,43,9c0,1.4-1.2,2.6-2.6,2.6C39,11.6,37.8,10.4,37.8,9z M38.2,12.9h4.3
				v14.4h-4.3V12.9z"/>
			<path d="M60.4,21.4c0,3.6-2.9,5.9-6.5,5.9h-8.5V7.1h7.9c3.5,0,6.4,2.3,6.4,5.8c0,1.7-0.7,3-1.8,4C59.5,17.8,60.4,19.3,60.4,21.4z
				 M50.1,11.5V15h3.3c1,0,1.8-0.8,1.8-1.8c0-1-0.7-1.8-1.8-1.8L50.1,11.5L50.1,11.5z M55.8,21.1c0-1.1-0.8-1.9-1.9-1.9h-3.9V23h3.9
				C55.1,23,55.8,22.2,55.8,21.1z"/>
			<path d="M77.5,12.9v14.4h-4.3v-1.4c-1,1.1-2.4,1.8-4.3,1.8c-3.8,0-6.9-3.3-6.9-7.6c0-4.3,3.1-7.6,6.9-7.6c1.9,0,3.3,0.7,4.3,1.8
				v-1.3H77.5L77.5,12.9z M73.1,20.1c0-2.2-1.4-3.5-3.4-3.5c-2,0-3.4,1.3-3.4,3.5c0,2.2,1.4,3.5,3.4,3.5
				C71.7,23.6,73.1,22.3,73.1,20.1z"/>
			<path d="M94.1,18.5v8.8h-4.3v-8.2c0-1.8-1.1-2.6-2.5-2.6c-1.6,0-2.7,0.9-2.7,3v7.9h-4.3V12.9h4.3v1.3c0.8-1.1,2.2-1.8,4.1-1.8
				C91.7,12.5,94.1,14.6,94.1,18.5z"/>
			<path d="M101.3,11.6v3.9h7.5v4.4h-7.5v7.4h-4.6V7.1h12.2v4.4H101.3z"/>
			<path d="M110.7,9c0-1.4,1.2-2.6,2.6-2.6c1.4,0,2.6,1.2,2.6,2.6c0,1.4-1.2,2.6-2.6,2.6C111.9,11.6,110.7,10.4,110.7,9z
				 M111.1,12.9h4.3v14.4h-4.3V12.9z"/>
			<path d="M127,12.6v4.9c-1.8-0.3-4.3,0.4-4.3,3.3v6.5h-4.3V12.9h4.3v2.6C123.2,13.5,125.2,12.6,127,12.6z"/>
			<path d="M139.9,23c0,3.3-2.9,4.7-6,4.7c-2.9,0-5.1-1.1-6.2-3.4l3.7-2.1c0.4,1.1,1.2,1.7,2.4,1.7c1,0,1.5-0.3,1.5-0.9
				c0-1.6-7.1-0.8-7.1-5.7c0-3.1,2.6-4.7,5.6-4.7c2.3,0,4.4,1,5.6,3.1l-3.7,2c-0.4-0.8-1-1.3-1.9-1.3c-0.8,0-1.2,0.3-1.2,0.8
				C132.8,18.8,139.9,17.7,139.9,23z"/>
			<path d="M147.5,17v5.1c0,1.2,1.1,1.3,3,1.2v3.9c-5.6,0.6-7.3-1.1-7.3-5.2V17h-2.3v-4.2h2.3v-2.7l4.3-1.3v4h3v4.2L147.5,17
				L147.5,17z"/>
		</g>
	</g>
	<g>
		
			<linearGradient id="SVGID_1_" gradientUnits="userSpaceOnUse" x1="-76.8528" y1="-130.0381" x2="-39.359" y2="-108.6654" gradientTransform="matrix(0.7071 0 0 -0.7071 56.0404 -57.4782)">
			<stop  offset="0" style="stop-color:#50C2EE"/>
			<stop  offset="0.1231" style="stop-color:#49C1F0"/>
			<stop  offset="0.323" style="stop-color:#55A5DC"/>
			<stop  offset="0.5" style="stop-color:#5286C5"/>
			<stop  offset="0.5743" style="stop-color:#4E81C2"/>
			<stop  offset="0.6956" style="stop-color:#4270B6"/>
			<stop  offset="0.8478" style="stop-color:#3956A3"/>
			<stop  offset="1" style="stop-color:#2B317F"/>
		</linearGradient>
		<path class="st1" d="M26.7,18.3l-4.4,2.6l-5,2.9l-9,5.2l0,0l-0.5,0.3c0,0,0,0-0.1,0l0,0l0,0c-0.9,0.5-2,0.8-3.1,0.8
			c-1.3,0-2.4-0.4-3.4-1c0.1,1.1,0.4,2.2,1,3.1c0.6,1,1.4,1.8,2.4,2.4c1,0.6,2.2,0.9,3.3,0.9c0,0,0.1,0,0.1,0c1.2,0,2.4-0.3,3.4-0.9
			l7.2-4.2l1.9-1.1l8.6-5l0,0c0.1-0.1,0.2-0.1,0.3-0.2c0-0.1,0-0.3,0-0.4C29.8,21.4,28.5,19.4,26.7,18.3z"/>
		
			<linearGradient id="SVGID_2_" gradientUnits="userSpaceOnUse" x1="-68.1412" y1="-88.7784" x2="-31.5015" y2="-110.518" gradientTransform="matrix(0.7071 0 0 -0.7071 56.0404 -57.4782)">
			<stop  offset="0" style="stop-color:#355EA9"/>
			<stop  offset="1" style="stop-color:#90CBA9"/>
		</linearGradient>
		<path class="st2" d="M32,15c-0.6-1.1-1.5-2-2.6-2.6l-9.2-5.3l-8.7-5c-0.1-0.1-0.3-0.2-0.4-0.2c-2,1-3.4,3.1-3.4,5.5l0.5,0.3l0,0
			l8.8,5.1l5.1,2.9l4.3,2.5c0.1,0,0.1,0.1,0.1,0.1l0,0l0,0c1.8,1.1,3.1,3.1,3.1,5.4c0,0.1,0,0.3,0,0.4c0.9-0.6,1.7-1.4,2.2-2.4
			c0.6-1,0.9-2.2,0.9-3.3C32.8,17.1,32.5,16,32,15z"/>
		
			<linearGradient id="SVGID_3_" gradientUnits="userSpaceOnUse" x1="-70.4354" y1="-123.5608" x2="-70.4354" y2="-82.8861" gradientTransform="matrix(0.7071 0 0 -0.7071 56.0404 -57.4782)">
			<stop  offset="0" style="stop-color:#355EA9"/>
			<stop  offset="1" style="stop-color:#941C80"/>
		</linearGradient>
		<path class="st3" d="M8.1,1.2c-1.2,0-2.3,0.3-3.3,0.9c-1,0.6-1.9,1.4-2.4,2.4c-0.6,1.1-1,2.3-1,3.5v10.6v10c0,0.1,0,0.3,0,0.4
			c1,0.6,2.1,1,3.4,1c1.1,0,2.2-0.3,3.1-0.8V18.4v-11c0-2.4,1.3-4.5,3.4-5.5C10.2,1.4,9.1,1.2,8.1,1.2z"/>
	</g>
</g>
</svg>
