<svg xmlns="http://www.w3.org/2000/svg" viewBox="0 0 583.38 148.25"><defs><style>.cls-1{fill:#081542;}.cls-2{fill:#fff;}.cls-3{fill:#f60;}</style></defs><title>ing</title><g id="Calque_2" data-name="Calque 2"><g id="Layer_1-4" data-name="Layer 1-4"><g id="g5016"><g id="g5018"><path id="path5020" class="cls-1" d="M3.62,41C8,41,11.06,42,13,43.87,15.08,46,16,49.5,16,55.24V126.9c0,9.92-2.08,14.34-14.35,14.34H0v4.4H55.14v-4.38l-1.67,0c-12.15-.14-14.2-4.54-14.2-14.34V55.23c0-5.72.95-9.21,3.07-11.33,1.92-1.92,5-2.86,9.5-2.86h3.29V36.58H0V41Z"/><path id="path5022" class="cls-1" d="M180,109.08a61.34,61.34,0,0,1-1.1-7V69.37c-.21-19.09,2.39-28.59-14.3-28.52V36.56H203v4.29c-17.19-.07-15,9.43-15.12,28.52V145.8l-5.47-.06L99.47,59a63.57,63.57,0,0,1,1.07,7v53.6c-.47,19.56,1.95,21.92,14.55,21.69v4.47h-40v-4.47c12.61,0,15.09-1.66,15.08-23.28V66.43l-.1-8.38c.47-10.85-3.54-17.15-15.78-17V36.71h36.85Z"/><path id="path5024" class="cls-1" d="M318.94,34.48h-4.23l-.2,1.45c-.29,2.16-1.14,5.78-3.6,5.78a12.65,12.65,0,0,1-4.43-1.23,78,78,0,0,0-29-6c-18.2,0-34.7,6.52-46.49,18.36a58,58,0,0,0-16.66,41.68c.07,15.33,6.1,27.94,18.43,38.56s26.35,15.17,46.58,15.17c16.85,0,26.5-2.42,41.31-10.37l2.59-1.41V107.88c0-12.19,1.49-14.09,11.41-14.49l1.61-.06V89.08H287.79v4.25l1.61.06c11.05.43,13.14,2.41,13.14,12.49v26.5c-8.2,5.4-14.16,7.46-21.67,7.46A39.83,39.83,0,0,1,252.27,128c-8.89-8.9-13.23-21.86-13.23-36.51,0-15.78,4.2-29.25,12.86-37.9a36.68,36.68,0,0,1,26.48-10.72c9.33,0,20.17,4,27.6,9.9,6,5,9.17,9.74,11.54,17.65l.36,1.19H322Z"/></g><g id="g5026"><path id="path5028" class="cls-2" d="M531.14,145.34c2.7-.4,5.56-.34,7.7-2.31a35.42,35.42,0,0,0,25.49-5.87,53.67,53.67,0,0,0,9.91-10.42,37.72,37.72,0,0,0,5.56-10.36,48,48,0,0,0,2.2-7.29c2.59-11.81,1.23-25-2.62-36.25a63,63,0,0,0-2.38-6c-4.8-9.92-11.33-20.62-21.38-26.89a43,43,0,0,1-14.08-14.65c-1.74-1.57-3.41-3.64-5.66-4a8.68,8.68,0,0,1,1.46,3.2l-.13.16c-2.39.07-4.26-1.19-5.89-2.72l1.8-1.63a9.17,9.17,0,0,0-2.22-.65c-6.87-.79-12.53,2.39-18.63,3.92l-.1.33c3.75,1.67,4.53,5.8,6.71,8.59.54-.65,1.46-.17,2.22-.23,1.09.06,2.11.85,3.16.57a9.92,9.92,0,0,0-.64-2.45,4.59,4.59,0,0,1,2.15,0c2,1.16,5.13-.2,6.36,2.45a37.24,37.24,0,0,0-6.47,1.13c.14.85,1,1.53.92,2.38a21.37,21.37,0,0,0-5.72-1.46l-.11.31A19.76,19.76,0,0,0,530.4,41c5.15,1.19,9.68-1.26,14.64-.41,12.21,5.59,22.63,18.37,27.16,30.51.23.58.44,1.17.64,1.77,3.8,11.08,4.52,24.69.71,36.25-2,4.8-4.25,9.34-7.82,13.25a26.86,26.86,0,0,1-4.47,4.39c-5.11,4-11.42,5.75-17.92,4-.41-.28-1.23-.35-1.09-1.06.23-.95.44-1.91.62-2.9a71.54,71.54,0,0,0,1.29-17.18c0-.25,0-.5,0-.75A65.83,65.83,0,0,0,539,85.43a80.74,80.74,0,0,0-7.35-12.88c-3.56-4.9-8-9.13-13.65-11.24-3.47-.92-7.76-1.1-10.39,1.8a7,7,0,0,0-2.38,6.27,21.47,21.47,0,0,1-9.81,3.17c-.88.07-1.78.4-2.69.39a15.25,15.25,0,0,1-2.54-.1,25.16,25.16,0,0,1-12-5.52c-.07-1.77-.17-3.44-.24-5.32a6.4,6.4,0,0,1-3.61-5.07l.17-.17a14.34,14.34,0,0,1,3,1.46,22.26,22.26,0,0,0-2.28-7.6c-1.23-.51-2.45-.92-3.61-1.54a5.79,5.79,0,0,1-2.38-3.94c1.19,1.15,3.27.75,4.19,2-1.61-4.74-1.63-10.15-4.26-14.48-1.33-3.2-4.81-4.67-7.19-7-.92-1.13-1.29-2.69-3-2.87-1.37-.34-1.47-1.86-1.71-2.86a23,23,0,0,1,2.28.82c-2-5.24-3.71-11.07-9.06-14.41l-.92.58a56.76,56.76,0,0,1-6.37.51c.92-1.36,2.56-1.94,3.85-2.56a9.19,9.19,0,0,0-4.61-1.7,9.46,9.46,0,0,1-4.45,1.94l-.18-.13c0-1.23-.31-2.73,1.53-3-1.77-.85-4.71-.5-6.51,0-.51,1.33-2,2.53-1.87,4.1-1,1.09-1.8,2.55-2.89,3.34,0-2.63,1.08-5,1.56-7.26-1.53.58-3.09,1.4-4.6,2.11A63.79,63.79,0,0,0,417.54.33c-.23-.1-.75-.2-.65.24,2.22,1.6,1.36,4.6,1.6,6.88l-1.4-1.16c-.68-1.73-2.65-3-3-4.9a26.33,26.33,0,0,0-5.95,2l-.3.17a4.79,4.79,0,0,1,3.74,2.52c-2.41.13-4.56-.82-7-1.06-.23-.23-.44-.51-.81-.48a13.12,13.12,0,0,0-3.27,2.11c-2.35,2.32-4.74,4.88-5.86,8a5.19,5.19,0,0,1,2.35.57c-1.29.79-2.42,2.12-3.68,2.86a32.26,32.26,0,0,0-.48,5.73c-1,1.5-2.31,2.83-3,4.5-2.11,6.84-2.65,14.45-2.35,22.21A24.71,24.71,0,0,1,385.38,52l.07,6.95h.16c.31-1.46,2.05-2.27,3.11-3.26h.34c-.17,1.56-.38,3.13-.41,4.73l-2,1.64c-2,1.74-.31,4.36-.48,6.54.14.57.23,1.43.64,1.57A9.61,9.61,0,0,1,388.31,68c.85-.2,1.6-.89,2.38-1a35.91,35.91,0,0,1-1.7,5,6.07,6.07,0,0,0-1,.86,2.41,2.41,0,0,0-.7,1.26A154.85,154.85,0,0,0,394,97.75c-1.87,3.17-2.94,6.9-4.49,10.17-.23.46-.43.93-.62,1.4-1.56,4-2,8.39-4,12.2a14.37,14.37,0,0,0-2.51-1.33,10.25,10.25,0,0,0-10.64,2.39A9.07,9.07,0,0,0,365,123.8a8.87,8.87,0,0,0-3,3.64,7.4,7.4,0,0,0-.53,3.25,7.83,7.83,0,0,0-2.86,4.32,13.48,13.48,0,0,0,2.69,10.34H531.14Z"/><path id="path5030" class="cls-2" d="M508.59,68.74c0,.88-.68,1.87-.1,2.62.82-.92,2.18-.89,3.27-1.29,3-.28,5.93.67,8.75,1.36-.71-1.13-1.19-2.38-2-3.4-1.57-.41-3.95.68-4.22-1.64-1-.82-2.46-.23-3.44-.17a7.65,7.65,0,0,0-2.29,2.52Z"/><path id="path5032" class="cls-2" d="M404.46,39.32a.05.05,0,0,0,0,0v0Z"/><path id="path5034" class="cls-2" d="M416.85,69.6l2-2a.44.44,0,0,1,.41.17l-.17,3.78a5.33,5.33,0,0,0,3.51,1.3c.1-1,.88-1.74,1.33-2.63.37-.71.14-1.77.88-2.28l.24.24c.24,1.12.17,2.38.75,3.37.07.54.17,1.23.24,1.7a8.46,8.46,0,0,0,4-.88,15.39,15.39,0,0,1,.57-3.55c.31-.41-.37-1.16.48-1.12.48,1,1.33,2.08,1.81,3.16a13.38,13.38,0,0,0,3.27-7.35c-.58-.79-1.47-.79-2.15-1.3-5.79-1.87-13.22-2.25-18.81.65A8.72,8.72,0,0,0,416.85,69.6Z"/><path id="path5036" class="cls-2" d="M362.7,133.54a53.12,53.12,0,0,0,.17,7.68,3.94,3.94,0,0,0,2.52,1.91l.18-1.74c.4-2.43-.89-5,.47-7a16.54,16.54,0,0,1,2.73,1.23,6,6,0,0,0-2.32-6.24l-3.75,4.2Z"/><path id="path5038" class="cls-2" d="M371.11,129.86c-1.32,4-2.32,8.91-.71,13.1a14.79,14.79,0,0,0,2.69-2c-.17-3.21-.61-6.63,1.29-9.29a6,6,0,0,1,3.44,3.68,6.27,6.27,0,0,0,1.06-5.32c.07-1.49-1.64-1.15-2.45-1.77.27-1.26.23-2.72,1.56-3.43l-4.08.41A19.37,19.37,0,0,0,371.11,129.86Z"/><path id="path5040" class="cls-2" d="M379.53,141.63c.18.31,0,.85.34.92.52-2.86,2.83-4.72,4.1-7.24.6-.85.57-2,1.56-2.69,1.33,0,2.28,1,3.58,1.06.41.31-.21.58-.24.91-.27,2.33-1.16,4.25-1,6.63h.24a34.84,34.84,0,0,0,4.36-6.15l.23-1.94c.31-2.31-2.21-3.81-3.85-4.77l1.47-1.87-2.05-.72a9.3,9.3,0,0,0-6.2,3.11c-2.07,3.81-2.41,8.12-2.55,12.75Z"/><path id="path5042" class="cls-2" d="M388.7,121.41c.78.24,1.49-.41,2.27-.07,3.14,1.16,6.41,2.35,8.76,5l2.8,7.11,1.4-4.39-.92-2.39c-.79-1.7-2.93-1.56-4.4-1.63-.61-.68,0-1.47.24-2.11.71-2.42-2.25-2.29-3.44-3.27.07-1.47-1.71-1-2.7-1.09l-.33-.41a.7.7,0,0,0-1-.07c-.07-.1-.21-.17-.13-.34l-.76.17a4.81,4.81,0,0,0-1.8,3.51Z"/><path id="path5044" class="cls-2" d="M390.67,113.58a2.19,2.19,0,0,0,.71,1.15c1.54-.41,3-1.46,4.77-.82,2.29,2,4.67,4.12,7.44,5.22l1-.18c.62.22,1.29.24,1.71.93.37.92-.58,1.46-.89,2.21,1.54,1.12.92,3.14,1.88,4.49l2.45-3.26c-.57-1.44,0-3.89-2.21-4a2.16,2.16,0,0,1-1.23-2c-1.46-1.33-3.27-1.91-4.74-3.27-1.19-1-1.9-2.42-3.44-2.76a12.5,12.5,0,0,0-3.43-1.16c-2.29-.34-2.5,2.38-4,3.45Z"/><path id="path5046" class="cls-2" d="M393.94,106.86l.41.65c1.7-.1,3.24-.85,4.91-.82,1.12.69,2.59.65,3.75,1.23a13.3,13.3,0,0,0,3.26,3.55c2.77.4,4.3,3.37,5.25,5.54V116a7.3,7.3,0,0,0-.58-4.49c-.68-.69-1.67-1.14-2.38-1.75a1.37,1.37,0,0,1,.1-1c-1.06-1.13-2.63-1.74-3.92-2.63-1.8-2.62-5.28-1.9-8-2.62l-2.76,3.44Z"/><path id="path5048" class="cls-2" d="M393.89,81.87c.3,1.06.67,2.39.87,3.51.95-2.12,2.84-3.06,4.5-4.8a8.47,8.47,0,0,0-3.2-1.16v-.07C395.31,80.1,394.16,80.85,393.89,81.87Z"/><path id="path5050" class="cls-2" d="M400.08,93.08l1.53-1.57a9.69,9.69,0,0,0,3-5.38c-1.09-.65-2.52-.21-3.57.16a41.44,41.44,0,0,0-1,6.79Z"/><path id="path5052" class="cls-2" d="M401.2,97.88c2.35.14,4.63.61,6.54-.71L409.65,91a4.85,4.85,0,0,0-1.81-.1A14.85,14.85,0,0,1,401.2,97.88Z"/><path id="path5054" class="cls-2" d="M401.89,76.14c1.53,2.26,4.09,4.78,6.71,5.49-.3-2.86-2.75-4.84-4-7.29l-.07-.82a12.86,12.86,0,0,0-3.2-2.12,15.89,15.89,0,0,0,.58,4.74Z"/><path id="path5056" class="cls-2" d="M410.2,98.16a11.9,11.9,0,0,0,5.41-.52c2.42-.57,3.75-3.23,4.57-5.31h-3l-3.28,3.2a24.62,24.62,0,0,0-3.67,2.63Z"/><path id="path5058" class="cls-2" d="M409.83,73.05A19.87,19.87,0,0,0,413,80.41l.41-5.08Z"/><path id="path5060" class="cls-2" d="M421,86.3c.2-1.71-.51-3.68-.7-5.42-1-.68-2.47-.61-3.52-1.29C416.85,82.28,419,84.56,421,86.3Z"/><path id="path5062" class="cls-2" d="M417.9,103.61a33.63,33.63,0,0,0,6.19-2.52c1.26-1.8,3.17-3.45,3.44-5.56-1.56.44-2.93-.06-4.39.66-.88,1.59-1.43,3.4-3.13,4.56C419.74,101.9,418.47,102.69,417.9,103.61Z"/><path id="path5064" class="cls-2" d="M421.23,107.8l2.56,3.34a5.21,5.21,0,0,0,4.26-.48l-.93-3A11.83,11.83,0,0,1,421.23,107.8Z"/><path id="path5066" class="cls-2" d="M425.49,83.67l1,4.5c2.38-1.94,2.87-4.77,2.81-7.77-1.37,1.57-2.17,2.53-3.8,3.27Z"/><path id="path5068" class="cls-2" d="M432.2,91.62a3.26,3.26,0,0,0,.59,1.77c2.65,1,2.92,4.19,5.38,5.41,1.6.72,3.43-.17,4.84-.82-1.06-1.19-2.26-2-3.27-3.27-.72-.3-1.44-.75-1.4-1.63l-6.14-1.46Z"/><path id="path5070" class="cls-2" d="M434.32,107.7a7.87,7.87,0,0,0,4.36,2.38c-.27-.38.17,0,.24-.24l-2.05-4.49c-1,0-2.08.24-3,.17a8.94,8.94,0,0,0,.48,2.18Z"/><path id="path5072" class="cls-2" d="M437.93,86.71a26.32,26.32,0,0,1-1.63-7.36c-1,1.22-2.08,2-3,3.27C432.83,85.14,436.43,85.76,437.93,86.71Z"/><path id="path5074" class="cls-2" d="M442.08,84.39c1.23,1.6,3.92,1.06,5.43.58-.72-1.23-3-1.94-3.44-3.27a29.24,29.24,0,0,0-1.47-6.78C441.41,77.81,440,81.26,442.08,84.39Z"/><path id="path5076" class="cls-2" d="M444.23,91.62c3.41,2.49,6.74,5.38,11.51,4.32.35-.24.92-.21,1-.65-1.4-.88-2.89-1.57-4.32-2.38l-1.64-2.39H450a29.93,29.93,0,0,1-5.79,1.1Z"/><path id="path5078" class="cls-2" d="M444.3,119.25h.23c2.05-1.64,4.47-2.18,6.89-2.87.65.24.24,1,.82,1.23,1.47-.61,3.24-.47,4.73-1a10.43,10.43,0,0,1,4.74.89c1.15,1.53,3.34,1.37,4.84,2.38l-.24-2.38c-3.16-3.71-8.11-4-12.67-3.91l-.1-.49a8,8,0,0,0-3.34.73,17.21,17.21,0,0,0-4.26,1.22,39.07,39.07,0,0,0-1.64,4.19Z"/><path id="path5080" class="cls-2" d="M447,77.37c1.32,1.74,3.3,3.07,5.55,2.63-1.16-1.13-2.49-2.32-2.56-3.92.34-3-3-3.27-4.63-4.84C445.94,73.29,445.88,75.57,447,77.37Z"/><path id="path5082" class="cls-2" d="M446.69,125.28h.4c1.81-1.13,4.43-.28,6.2-1.47,1-.51,1.06.85,1.74,1.23,1.67,1,1.88,4.08,4.23,3.37,2.82,1.47,2.11,4.91,2.21,7.43l2.63-1.63c-.24-1.33.5-2.94-.35-4.09-.64-1.46-2.41-1.6-3.27-2.8,1-1.74-1.29-2.55-1.77-3.81l.14-.18,3.6.48a5.4,5.4,0,0,1,2.05,3.38c2.83.47,3.51,3.67,4.5,5.72.58-1.4.82-2.9,1.4-4.26,0-1.13-1.47-1.13-2.21-1.63a6.1,6.1,0,0,0-2.52-4.43c-3.14-.79-5.9-2.53-9.34-2.53l-2.86.89c-1.57.38-3.24-.1-4.43,1-1.78.13-1.91,2.08-2.35,3.34Z"/><path id="path5084" class="cls-2" d="M448.49,111.24l.65.31c1.39-.66,2.79-1.4,4.26-2,2.28-.65,4.05,2,6,.31.72-.51,1.32.24,1.87.65.82,1.5,2.73,1.4,4.16,1.8-.71-1.94-1.6-4.6-4.09-4.91-1-.44-2.14-.4-3.1-1-2.62-2.9-4.32,2.38-7.19,1.09-1,1.13-2.28,2.18-2.52,3.68Z"/><path id="path5086" class="cls-2" d="M449.14,127.83c1.09.92,2.21,2.49,3.91,2.28,2.12,1,1.23,3.78,2.39,5.25l1.22-1.09-.1-.07.18-.17.07.1a6.49,6.49,0,0,0-.72-4c-.78-.54-1.7,0-2.45-.48a3.46,3.46,0,0,0-1.57-2.31c-.55-.41-1.26.13-1.87.1l-1.06.41Z"/><path id="path5088" class="cls-2" d="M453.4,86.3c1.12,1.88,3.3,3,5,4.33a8.1,8.1,0,0,0,4.84.47,30.93,30.93,0,0,1-4-4c-.48-.68-.58-1.53-1.23-2.14-1.61.31-3.4.28-4.63,1.33Z"/><path id="path5090" class="cls-2" d="M455.28,74.11c1.57,1.93,4,1.15,6.2,1.22V75.1l-3.41-2.87a9,9,0,0,0-2.79,1.88Z"/><path id="path5092" class="cls-2" d="M392.56,42l2,6.14c0-3.48,1.57-6.37,1.23-9.92L397.22,36l-3.1,1A11.55,11.55,0,0,0,392.56,42Z"/><path id="path5094" class="cls-2" d="M393.89,31.34l2.68-1.57v-4c-1.12.68-1.74,1.84-2.62,2.76Z"/><path id="path5096" class="cls-2" d="M449.15,37.55a3.79,3.79,0,0,1-2.45,1.22,11.67,11.67,0,0,0,1-9.24,13.88,13.88,0,0,0,2.29-.81l-.08-.07L451.77,27c2.49-1.7,1.53-4.94,2.46-7.35-1.23-1.92-1.6-4.23-3.38-5.84l.11-.06c-1.41-1.77-3.92-1.57-5.84-2.46-2.52-.85-4.46.89-6.26,2-.79.14-.31,1.16-1.16,1.13a34.38,34.38,0,0,0-1.4,4c-3.38-.48-7-.09-9.71,1.81-1.43-1.05-3.17-1.26-4.84-1.74-1.23-.23-2.62.21-3.5-.48-1.3-1.46-1.58-4.12-3.79-4.49-.78-.27-.95-1.12-.95-1.87-1.47-.24-2.77-.92-4.2-1.23-2.17-1-3.91.58-5.55,1.63a16.38,16.38,0,0,0-2.21.83,31.77,31.77,0,0,0-3.17,5.95,12.38,12.38,0,0,0,1.88,4.74c.78,2.22,3.23,3.95,5.31,4.84a20.2,20.2,0,0,0,0,10.8l-.06,0-.1.09a1.87,1.87,0,0,1-1-.09h0a14.89,14.89,0,0,0,4.48,8.54c.89.31.69,1.37,1.07,2a1.62,1.62,0,0,1,.16,1.22,26.72,26.72,0,0,0-14.31,3.58c-1.09.54-.61,2-.71,3.1a26.46,26.46,0,0,1,9.81-4.09c1.53-.1,3.27-.47,4.74-.06l.17,2.93c-4.05,2.11-8.48,3.33-12,6.81a14.13,14.13,0,0,0,.17,3.17l3.11-2.52a36.64,36.64,0,0,1,9.57-5.49,12,12,0,0,0,3.1,2.93,23.33,23.33,0,0,1,6.71-2.93c1.27-.75,3.27-.07,4.09-1.56l.58-3.1c-.11-.07-.17-.2-.34-.17a4.69,4.69,0,0,1-2.52-4.4,4.54,4.54,0,0,1-1.81.48c-.54-.14-1-.27-1.29-.82,0-.68-.38-1.7.3-2.21,2.22-1.37,5.08-1.44,7.88-1.22,2.07.26,5.07.16,5.78,2.62-.09.71,0,1.5-.74,2s-1.6,0-2.29-.34c-.54,1.67-1.46,3.55-3.34,4.09l.25,2c.23.89.3,2.35,1.7,2a30,30,0,0,1,8.92,4.26,21.4,21.4,0,0,0,2.39-3c5,1.7,9.4,5.48,13.56,9l.17-2.86a46.42,46.42,0,0,0-12.92-7.94,16.9,16.9,0,0,0,.41-2.79,33.33,33.33,0,0,1,15,4.6l-.07-2.45a33.41,33.41,0,0,0-15.47-4.26,1.73,1.73,0,0,1-.23-1.06c2.72-.45,4.66-3.27,5.32-5.73,1.39-1.6,3.4-3.34,2.93-5.72l.2-.61A2.86,2.86,0,0,0,449.15,37.55Z"/><path id="path5098" class="cls-2" d="M453.89,46.3l2.79-.89.3-1.56c.79-2.28-.88-4-1.7-5.8l-1.39,8.25Z"/><path id="path5100" class="cls-2" d="M460.93,57.1c1.33,1.46,2.63,3.82,5,3.1a14.61,14.61,0,0,0-1.06-2.69c-.62-.72-.82-2.76-2-2-.92-.62-1.16-1.64-1.74-2.46A24.33,24.33,0,0,0,460.93,57.1Z"/><path id="path5102" class="cls-2" d="M461.41,67.08c.52.72.65,1.64,1.16,2.29a5.5,5.5,0,0,0,3.4.4c1-.23,1.68.89,2.63.24-1.19-.75-1.9-2.12-3-3.1C464.23,65.86,462.81,66.78,461.41,67.08Z"/><path id="path5104" class="cls-2" d="M463.22,82.93c2.35,1.39,5.34,2.76,8.47,2.28.34-.17.92-.14,1-.55-1.94-.68-4-2.62-6-3-1.13-1.74-2.59.44-4,.31C462.67,82.35,463.08,82.66,463.22,82.93Z"/><path id="path5106" class="cls-2" d="M470.3,113l.51,1.09c.52,3.55,2.76,6.82,1.53,10.7,1,.71,1.33,1.9,2,2.86h.17c.78-3,.24-6-.17-9,.3-2.69-2.42-4.26-4-5.65Z"/><path id="path5108" class="cls-2" d="M470.89,78.12a7.6,7.6,0,0,0,6.64.82,20.86,20.86,0,0,1-3.79-2.45Z"/><path id="path5110" class="cls-2" d="M479.29,88.58a3.69,3.69,0,0,0,1.81,3.34,7.84,7.84,0,0,0,1-2.52,6.24,6.24,0,0,0-2.45-3.78A8.42,8.42,0,0,0,479.29,88.58Z"/><path id="path5112" class="cls-2" d="M479.4,104.11c-.24,1.6,1.53,1.81,2.28,2.7s-.41,1.26-.41,2a9.27,9.27,0,0,1,2,5.8,57,57,0,0,0,1.58-6.21c-.14-1.49-2.52-1.19-2.15-2.85.68-1.71-.14-3.38-.58-4.91-.14-.24-.45-.72-.71-.58C480.82,101.43,479.29,102.41,479.4,104.11Z"/><path id="path5114" class="cls-2" d="M484.06,96l1.77,3.44c.79-.1,1.29-.85,1.91-1.39.48-1.44-.79-2.36-1.16-3.52-.31-.82,0-1.9-.58-2.62-.44-.27-1-.71-1.47-.58L484.06,96Z"/><path id="path5116" class="cls-2" d="M486.34,87a9.9,9.9,0,0,1,3.75,3.57c1.19,3.48,3.1,6.61,4.5,10,.51,2.36.92,4.45,1.56,6.77.24.61.11,1.8,1.06,1.7.27-2.59.79-5.07.82-7.77a10.24,10.24,0,0,0-3-2.28v-.24c.14-.58.61-1.26,1.33-1.15.3-.35,1.22-.69.82-1.3-1.77-1.77-1.67-4.82-4.5-5.37a2.58,2.58,0,0,1-1.33-2.38A8.07,8.07,0,0,0,486.34,87Z"/><path id="path5118" class="cls-2" d="M488,105.41c1.74,1.6,1.14,3.92,1,6.07-.26,1.29,1.37.54,1.88,1.22,1.06,1.57.44,3.85.06,5.56a32.16,32.16,0,0,0,2.7-4.16c0-.58.71-.85.68-1.56.31-1-.85-.55-1.33-.66s-.85-.37-.72-.92c.89-1.7.08-3.75-.27-5.45-.4-1.4.18-3.27-.47-4.49-1.09,1.5-4.33,1.84-3.52,4.39Z"/><path id="path5120" class="cls-2" d="M491.15,81.22c3,3.07,5.25,6.15,8.51,9.12a32.94,32.94,0,0,0-.17-3.86,9.32,9.32,0,0,0-2.11-2.28C495,84,493.7,80.71,491.15,81.22Z"/><path id="path5122" class="cls-2" d="M499.09,97.46a4.5,4.5,0,0,0,.33.88,45.45,45.45,0,0,1,3.52,6.78c-.28-2.51,1.43-5.65-.82-7.59-.31-.82-1.33-.55-2-.48Z"/><path id="path5124" class="cls-2" d="M507.26,122.35c1,.43,2.18-.35,3.1-.89a2.75,2.75,0,0,1,2.22.72c.27.54,0,1,.1,1.56a20.82,20.82,0,0,1,5.86,2.52l.57-.57c.14-1.47-1-2.52-2.11-3.34-.71-.42-1.77-.17-2.27-.83a3.65,3.65,0,0,0,.3-2,4.93,4.93,0,0,1-2.77-.89c-.57-.16-1.08-.64-1.56,0-1.7,1.16-1.8,2.86-3.44,3.69Z"/><path id="path5126" class="cls-2" d="M509.65,79.47a6,6,0,0,0,2.45-1.09c2.28-2.08,5.59-.68,8.24-.71A17.11,17.11,0,0,0,518.47,75a7.9,7.9,0,0,0-2.93-.82c-2.32-1.36-3.88.92-5.66,2A3.82,3.82,0,0,0,509.65,79.47Z"/><path id="path5128" class="cls-2" d="M509.72,86.48c0-.09,0-.2.1-.23.3.27,0,.92.47,1a18.61,18.61,0,0,0,2.52-1.62c2.29,0,3.65-2.22,5.89-2.22,3.75.68,7.47,1.43,10.74,3.27-.24-2.22-2.15-4.23-4.08-5.22a2.82,2.82,0,0,0-2.73.82c-2.29,1.44-1.09-2.08-2.69-2.15a16.75,16.75,0,0,1-6.54,1.17c-1.37.5-2.33,1.76-3.86,1.63a8.53,8.53,0,0,0,.18,3.5Z"/><path id="path5130" class="cls-2" d="M511.29,94.09c.71.74,1.9.61,2.93.74l3-1.15c0-.55-.89-.69-.69-1.29.82-.92,2-.28,3-.66,1.44-.2,2.91-1.63,4.33-.57,0,.17.07.41-.06.57-.45,1.06.3,1.71,1.12,2.11,1.67.32,3.24,1.85,4.91,1.16a32,32,0,0,0-.89-4c-1.4-.24-2.38-1.39-3.68-1.88a2.77,2.77,0,0,1-2,.89c-2.63-.61-5.76-2.24-8.42-.57-1,1.15-2.66.81-4,1.32A14.56,14.56,0,0,0,511.29,94.09Z"/><path id="path5132" class="cls-2" d="M512.41,114.34c-.21.58-.79,1.53.27,1.8,2.18.08,5-1,6.68.65.58.45.3,1.36.27,1.95l2.86,2.38a25.67,25.67,0,0,0,.82-4.26,4.8,4.8,0,0,0-1.74-2.86c-1.87,0-3-2.2-5-1.92-1.05-.24-2,.69-3,.69a15.36,15.36,0,0,0-1.15,1.57Z"/><path id="path5134" class="cls-2" d="M513.23,98.28c.44.91.95,2.42,1.8,2.52,2-.89,4.94-1.44,7.19-.48.75.14.75,1,.58,1.54,1.16.68,2.56,1.22,3.78,2l-.34-2c-.07-2.22-2.86-2.43-3-4.61a13.44,13.44,0,0,0-7.26-.4c-.79.71-1.91.61-2.86.82C513,97.87,513.19,98,513.23,98.28Z"/><path id="path5136" class="cls-2" d="M513.81,109.32c1.33-.38,2.17-1.84,3.61-2a6.65,6.65,0,0,1,5.48,2.8c.83.54.65,1.94,1.7,1.94-.3-1.67.24-3.21.18-4.91-1.44-2.38-5-.55-6.3-3.34L516,104c-1.81.44-1.33,2.56-1.58,4-.2.44-.61.78-.57,1.33Z"/><path id="path5138" class="cls-2" d="M526.3,124.22c1.06,2.11,3.38,3.72,3.62,6.14a11.67,11.67,0,0,0,1.29-2.12c0-.68-.82-.68-1.13-1.22-.3-.89.18-1.67.31-2.46a6.62,6.62,0,0,0-2.69-3.2l-1.4,2.86Z"/><path id="path5140" class="cls-2" d="M530.5,118.84l2.45,3.34c1.06-1.68,1.06-4.13.65-6.14-.23-.38-.68-1-1.29-.72-.93,1-1.06,2.42-1.81,3.52Z"/><path id="path5142" class="cls-2" d="M520.51,25.58a7.06,7.06,0,0,0,2.8.91,3.57,3.57,0,0,1,2.52-.4c1.26.81,2.8-.18,4.26-.11a15.63,15.63,0,0,0-4.26-2.68C523.92,23.7,522.39,25.06,520.51,25.58Z"/><path id="path5144" class="cls-2" d="M533.84,28.78c1.8.17,3.1,1.77,4.32,3.1a6.09,6.09,0,0,1,3.62,2.46l-.58-1.81a11.7,11.7,0,0,0-2.69-4.64A13.37,13.37,0,0,0,533.84,28.78Z"/><path id="path5146" class="cls-3" d="M406.69,13.83l1,.1c2.66,1.33,6.95,2,7.19,5.86a21,21,0,0,0-7.42,4.66c-1.64-1.67-4.95-.75-5.49-3.67.51-2.76,1.5-6.23,4.73-7Z"/><path id="path5148" class="cls-3" d="M409.25,31.11c3.1-.27,6.1.16,9.3-.11a4.1,4.1,0,0,1,2,1.81c-.1,3.68-1.23,7.19-1.4,11a5,5,0,0,0-3.1,3.27,26.84,26.84,0,0,0-3.61,1.7,3.57,3.57,0,0,1,.51-3.84c1.33-1.88,4.77-1.44,4.49-4.4.89-1.43,0-3.27.08-4.77-.35-1.12-.69.37-1.23.34a4.48,4.48,0,0,1-3.17-.24c-.72-.75-1.6-1.36-1.8-2.39a5.52,5.52,0,0,1-2.56-2.21Z"/><path id="path5150" class="cls-3" d="M413,53.32c1.46.2,3-.44,4.26.27a2.45,2.45,0,0,1-1.57.82l-2.28,1.06C412.56,55.26,413,53.9,413,53.32Z"/><path id="path5152" class="cls-3" d="M419,24.87c1.46-.48,3-1.46,4.6-1a22.49,22.49,0,0,0-2.86,3.95l-4.66-.1A6.52,6.52,0,0,1,419,24.87Z"/><path id="path5154" class="cls-3" d="M432.63,23.74c1.93-.33,1.83,2.19,3.6,2.29.31.41.76.78.58,1.39-1,.41-2.52.21-3.68.48-1.53-.85-.54-3.51-3-3.34-.13-.2-.4-.61-.06-.75a5.82,5.82,0,0,1,2.53-.07Z"/><path id="path5156" class="cls-3" d="M431.4,32.88c.85-1.2,2.15-1.29,3.37-1.54l8.83.17c.37.34-.34.65-.34,1.06-.55.51-1.34.65-1.81,1.13-1.16,0-1.06,1.39-1.88,2-1.26,1.26-3.1.69-4.56.48a3.9,3.9,0,0,1-1.33-1.47l-.41.41c.51,1.91.38,4,.75,6l2.11,1.4c0,3.14,3.72,2.29,5.32,4a9.7,9.7,0,0,1-1.94,3,11.46,11.46,0,0,0-4.33-2.63C435.05,45,433,44,431.91,43c-.31-3.34-.38-6.74-.92-10Z"/><path id="path5158" class="cls-3" d="M434.6,53.9h4.09L438.18,56l-4.09-1.74c-.1-.33.27-.44.51-.4Z"/><path id="path5160" class="cls-3" d="M442,15.3l3-1a31,31,0,0,1,5,3c1.27,2.32,1.05,5.45.48,8-.92,1-2.93,0-3.68,1.63h-.14c-1.12-3.2-4.32-6.06-7.29-7.53.48-1.63,1-3.23,2.63-4.18Z"/><path id="path5162" class="cls-2" d="M513,145.1H531.2c2.69-.4,5.55-.34,7.69-2.32a35.42,35.42,0,0,0,25.49-5.85,53.71,53.71,0,0,0,9.91-10.43,37.85,37.85,0,0,0,5.56-10.36,48,48,0,0,0,2.19-7.29c2.6-11.81,1.24-25-2.6-36.25a64.66,64.66,0,0,0-2.39-6c-4.8-9.91-11.32-20.61-21.38-26.89A43,43,0,0,1,541.59,25c-1.74-1.57-3.41-3.65-5.66-4a8.87,8.87,0,0,1,1.47,3.2l-.14.17c-2.38.07-4.26-1.19-5.89-2.73L533.18,20a9.94,9.94,0,0,0-2.22-.65c-6.89-.78-12.54,2.38-18.63,3.92l-.11.34c3.75,1.67,4.53,5.79,6.71,8.59.55-.66,1.47-.18,2.22-.25,1.09.07,2.11.85,3.16.58a9.4,9.4,0,0,0-.64-2.45c.64-.31,1.43,0,2.14,0,2,1.16,5.15-.21,6.38,2.45a36.27,36.27,0,0,0-6.48,1.13c.14.85,1,1.53.92,2.38a21.47,21.47,0,0,0-5.72-1.46l-.1.3a19.75,19.75,0,0,0,9.64,5.83c5.14,1.19,9.67-1.26,14.64-.41,12.21,5.59,22.63,18.37,27.16,30.5.23.59.44,1.18.64,1.77,3.8,11.08,4.52,24.71.72,36.25-2,4.82-4.26,9.35-7.83,13.26a27.72,27.72,0,0,1-4.47,4.4c-5.11,4-11.42,5.73-17.91,3.94-.41-.26-1.24-.33-1.1-1.05.23-.94.44-1.91.63-2.89a71.7,71.7,0,0,0,1.28-17.19c0-.25,0-.5,0-.75A65.67,65.67,0,0,0,539,85.19a79.58,79.58,0,0,0-7.34-12.88c-3.55-4.9-8-9.14-13.64-11.25-3.48-.92-7.78-1.09-10.39,1.81a7,7,0,0,0-2.39,6.27,21.47,21.47,0,0,1-9.81,3.17c-.88.07-1.78.39-2.69.39a14.2,14.2,0,0,1-2.54-.11,25,25,0,0,1-12-5.52c-.07-1.76-.18-3.44-.24-5.31a6.43,6.43,0,0,1-3.61-5.08l.17-.17a14.37,14.37,0,0,1,3,1.47,22.26,22.26,0,0,0-2.28-7.6,38.7,38.7,0,0,1-3.61-1.53,5.85,5.85,0,0,1-2.38-4c1.19,1.17,3.26.76,4.19,2-1.6-4.73-1.64-10.15-4.26-14.48-1.33-3.2-4.81-4.67-7.19-7-.93-1.12-1.3-2.69-3-2.86-1.36-.34-1.46-1.88-1.7-2.86.85.1,1.56.68,2.28.81-2-5.25-3.71-11.07-9.06-14.41l-.92.58a56.94,56.94,0,0,1-6.37.51c.92-1.36,2.55-1.94,3.85-2.56a9.19,9.19,0,0,0-4.61-1.7,9.46,9.46,0,0,1-4.46,1.94l-.16-.13c0-1.22-.32-2.73,1.52-3-1.77-.86-4.7-.52-6.51,0-.51,1.33-2,2.52-1.87,4.08-1.05,1.1-1.8,2.56-2.9,3.34,0-2.62,1.08-5,1.57-7.25-1.54.57-3.1,1.39-4.59,2.11A61.74,61.74,0,0,0,417.59.09c-.24-.1-.75-.21-.65.23,2.22,1.61,1.36,4.6,1.6,6.89l-1.4-1.16c-.68-1.74-2.65-3-3-4.91a26.33,26.33,0,0,0-5.95,2l-.29.17a4.81,4.81,0,0,1,3.74,2.52c-2.42.14-4.56-.82-6.94-1-.24-.24-.44-.51-.83-.48a13.35,13.35,0,0,0-3.27,2.12c-2.34,2.31-4.73,4.87-5.85,7.93a5.24,5.24,0,0,1,2.35.59c-1.29.78-2.42,2.11-3.68,2.86A31.17,31.17,0,0,0,393,23.5c-1,1.5-2.31,2.83-3,4.5-2.11,6.84-2.66,14.44-2.35,22.21-.69.65-1.57,1.06-2.21,1.57l.06,6.95h.17c.31-1.47,2-2.28,3.1-3.27h.35c-.17,1.57-.38,3.13-.41,4.74l-2,1.63c-2,1.74-.3,4.36-.48,6.54.15.58.24,1.43.66,1.57a8.74,8.74,0,0,1,1.46-2.21c.85-.21,1.59-.89,2.38-1a36,36,0,0,1-1.71,5,6.43,6.43,0,0,0-1,.85,2.43,2.43,0,0,0-.69,1.27A153.05,153.05,0,0,0,394,97.5c-1.88,3.17-2.94,6.9-4.5,10.18-.22.45-.42.92-.61,1.39-1.57,4-2,8.39-4,12.2a13.46,13.46,0,0,0-2.52-1.33,10.27,10.27,0,0,0-10.63,2.39,9.1,9.1,0,0,0-6.72,1.22,8.93,8.93,0,0,0-3,3.65,7.35,7.35,0,0,0-.53,3.24,7.76,7.76,0,0,0-2.86,4.32,13.42,13.42,0,0,0,2.68,10.34Z"/><path id="path5164" class="cls-3" d="M579.44,72.6q-1.07-3.12-2.39-6c-4.8-9.92-11.32-20.62-21.38-26.89A43.07,43.07,0,0,1,541.59,25c-1.74-1.57-3.41-3.64-5.66-4a8.87,8.87,0,0,1,1.47,3.2l-.14.17c-2.38.07-4.26-1.19-5.89-2.73L533.18,20a9.42,9.42,0,0,0-2.22-.64c-6.89-.79-12.54,2.38-18.63,3.91l-.11.34c3.75,1.67,4.53,5.79,6.71,8.59.55-.65,1.47-.17,2.22-.24,1.09.07,2.11.85,3.16.57a9.32,9.32,0,0,0-.64-2.44,4.42,4.42,0,0,1,2.14,0c2,1.15,5.15-.21,6.38,2.44a38.15,38.15,0,0,0-6.48,1.13c.14.85,1,1.54.92,2.39a21.11,21.11,0,0,0-5.72-1.47l-.1.3a19.76,19.76,0,0,0,9.64,5.84c5.14,1.19,9.67-1.26,14.64-.41,12.21,5.59,22.63,18.37,27.16,30.5.23.58.44,1.17.64,1.76,3.8,11.08,4.52,24.71.72,36.26-2,4.81-4.26,9.34-7.83,13.25a27.72,27.72,0,0,1-4.47,4.4c-5.11,4-11.42,5.73-17.91,3.95-.41-.27-1.23-.34-1.1-1,.23-1,.44-1.92.63-2.9a71.66,71.66,0,0,0,1.28-17.19c0-.25,0-.5,0-.75A65.67,65.67,0,0,0,539,85.19a80,80,0,0,0-7.34-12.88c-3.55-4.9-8-9.13-13.64-11.25-3.48-.92-7.78-1.08-10.39,1.81a7,7,0,0,0-2.39,6.27,21.35,21.35,0,0,1-9.81,3.17c-.88.08-1.78.39-2.69.39a14.2,14.2,0,0,1-2.54-.11,25.1,25.1,0,0,1-12-5.51c-.07-1.77-.18-3.45-.24-5.31a6.43,6.43,0,0,1-3.61-5.08l.18-.17a14.5,14.5,0,0,1,3,1.46,22.21,22.21,0,0,0-2.28-7.59c-1.23-.52-2.46-.92-3.61-1.54a5.83,5.83,0,0,1-2.38-4c1.19,1.16,3.26.75,4.19,2-1.6-4.74-1.64-10.16-4.26-14.49-1.33-3.2-4.81-4.66-7.19-7-.93-1.12-1.3-2.68-3-2.86-1.36-.34-1.46-1.87-1.7-2.86a24,24,0,0,1,2.28.82c-2-5.25-3.71-11.07-9.06-14.41l-.92.57a54.69,54.69,0,0,1-6.37.52c.92-1.37,2.55-1.94,3.85-2.56a9.2,9.2,0,0,0-4.61-1.71,9.36,9.36,0,0,1-4.46,1.94l-.16-.13c0-1.22-.32-2.73,1.52-3-1.77-.85-4.7-.51-6.51,0-.51,1.33-2,2.52-1.87,4.09-1.05,1.09-1.8,2.55-2.9,3.34,0-2.63,1.08-5,1.57-7.26-1.54.58-3.1,1.39-4.59,2.11A63.12,63.12,0,0,0,417.59.1c-.24-.11-.75-.21-.65.23,2.22,1.6,1.36,4.6,1.6,6.88l-1.4-1.15c-.68-1.74-2.65-3-3-4.91a25.84,25.84,0,0,0-5.95,2l-.29.17a4.8,4.8,0,0,1,3.74,2.51c-2.42.14-4.56-.81-6.94-1-.24-.24-.44-.51-.83-.47a13,13,0,0,0-3.27,2.11c-2.34,2.31-4.73,4.88-5.85,7.94a5.23,5.23,0,0,1,2.35.58c-1.29.78-2.42,2.11-3.68,2.86a31.2,31.2,0,0,0-.48,5.73c-1,1.49-2.31,2.82-3,4.49-2.11,6.85-2.66,14.45-2.35,22.22-.69.64-1.57,1.06-2.21,1.56l.06,6.95h.17c.31-1.46,2-2.28,3.1-3.26h.35c-.17,1.56-.38,3.13-.41,4.73l-2,1.64c-2,1.73-.3,4.35-.48,6.53.15.58.24,1.44.66,1.57a8.92,8.92,0,0,1,1.46-2.21c.85-.21,1.59-.89,2.38-1a36.54,36.54,0,0,1-1.71,5,5.93,5.93,0,0,0-1,.85,2.37,2.37,0,0,0-.69,1.26A153.49,153.49,0,0,0,394,97.51c-1.88,3.16-2.94,6.9-4.5,10.17-.22.46-.42.92-.61,1.4-1.57,4-2,8.38-4,12.2a13.5,13.5,0,0,0-2.52-1.34,10.27,10.27,0,0,0-10.63,2.39,9.1,9.1,0,0,0-6.72,1.22,8.93,8.93,0,0,0-3,3.65,7.35,7.35,0,0,0-.53,3.24,7.78,7.78,0,0,0-2.86,4.33,13.4,13.4,0,0,0,2.68,10.33h60.21a19.27,19.27,0,0,1-2.32-3.77c-1.29-2-.41-4.71-.55-7,1.23-2.47,2.48-5,3.88-7.38.28-.49.57-1,.86-1.44l2.76-1.06c1.46,0,2.69-1,4.09-.68,1.87,1.88,1.87-1.87,3.68-2,4.23-.54,8.42-.13,10.8,3.44,0,.48.75.48.58.93-.55.16-1.06-.18-1.63-.18-2.59-.64-5.63-2.29-8.18-.82-.1.61-.23,1.24-.35,1.85a17,17,0,0,0-.3,1.9,10.39,10.39,0,0,1,4.32,3c.85-1.67,2.66-2.42,4.26-3,1.4.3,2.93.34,4.09,1.23,2.15,2,1.09,5.35.89,7.87,1.94,1.08,4.09,1.7,6.06,2.76a9.61,9.61,0,0,1-3.27,1.57l-3.27-.65c-.37-.27-1-.27-1.16-.75a16.9,16.9,0,0,0-3.09,4.19h46.67a25,25,0,0,0-2.18-3.78c-1-2-.58-4.84-.68-7l4.36-6.65c2.38,0,5.08-.92,7.66-.48a2,2,0,0,0,.38-.2c1.07-.74,1.4-2.46,3-2.25,2.85-.78,5,.52,7.19,1.81-.08.17-.15.32-.22.44-.9,1.44-2.58-.16-3.81.27-.51.55.24,1.19.34,1.81.44.61-.45.54-.75.64a2.32,2.32,0,0,1-2-.64c-.14-.18,0-.38-.31-.41a10.84,10.84,0,0,0-1.74,3.1,8.44,8.44,0,0,1,2.22,2.46c.78,1.12-.62,2-.89,3a.29.29,0,0,1-.51,0c-.72-.41-1.33-1.43-2.12-1.16-.68,3,.24,6.06-.17,9.1,1.33.31,2.9-.07,4.33,0l.58-6.41c.61-4.15,3.07-7.63,6-10.81,3.13-2.13,5.15,2.09,7.46,3.55.38.07.24.48.41.72,0,.68-.75.95-1.23,1.16-1.43.51-2.49-1.06-3.37-2-.85.92-1.23,2.14-2.21,2.86l.33.1a7.45,7.45,0,0,1,2.47,3.82,4.31,4.31,0,0,1-2.05,3.38,33.4,33.4,0,0,1-2.28-4.92c0,.08,0,.11-.1.18-1.88.51-2.38,2.62-2.7,4.32.11,1.68-1.15,2.36-.82,4h24.3c2.69-.4,5.55-.34,7.7-2.32a35.38,35.38,0,0,0,25.48-5.85,53.11,53.11,0,0,0,9.91-10.43,37.32,37.32,0,0,0,5.56-10.36,48.34,48.34,0,0,0,2.2-7.29c2.59-11.8,1.23-25-2.61-36.24Z"/><path id="path5166" class="cls-3" d="M423.09,135.84c1.33-.85,3.48-1.06,3.78-3a4.66,4.66,0,0,0-1.63-1.06l-1.4.4a17,17,0,0,1,.82-2.62l4.5-1.46a35.73,35.73,0,0,0-1.06,7c.4,3.48.92,7.19,2.69,10.08H426c-.54-3.2-3.89-5.52-2.86-9.26Z"/><path id="path5168" class="cls-3" d="M433.55,131.75h.27l3.27,3,.48-.1c-.27,3.48-.44,6.89-.48,10.49h-3.54c-.72-3.37-1.91-6.91-1.77-10.55a15.9,15.9,0,0,1,1.77-2.8Z"/><path id="path5170" class="cls-3" d="M440.84,135c.65-.84.92-2.28,2.21-2.45a3.5,3.5,0,0,1,2.46.82c1.19,1.5,0,3.41-.4,4.91a58.91,58.91,0,0,1-2.05,6.81h-3.44L440.84,135Z"/><path id="path5172" class="cls-3" d="M492.53,134c.74,1,1,2.25,2.11,3.11a6.47,6.47,0,0,0,.75-5.22l-1-1c1.26-.3,2.59-.41,3.85-.64-.54,1.8-1.57,3.44-1.4,5.55,0,3.07.55,6.14.82,9.33h-3.75c-1.36-3-2.72-5.85-2.62-9.33a8.24,8.24,0,0,1,1.23-1.81Z"/><path id="path5174" class="cls-2" d="M508.64,68.5c0,.89-.68,1.87-.1,2.63.82-.92,2.18-.89,3.27-1.3,3-.28,5.93.68,8.76,1.37-.72-1.13-1.2-2.39-2-3.41-1.57-.41-4,.68-4.22-1.64-1-.82-2.46-.24-3.45-.17a7.72,7.72,0,0,0-2.28,2.52Z"/><path id="path5176" class="cls-2" d="M404.51,39.08l-.05,0s0,0,0,0Z"/><path id="path5178" class="cls-2" d="M416.9,69.37l2-2a.46.46,0,0,1,.41.16l-.17,3.78a5.33,5.33,0,0,0,3.51,1.3c.1-1,.89-1.74,1.33-2.63.37-.71.14-1.77.88-2.27l.24.23c.24,1.13.17,2.39.75,3.37.07.55.17,1.23.23,1.71a8.57,8.57,0,0,0,4-.89,15.77,15.77,0,0,1,.57-3.54c.31-.41-.37-1.16.48-1.13.48,1,1.33,2.08,1.81,3.17a13.2,13.2,0,0,0,3.26-7.36c-.57-.78-1.46-.78-2.14-1.29-5.79-1.87-13.22-2.25-18.8.65A8.66,8.66,0,0,0,416.9,69.37Z"/><path id="path5180" class="cls-2" d="M362.75,133.31a51.62,51.62,0,0,0,.17,7.67,3.86,3.86,0,0,0,2.52,1.91l.17-1.74c.41-2.42-.89-5,.48-7a16.51,16.51,0,0,1,2.73,1.22,6,6,0,0,0-2.33-6.24l-3.74,4.21Z"/><path id="path5182" class="cls-2" d="M371.16,129.62c-1.32,4-2.31,8.9-.71,13.1a15.63,15.63,0,0,0,2.69-2c-.17-3.21-.61-6.62,1.29-9.29a6,6,0,0,1,3.44,3.68,6.29,6.29,0,0,0,1.06-5.31c.07-1.5-1.63-1.16-2.45-1.77.27-1.27.23-2.72,1.57-3.44L374,125A20,20,0,0,0,371.16,129.62Z"/><path id="path5184" class="cls-2" d="M379.58,141.39c.17.31,0,.86.35.93.5-2.87,2.82-4.72,4.09-7.25.6-.84.58-2,1.56-2.69,1.33,0,2.28,1,3.58,1.06.41.31-.21.58-.24.92-.27,2.32-1.16,4.24-1,6.63h.24a35.21,35.21,0,0,0,4.36-6.15l.23-1.94c.31-2.32-2.21-3.81-3.85-4.77l1.47-1.88-2.05-.71a9.27,9.27,0,0,0-6.2,3.1c-2.07,3.81-2.41,8.12-2.55,12.75Z"/><path id="path5186" class="cls-2" d="M388.75,121.17c.78.24,1.5-.4,2.27-.07,3.14,1.16,6.41,2.35,8.76,5l2.8,7.12,1.4-4.4-.92-2.38c-.79-1.7-2.93-1.56-4.4-1.63-.61-.69,0-1.47.24-2.12.71-2.42-2.25-2.28-3.44-3.27.07-1.46-1.7-1-2.7-1.09l-.33-.4a.69.69,0,0,0-1-.08c-.07-.1-.2-.17-.14-.34l-.74.17a4.79,4.79,0,0,0-1.81,3.51Z"/><path id="path5188" class="cls-2" d="M390.72,113.34a2.17,2.17,0,0,0,.71,1.15c1.54-.4,3-1.47,4.78-.81,2.28,2,4.66,4.12,7.43,5.2l1-.16c.6.2,1.28.23,1.69.92.38.92-.57,1.46-.87,2.21,1.52,1.13.92,3.13,1.87,4.49l2.45-3.26c-.58-1.44,0-3.89-2.21-4a2.14,2.14,0,0,1-1.23-2c-1.46-1.33-3.27-1.9-4.73-3.27-1.2-1-1.91-2.41-3.44-2.76a12.78,12.78,0,0,0-3.44-1.15C392.43,109.55,392.22,112.28,390.72,113.34Z"/><path id="path5190" class="cls-2" d="M394,106.62l.4.66c1.71-.11,3.24-.85,4.91-.82,1.12.68,2.59.64,3.74,1.22a12.84,12.84,0,0,0,3.27,3.54c2.76.41,4.29,3.38,5.24,5.56v-1.06a7.33,7.33,0,0,0-.57-4.5c-.68-.68-1.67-1.12-2.38-1.73a1.39,1.39,0,0,1,.1-1.06c-1.06-1.12-2.63-1.74-3.92-2.63-1.81-2.62-5.28-1.9-8-2.62L394,106.62Z"/><path id="path5192" class="cls-2" d="M393.94,81.63c.3,1.06.67,2.38.87,3.51.95-2.11,2.84-3.07,4.5-4.8a8.47,8.47,0,0,0-3.2-1.16v-.07C395.36,79.86,394.2,80.61,393.94,81.63Z"/><path id="path5194" class="cls-2" d="M400.13,92.84l1.53-1.56a9.69,9.69,0,0,0,3-5.39c-1.09-.64-2.52-.2-3.57.17a42.09,42.09,0,0,0-1,6.78Z"/><path id="path5196" class="cls-2" d="M401.25,97.65c2.35.13,4.64.61,6.54-.72l1.91-6.13c-.61,0-1.23-.32-1.8-.1A15,15,0,0,1,401.25,97.65Z"/><path id="path5198" class="cls-2" d="M401.94,75.91c1.53,2.25,4.09,4.76,6.71,5.48-.3-2.86-2.76-4.84-4-7.28l-.07-.82a12.59,12.59,0,0,0-3.2-2.12,16,16,0,0,0,.58,4.74Z"/><path id="path5200" class="cls-2" d="M410.24,97.92a12.21,12.21,0,0,0,5.42-.51c2.42-.59,3.75-3.24,4.57-5.32h-3l-3.26,3.2a25.1,25.1,0,0,0-3.69,2.63Z"/><path id="path5202" class="cls-2" d="M409.88,72.81a19.89,19.89,0,0,0,3.17,7.36l.4-5.08Z"/><path id="path5204" class="cls-2" d="M421.05,86.06c.2-1.7-.51-3.68-.71-5.41-1-.69-2.45-.62-3.51-1.3C416.9,82,419,84.32,421.05,86.06Z"/><path id="path5206" class="cls-2" d="M418,103.37a34,34,0,0,0,6.2-2.52c1.26-1.81,3.16-3.44,3.44-5.55-1.58.44-2.93-.08-4.4.65-.88,1.59-1.43,3.41-3.13,4.56C419.79,101.66,418.53,102.45,418,103.37Z"/><path id="path5208" class="cls-2" d="M421.28,107.56l2.56,3.34a5.17,5.17,0,0,0,4.26-.48l-.92-3A12,12,0,0,1,421.28,107.56Z"/><path id="path5210" class="cls-2" d="M425.54,83.44l1,4.49c2.38-1.93,2.87-4.76,2.8-7.76a10.52,10.52,0,0,1-3.79,3.27Z"/><path id="path5212" class="cls-2" d="M432.26,91.37a3.25,3.25,0,0,0,.57,1.78c2.66.95,2.93,4.18,5.39,5.41,1.59.72,3.44-.17,4.83-.82-1.05-1.19-2.24-2-3.27-3.27-.71-.3-1.43-.75-1.39-1.63l-6.13-1.47Z"/><path id="path5214" class="cls-2" d="M434.37,107.46a7.9,7.9,0,0,0,4.35,2.38c-.27-.37.18,0,.24-.24l-2-4.49c-1,0-2.08.24-3,.17A9.21,9.21,0,0,0,434.37,107.46Z"/><path id="path5216" class="cls-2" d="M438,86.47a26.59,26.59,0,0,1-1.63-7.36c-1,1.23-2.07,2-3,3.27C432.87,84.9,436.48,85.51,438,86.47Z"/><path id="path5218" class="cls-2" d="M442.13,84.15c1.24,1.61,3.92,1.06,5.42.58-.71-1.22-3-2-3.43-3.26a28.41,28.41,0,0,0-1.47-6.78C441.46,77.58,440,81,442.13,84.15Z"/><path id="path5220" class="cls-2" d="M444.28,91.37c3.41,2.49,6.75,5.39,11.51,4.33.34-.24.93-.21,1-.65-1.4-.88-2.89-1.57-4.32-2.38l-1.63-2.39h-.75a29.28,29.28,0,0,1-5.8,1.09Z"/><path id="path5222" class="cls-2" d="M444.35,119h.24c2.05-1.63,4.46-2.18,6.88-2.86.65.24.24,1,.82,1.23,1.47-.61,3.24-.48,4.74-1a10.28,10.28,0,0,1,4.73.88c1.17,1.54,3.34,1.37,4.84,2.39l-.24-2.39c-3.16-3.71-8.1-4-12.67-3.91l-.1-.48a8.13,8.13,0,0,0-3.34.72,17.65,17.65,0,0,0-4.26,1.22A40.78,40.78,0,0,0,444.35,119Z"/><path id="path5224" class="cls-2" d="M447.09,77.13c1.32,1.74,3.3,3.08,5.55,2.63-1.16-1.13-2.49-2.32-2.56-3.92.34-3-3-3.27-4.63-4.84C446,73.05,445.93,75.33,447.09,77.13Z"/><path id="path5226" class="cls-2" d="M446.74,125h.4c1.81-1.12,4.43-.26,6.2-1.46,1-.51,1.06.86,1.74,1.23,1.67,1,1.88,4.09,4.23,3.37,2.82,1.47,2.11,4.91,2.21,7.43l2.63-1.64c-.24-1.32.51-2.93-.35-4.08-.64-1.47-2.42-1.6-3.27-2.79,1-1.74-1.29-2.57-1.77-3.83l.14-.16,3.61.47a5.44,5.44,0,0,1,2.05,3.38c2.82.48,3.5,3.68,4.49,5.72.58-1.4.82-2.9,1.4-4.26,0-1.13-1.47-1.13-2.22-1.64a6,6,0,0,0-2.51-4.42c-3.14-.79-5.89-2.52-9.34-2.52l-2.86.88c-1.57.38-3.24-.1-4.43,1-1.78.13-1.91,2.08-2.35,3.33Z"/><path id="path5228" class="cls-2" d="M448.54,111l.65.31c1.4-.65,2.79-1.4,4.26-2,2.28-.64,4.05,2,6,.31.71-.51,1.33.24,1.87.65.83,1.5,2.73,1.4,4.17,1.8-.72-1.94-1.61-4.59-4.1-4.9-1-.44-2.14-.41-3.09-1-2.63-2.89-4.33,2.39-7.2,1.1C450,108.44,448.78,109.51,448.54,111Z"/><path id="path5230" class="cls-2" d="M449.19,127.59c1.09.92,2.21,2.49,3.92,2.29,2.11,1,1.22,3.78,2.38,5.25l1.23-1.1-.11-.07.18-.17.07.1a6.5,6.5,0,0,0-.72-4c-.78-.54-1.7,0-2.45-.48a3.46,3.46,0,0,0-1.57-2.31c-.54-.42-1.26.13-1.88.09l-1.05.42Z"/><path id="path5232" class="cls-2" d="M453.45,86.06c1.12,1.87,3.3,3,5,4.33a8.11,8.11,0,0,0,4.84.47,31.5,31.5,0,0,1-4-4c-.48-.69-.58-1.54-1.23-2.15-1.6.31-3.41.27-4.63,1.33Z"/><path id="path5234" class="cls-2" d="M455.33,73.87c1.56,1.94,4,1.16,6.2,1.23v-.24L458.12,72A9.21,9.21,0,0,0,455.33,73.87Z"/><path id="path5236" class="cls-2" d="M392.61,41.74l2,6.13c0-3.48,1.57-6.38,1.23-9.92l1.46-2.18-3.1,1A11.33,11.33,0,0,0,392.61,41.74Z"/><path id="path5238" class="cls-2" d="M393.94,31.11l2.69-1.57v-4c-1.13.68-1.74,1.85-2.63,2.76Z"/><path id="path5240" class="cls-2" d="M449.2,37.31a3.79,3.79,0,0,1-2.46,1.22,11.57,11.57,0,0,0,1-9.23,13.5,13.5,0,0,0,2.28-.82l-.07-.07,1.88-1.64c2.49-1.7,1.53-4.93,2.45-7.35-1.22-1.91-1.6-4.23-3.37-5.83l.1-.07c-1.4-1.77-3.92-1.56-5.82-2.45-2.53-.85-4.47.89-6.28,2-.78.14-.3,1.16-1.16,1.13a37.15,37.15,0,0,0-1.4,4c-3.37-.48-7-.1-9.7,1.8-1.44-1.06-3.17-1.26-4.84-1.73-1.23-.25-2.62.2-3.51-.48-1.29-1.46-1.57-4.12-3.79-4.5-.78-.27-.94-1.12-.94-1.87-1.47-.25-2.77-.93-4.19-1.23-2.18-1-3.92.58-5.56,1.63a17.22,17.22,0,0,0-2.21.82,31.58,31.58,0,0,0-3.17,6,12.59,12.59,0,0,0,1.87,4.74c.79,2.21,3.24,4,5.32,4.84a20,20,0,0,0,0,10.8l-.06,0-.11.1a1.74,1.74,0,0,1-.94-.1h0A14.85,14.85,0,0,0,409,47.62c.89.31.68,1.37,1.05,2.05a1.59,1.59,0,0,1,.18,1.22,26.82,26.82,0,0,0-14.32,3.58c-1.09.55-.61,2-.71,3.1A26.23,26.23,0,0,1,405,53.48c1.53-.09,3.26-.48,4.73-.07l.17,2.94c-4.05,2.12-8.48,3.34-11.95,6.82a13.48,13.48,0,0,0,.17,3.16l3.1-2.52a36.68,36.68,0,0,1,9.57-5.49,12,12,0,0,0,3.11,2.93,22.83,22.83,0,0,1,6.71-2.93c1.26-.75,3.27-.07,4.09-1.56l.57-3.1c-.09-.07-.16-.21-.34-.18a4.72,4.72,0,0,1-2.52-4.39,4.48,4.48,0,0,1-1.8.47c-.54-.13-1.06-.27-1.29-.82,0-.68-.38-1.7.31-2.21,2.21-1.36,5.07-1.43,7.86-1.23,2.08.28,5.08.18,5.8,2.63-.1.72,0,1.5-.75,2s-1.6,0-2.29-.35c-.54,1.67-1.46,3.55-3.33,4.09l.23,2c.23.88.31,2.35,1.71,2a30.14,30.14,0,0,1,8.92,4.26,19.67,19.67,0,0,0,2.38-3c5.05,1.72,9.41,5.49,13.57,9l.17-2.87A46.53,46.53,0,0,0,441,57.1a18,18,0,0,0,.42-2.8,33.61,33.61,0,0,1,15,4.59l-.06-2.45a33.28,33.28,0,0,0-15.47-4.25,1.72,1.72,0,0,1-.24-1.06c2.73-.44,4.67-3.26,5.32-5.72,1.4-1.6,3.41-3.34,2.93-5.72.06-.2.13-.41.2-.62a2.9,2.9,0,0,0,.14-1.76Z"/><path id="path5242" class="cls-2" d="M453.93,46.07l2.79-.89.32-1.57c.78-2.28-.89-4-1.71-5.79Z"/><path id="path5244" class="cls-2" d="M461,56.86c1.33,1.47,2.63,3.81,5,3.1a14.76,14.76,0,0,0-1.06-2.69c-.61-.72-.82-2.76-2-2.05-.92-.61-1.16-1.63-1.74-2.45a24.33,24.33,0,0,0-.14,4.09Z"/><path id="path5246" class="cls-2" d="M461.46,66.84c.51.72.65,1.64,1.16,2.29a5.59,5.59,0,0,0,3.41.41c1-.24,1.67.88,2.62.23-1.19-.75-1.9-2.11-3-3.1C464.29,65.62,462.86,66.54,461.46,66.84Z"/><path id="path5248" class="cls-2" d="M463.27,82.69c2.35,1.39,5.34,2.76,8.47,2.28.34-.17.93-.13,1-.54-1.94-.68-4-2.62-6-3-1.13-1.74-2.59.44-4,.3C462.72,82.11,463.13,82.41,463.27,82.69Z"/><path id="path5250" class="cls-2" d="M470.34,112.77l.52,1.09c.51,3.55,2.75,6.81,1.53,10.7,1,.72,1.33,1.91,2,2.86h.17c.78-3,.24-6-.17-9,.31-2.69-2.43-4.26-4-5.66Z"/><path id="path5252" class="cls-2" d="M470.93,77.88a7.6,7.6,0,0,0,6.64.82,20.78,20.78,0,0,1-3.78-2.45Z"/><path id="path5254" class="cls-2" d="M479.34,88.34a3.76,3.76,0,0,0,1.81,3.35,8,8,0,0,0,1.05-2.53,6.29,6.29,0,0,0-2.45-3.78,8.42,8.42,0,0,0-.41,3Z"/><path id="path5256" class="cls-2" d="M479.44,103.88c-.24,1.6,1.53,1.81,2.28,2.69s-.41,1.27-.41,2a9.19,9.19,0,0,1,2.05,5.79,56.82,56.82,0,0,0,1.57-6.2c-.14-1.5-2.52-1.19-2.15-2.86.68-1.7-.14-3.37-.58-4.91-.13-.23-.44-.71-.71-.57C480.87,101.19,479.34,102.18,479.44,103.88Z"/><path id="path5258" class="cls-2" d="M484.11,95.77l1.77,3.44c.78-.1,1.29-.85,1.9-1.4.48-1.43-.78-2.35-1.15-3.51-.31-.82,0-1.9-.58-2.62-.45-.27-.95-.72-1.46-.58l-.48,4.67Z"/><path id="path5260" class="cls-2" d="M486.39,86.71a9.9,9.9,0,0,1,3.75,3.57c1.19,3.48,3.1,6.61,4.49,10,.52,2.35.92,4.46,1.57,6.77.24.61.1,1.8,1.06,1.7.27-2.59.78-5.08.82-7.77a10.16,10.16,0,0,0-3-2.28v-.24c.14-.57.62-1.26,1.33-1.15.31-.34,1.23-.68.82-1.3-1.77-1.77-1.67-4.81-4.49-5.36a2.59,2.59,0,0,1-1.33-2.38,8,8,0,0,0-5-1.54Z"/><path id="path5262" class="cls-2" d="M488,105.17c1.74,1.6,1.13,3.92,1,6.07-.27,1.3,1.36.54,1.87,1.23,1.06,1.56.45,3.85.08,5.55a33.1,33.1,0,0,0,2.68-4.16c0-.58.72-.85.69-1.57.3-1-.85-.54-1.33-.65s-.85-.37-.71-.92c.87-1.7.06-3.74-.28-5.45-.41-1.4.17-3.27-.48-4.5-1.09,1.51-4.33,1.85-3.51,4.4Z"/><path id="path5264" class="cls-2" d="M491.2,81c3,3.07,5.25,6.14,8.52,9.11.06-1.33-.11-2.55-.17-3.85A9.23,9.23,0,0,0,497.43,84c-2.42-.23-3.68-3.49-6.23-3Z"/><path id="path5266" class="cls-2" d="M499.13,97.22a4.36,4.36,0,0,0,.35.88,45.5,45.5,0,0,1,3.51,6.79c-.28-2.53,1.43-5.66-.83-7.6-.3-.82-1.32-.55-2-.48l-1.06.41Z"/><path id="path5268" class="cls-2" d="M507.31,122.11c.95.44,2.18-.34,3.1-.89a2.83,2.83,0,0,1,2.22.72c.27.54,0,1.06.1,1.57a20.48,20.48,0,0,1,5.85,2.52l.58-.58c.14-1.46-1-2.52-2.11-3.34-.71-.41-1.77-.17-2.28-.82a3.61,3.61,0,0,0,.31-2,4.92,4.92,0,0,1-2.76-.88c-.58-.17-1.1-.65-1.57,0-1.7,1.15-1.81,2.86-3.44,3.68Z"/><path id="path5270" class="cls-2" d="M509.7,79.23a6.14,6.14,0,0,0,2.45-1.09c2.29-2.08,5.59-.68,8.25-.71a17.36,17.36,0,0,0-1.88-2.63,7.89,7.89,0,0,0-2.93-.81c-2.32-1.37-3.88.92-5.66,2a3.76,3.76,0,0,0-.23,3.2Z"/><path id="path5272" class="cls-2" d="M509.76,86.25c0-.11,0-.21.1-.24.31.27,0,.93.48,1.06a18.75,18.75,0,0,0,2.52-1.64c2.28,0,3.65-2.21,5.89-2.21,3.76.68,7.47,1.44,10.73,3.27-.23-2.21-2.14-4.23-4.08-5.21a2.78,2.78,0,0,0-2.73.82C520.39,83.53,521.58,80,520,80a17,17,0,0,1-6.55,1.15c-1.36.52-2.32,1.78-3.85,1.64A8.94,8.94,0,0,0,509.76,86.25Z"/><path id="path5274" class="cls-2" d="M511.33,93.84c.72.76,1.91.62,2.93.76l3-1.16c0-.54-.89-.68-.68-1.3.81-.92,1.93-.26,3-.64,1.43-.21,2.89-1.63,4.32-.58,0,.17.07.41-.07.58-.44,1.06.31,1.7,1.13,2.11,1.67.31,3.23,1.84,4.9,1.16a31.21,31.21,0,0,0-.88-4c-1.4-.24-2.39-1.4-3.68-1.88a2.78,2.78,0,0,1-2.05.89c-2.62-.62-5.76-2.25-8.41-.58-1,1.16-2.66.82-4,1.33A15.65,15.65,0,0,0,511.33,93.84Z"/><path id="path5276" class="cls-2" d="M512.46,114.1c-.21.58-.79,1.53.27,1.81,2.18.06,5-1.06,6.68.64.58.45.3,1.37.27,2l2.86,2.38a24.87,24.87,0,0,0,.82-4.26,4.72,4.72,0,0,0-1.74-2.86c-1.87,0-3-2.2-5-1.93-1-.23-2,.71-3,.71a17.4,17.4,0,0,0-1.15,1.56Z"/><path id="path5278" class="cls-2" d="M513.27,98c.44.93,1,2.43,1.81,2.52,2-.87,4.94-1.42,7.19-.47.75.14.75,1,.58,1.53,1.16.68,2.55,1.23,3.78,2l-.34-2c-.07-2.21-2.86-2.41-3-4.6a13.45,13.45,0,0,0-7.26-.4c-.78.71-1.91.61-2.86.81-.07.28.1.45.13.68Z"/><path id="path5280" class="cls-2" d="M513.85,109.08c1.33-.38,2.19-1.84,3.62-2a6.66,6.66,0,0,1,5.48,2.8c.82.54.65,1.94,1.71,1.94-.32-1.67.23-3.2.16-4.91-1.42-2.38-5-.54-6.3-3.34l-2.52.17c-1.81.45-1.33,2.56-1.56,4-.21.43-.62.77-.59,1.32Z"/><path id="path5282" class="cls-2" d="M526.36,124c1,2.11,3.38,3.72,3.61,6.13a11,11,0,0,0,1.29-2.11c0-.68-.82-.68-1.12-1.23-.31-.88.16-1.66.3-2.45a6.62,6.62,0,0,0-2.69-3.2L526.36,124Z"/><path id="path5284" class="cls-2" d="M530.55,118.6l2.45,3.34c1-1.67,1-4.13.65-6.14-.24-.37-.68-1-1.29-.71C531.44,116,531.3,117.51,530.55,118.6Z"/><path id="path5286" class="cls-2" d="M520.57,25.34a7.13,7.13,0,0,0,2.79.92,3.57,3.57,0,0,1,2.52-.41c1.26.82,2.8-.17,4.26-.1a15.43,15.43,0,0,0-4.26-2.69C524,23.46,522.44,24.83,520.57,25.34Z"/><path id="path5288" class="cls-2" d="M533.89,28.54c1.8.17,3.1,1.77,4.32,3.1a6.08,6.08,0,0,1,3.61,2.45l-.57-1.8a11.6,11.6,0,0,0-2.7-4.64A13,13,0,0,0,533.89,28.54Z"/><path id="path5290" class="cls-3" d="M406.74,13.59l1,.11c2.65,1.33,6.94,2,7.19,5.86a20.82,20.82,0,0,0-7.44,4.67c-1.63-1.67-4.94-.75-5.49-3.68C402.52,17.78,403.5,14.3,406.74,13.59Z"/><path id="path5292" class="cls-3" d="M409.3,30.87c3.11-.27,6.1.17,9.31-.1a4.1,4.1,0,0,1,2,1.8c-.11,3.68-1.23,7.19-1.4,11a5,5,0,0,0-3.1,3.27,27.55,27.55,0,0,0-3.62,1.7,3.63,3.63,0,0,1,.52-3.85c1.33-1.87,4.77-1.43,4.5-4.4.89-1.43,0-3.27.06-4.76-.34-1.13-.68.37-1.22.33a4.37,4.37,0,0,1-3.17-.24c-.71-.75-1.59-1.36-1.8-2.38A5.58,5.58,0,0,1,408.79,31l.51-.13Z"/><path id="path5294" class="cls-3" d="M413.05,53.08c1.46.21,3-.45,4.26.27a2.43,2.43,0,0,1-1.57.82l-2.29,1C412.61,55,413.08,53.66,413.05,53.08Z"/><path id="path5296" class="cls-3" d="M419,24.63c1.46-.47,3-1.46,4.6-1a22.2,22.2,0,0,0-2.86,4l-4.67-.11A6.69,6.69,0,0,1,419,24.63Z"/><path id="path5298" class="cls-3" d="M432.67,23.51c1.94-.34,1.84,2.18,3.61,2.28.31.4.76.78.58,1.39-1,.41-2.52.22-3.68.48-1.53-.85-.54-3.51-3-3.34-.14-.2-.4-.61-.07-.75A5.78,5.78,0,0,1,432.67,23.51Z"/><path id="path5300" class="cls-3" d="M431.45,32.63c.85-1.19,2.14-1.29,3.37-1.52l8.83.16c.37.35-.35.65-.35,1.06-.54.51-1.32.65-1.8,1.12-1.16,0-1.06,1.4-1.87,2-1.27,1.26-3.11.68-4.57.48a4,4,0,0,1-1.33-1.47l-.41.41c.51,1.91.38,4,.75,6l2.12,1.39c0,3.13,3.71,2.28,5.31,4a9.63,9.63,0,0,1-1.94,3,11.59,11.59,0,0,0-4.33-2.63c-.14-1.83-2.15-2.93-3.26-3.84-.32-3.35-.38-6.75-.92-10Z"/><path id="path5302" class="cls-3" d="M434.65,53.66h4.09l-.51,2.14-4.1-1.73c-.09-.34.28-.44.52-.41Z"/><path id="path5304" class="cls-3" d="M442,15.06l3-1a30.21,30.21,0,0,1,5,3c1.26,2.32,1.06,5.45.48,8-.92,1-2.93,0-3.68,1.64h-.14c-1.12-3.2-4.32-6.07-7.29-7.53.48-1.64,1-3.24,2.63-4.19Z"/></g></g></g></g></svg>