<svg width="189" height="33" xmlns="http://www.w3.org/2000/svg">
  <g fill="#191919" fill-rule="nonzero">
    <path d="M16.5375,16.5 L16.5375,24.75 L8.26875,33 L8.26875,24.75 L0,24.75 L8.26875,16.5 L16.5375,16.5 Z M33.075,16.5 L33.075,24.75 L24.80625,33 L24.80625,24.75 L16.5375,24.75 L24.80625,16.5 L33.075,16.5 Z M151.754345,10.2555664 C155.348986,10.2555664 157.146306,12.0166585 157.146306,15.5388428 L157.146306,15.5388428 L157.146306,24.75 L154.019524,24.75 L154.019524,22.5371094 L153.963937,22.5371094 L153.864204,22.7039368 C152.885344,24.289268 151.477952,25.0819336 149.64203,25.0819336 C148.243084,25.0819336 147.147552,24.7038981 146.355434,23.9478272 C145.563317,23.1917562 145.167257,22.1913452 145.167257,20.9465943 C145.167257,18.2726847 146.714435,16.7144409 149.808792,16.2718628 L149.808792,16.2718628 L154.033421,15.6771484 L154.03142,15.5198305 C153.982043,13.6054464 153.019198,12.6482544 151.142885,12.6482544 C149.447474,12.6482544 147.918825,13.2291382 146.556938,14.3909058 L146.556938,14.3909058 L146.556938,11.5833008 L146.783804,11.4538467 C148.231619,10.6549932 149.888466,10.2555664 151.754345,10.2555664 Z M114.194671,10.2555664 C116.41816,10.2555664 118.15063,10.905603 119.392078,12.2056763 C120.633526,13.5057495 121.25425,15.3083333 121.25425,17.6134277 C121.25425,19.8724203 120.584887,21.6819193 119.246161,23.0419251 C117.907435,24.4019307 116.107798,25.0819336 113.847251,25.0819336 C111.651555,25.0819336 109.898241,24.4203715 108.587309,23.0972473 C107.276376,21.7741231 106.62091,20.0199463 106.62091,17.8347168 C106.62091,15.4558594 107.30417,13.5979533 108.67069,12.2609986 C110.037209,10.9240438 111.878536,10.2555664 114.194671,10.2555664 Z M74.7394233,10.2555664 C76.6849764,10.2555664 78.1904641,10.8779419 79.2558861,12.1226928 C80.321308,13.3674438 80.8540193,15.0962646 80.8540193,17.3091553 L80.8540193,17.3091553 L80.8540193,18.5400757 L71.1540467,18.5400757 L71.162958,18.744316 C71.2347904,19.9548162 71.6371437,20.8963674 72.3700172,21.5689697 C73.1436066,22.2789388 74.2067121,22.6339233 75.5593349,22.6339233 C77.0787195,22.6339233 78.4730327,22.1821249 79.7422746,21.2785278 L79.7422746,21.2785278 L79.7422746,23.8648438 L79.5707317,23.9683769 C78.2954123,24.710748 76.6386536,25.0819336 74.6004552,25.0819336 C72.5066695,25.0819336 70.8645294,24.4388122 69.6740361,23.1525696 C68.4835428,21.8663269 67.8882962,20.0568278 67.8882962,17.7240722 C67.8882962,15.520402 68.5437624,13.7247335 69.8546947,12.3370667 C71.1656271,10.9493998 72.7938697,10.2555664 74.7394233,10.2555664 Z M48.8661717,4.91696777 L54.1052686,18.1251587 L54.1830907,18.3245647 C54.5376137,19.2390623 54.7710801,19.9286645 54.8834898,20.3933716 L54.8834898,20.3933716 L54.9529739,20.3933716 L55.0254358,20.1741994 C55.3351361,19.2421886 55.5889183,18.5407343 55.7867824,18.0698364 L55.7867824,18.0698364 L61.123157,4.91696777 L65.611826,4.91696777 L65.611826,24.75 L62.3321793,24.75 L62.3321793,11.9152344 L62.3333305,11.6684938 C62.3425401,10.6648366 62.4070086,9.46084077 62.5267347,8.05650633 L62.5267347,8.05650633 L62.4711475,8.05650633 L62.424523,8.25218024 C62.2396709,9.01752614 62.074554,9.57467698 61.9291717,9.92363283 L61.9291717,9.92363283 L55.9813377,24.75 L53.7022611,24.75 L47.7405301,10.0342774 L47.7018822,9.93026165 C47.5466327,9.49815876 47.383489,8.87357366 47.2124514,8.05650633 L47.2124514,8.05650633 L47.1568642,8.05650633 L47.1677037,8.17921806 C47.2345937,8.98026142 47.2680386,10.2348205 47.2680386,11.9428955 L47.2680386,24.75 L44.2107407,24.75 L44.2107407,4.91696777 L48.8661717,4.91696777 Z M135.962756,4.91696777 L136.211834,4.91934694 C138.021747,4.95424145 139.465054,5.37297558 140.541754,6.17554934 C141.667396,7.01460369 142.230217,8.10721843 142.230217,9.45339356 C142.230217,10.5782796 141.91059,11.5556396 141.271337,12.3854736 C140.632083,13.2153076 139.74732,13.8054118 138.617046,14.1557861 L138.617046,14.1557861 L138.617046,14.2111084 L138.843019,14.2404556 C140.109073,14.4250198 141.12928,14.920053 141.903642,15.7255554 C142.723553,16.5784404 143.133509,17.6871907 143.133509,19.0518066 C143.133509,20.7483561 142.46183,22.1221924 141.118472,23.1733155 C139.775114,24.2244385 138.079703,24.75 136.03224,24.75 L136.03224,24.75 L129.639707,24.75 L129.639707,4.91696777 L135.962756,4.91696777 Z M168.188425,10.2555664 C169.735603,10.2555664 170.916832,10.7557719 171.732111,11.7561829 C172.547391,12.7565938 172.95503,14.201888 172.95503,16.0920654 L172.95503,16.0920654 L172.95503,24.75 L169.73097,24.75 L169.73097,16.7697632 L169.729513,16.5913874 C169.687742,14.0640562 168.747877,12.8003906 166.909919,12.8003906 C165.927878,12.8003906 165.11723,13.1669006 164.477977,13.8999206 C163.838724,14.6329407 163.519097,15.5572835 163.519097,16.6729492 L163.519097,16.6729492 L163.519097,24.75 L160.281141,24.75 L160.281141,10.5875 L163.519097,10.5875 L163.519097,12.9386963 L163.574685,12.9386963 L163.679265,12.7683832 C164.739818,11.093172 166.242871,10.2555664 168.188425,10.2555664 Z M179.327821,3.78286133 L179.327821,17.0740356 L179.383408,17.0740356 L184.608609,10.5875 L188.485818,10.5875 L182.607468,17.4197998 L189,24.75 L184.914338,24.75 L179.383408,17.9453613 L179.327821,17.9453613 L179.327821,24.75 L176.089865,24.75 L176.089865,3.78286133 L179.327821,3.78286133 Z M99.7061438,10.2555664 C102.837558,10.2555664 104.403266,12.1780152 104.403266,16.0229126 L104.403266,16.0229126 L104.403266,24.75 L101.179206,24.75 L101.179206,17.0325439 L101.177454,16.801562 C101.156436,15.4361288 100.946251,14.4389488 100.546901,13.810022 C100.125365,13.1461548 99.4143113,12.8142212 98.4137411,12.8142212 C97.5706676,12.8142212 96.8549819,13.2337484 96.266684,14.0728027 C95.6783855,14.9118571 95.3842365,15.9168783 95.3842365,17.0878662 L95.3842365,17.0878662 L95.3842365,24.75 L92.1462802,24.75 L92.1462802,16.7697632 L92.1447617,16.5879238 C92.1022521,14.0721221 91.1670399,12.8142212 89.3391247,12.8142212 C88.4682581,12.8142212 87.7525724,13.2106974 87.1920675,14.0036499 C86.6315632,14.7966024 86.3513111,15.8246745 86.3513111,17.0878662 L86.3513111,17.0878662 L86.3513111,24.75 L83.127251,24.75 L83.127251,10.5875 L86.3513111,10.5875 L86.3513111,12.8280518 L86.4068983,12.8280518 L86.5112943,12.659411 C87.5355301,11.0568479 88.9969543,10.2555664 90.8955674,10.2555664 C91.8776085,10.2555664 92.7368946,10.5252624 93.4734252,11.0646546 C94.2099565,11.6040466 94.7125577,12.3117106 94.9812288,13.1876465 C96.0373868,11.2329265 97.6123581,10.2555664 99.7061438,10.2555664 Z M154.033421,17.7932251 L151.045608,18.2081421 L150.835881,18.2376446 C150.013255,18.3630199 149.386008,18.5767799 148.954138,18.8789246 C148.486278,19.206248 148.252349,19.7802165 148.252349,20.6008301 C148.252349,21.2001546 148.467749,21.6911397 148.898551,22.0737854 C149.329351,22.4564311 149.906069,22.6477539 150.628703,22.6477539 C151.610744,22.6477539 152.423708,22.3042949 153.067593,21.6173767 C153.711479,20.9304585 154.033421,20.0660482 154.033421,19.0241455 L154.033421,19.0241455 L154.033421,17.7932251 Z M114.000116,12.8142212 C112.740138,12.8142212 111.744201,13.2521891 111.012302,14.128125 C110.280403,15.0040609 109.914454,16.2119303 109.914454,17.7517334 C109.914454,19.2362142 110.285035,20.4048971 111.026199,21.257782 C111.767362,22.1106669 112.758667,22.5371094 114.000116,22.5371094 C115.269358,22.5371094 116.244451,22.1175822 116.925394,21.2785278 C117.606338,20.4394735 117.94681,19.2454346 117.94681,17.6964111 C117.94681,16.1381673 117.606338,14.9349081 116.925394,14.0866333 C116.244451,13.2383586 115.269358,12.8142212 114.000116,12.8142212 Z M135.323503,15.8431153 L132.933252,15.8431153 L132.933252,22.1221924 L135.754303,22.1221924 C136.986487,22.1221924 137.938419,21.8386658 138.610098,21.2716125 C139.281777,20.7045593 139.617616,19.9231323 139.617616,18.9273316 C139.617616,16.8711874 138.186245,15.8431153 135.323503,15.8431153 L135.323503,15.8431153 Z M33.075,0 L33.075,8.25 L24.80625,16.5 L24.80625,8.25 L16.5375,8.25 L24.80625,0 L33.075,0 Z M16.5375,0 L16.5375,8.25 L8.26875,16.5 L8.26875,8.25 L0,8.25 L8.26875,0 L16.5375,0 Z M74.6977329,12.6205932 C73.7712791,12.6205932 72.9861093,12.957137 72.3422235,13.6302246 C71.6983383,14.3033122 71.3022794,15.1838582 71.1540467,16.2718628 L71.1540467,16.2718628 L77.7411338,16.2718628 C77.7318692,15.1193156 77.4585652,14.2226339 76.9212222,13.5818176 C76.3838787,12.9410014 75.6427158,12.6205932 74.6977329,12.6205932 Z M135.3374,7.55860598 L132.933252,7.55860598 L132.933252,13.201477 L135.07336,13.201477 C136.222163,13.201477 137.123139,12.931781 137.776289,12.3923889 C138.429439,11.8529968 138.756014,11.0900106 138.756014,10.1034302 C138.756014,8.4068807 137.616476,7.55860598 135.3374,7.55860598 L135.3374,7.55860598 Z" id="Shape"></path></g></svg>
