<?xml version="1.0" encoding="utf-8"?>
<!-- Generator: Adobe Illustrator 22.1.0, SVG Export Plug-In . SVG Version: 6.00 Build 0)  -->
<svg version="1.1" id="Calque_1" xmlns="http://www.w3.org/2000/svg" xmlns:xlink="http://www.w3.org/1999/xlink" x="0px" y="0px"
	 viewBox="0 0 306.1 62.4" style="enable-background:new 0 0 306.1 62.4;" xml:space="preserve">
<style type="text/css">
	.st0{fill:#BAD606;}
</style>
<g>
	<path class="st0" d="M4.2,15h8.6v4.5h0.1c2.4-3.4,5.9-5.4,10.2-5.4c4.2,0,7.9,1.6,9.7,5.5c1.9-2.9,5.4-5.5,10-5.5
		C49.9,14.1,55,17.4,55,26v22.3h-9.1V29.5c0-4.5-0.4-8.1-5.6-8.1c-5.2,0-6.1,4.2-6.1,8.4v18.5h-9.1V29.6c0-3.9,0.3-8.3-5.5-8.3
		c-1.8,0-6.2,1.1-6.2,7.6v19.3h-9V14.9H4.2V15z"/>
	<path class="st0" d="M74.7,14.1C85.2,14.1,92,21,92,31.6c0,10.5-6.8,17.5-17.3,17.5c-10.4,0-17.2-6.9-17.2-17.5
		C57.6,21.1,64.3,14.1,74.7,14.1z M74.7,42.3c6.2,0,8.1-5.3,8.1-10.6S81,21,74.7,21c-6.2,0-8.1,5.3-8.1,10.7
		C66.7,36.9,68.6,42.3,74.7,42.3z"/>
	<path class="st0" d="M94.2,15h8.7v4.6h0.2c2.3-3.7,6.3-5.5,10.2-5.5c9.7,0,12.2,5.4,12.2,13.7v20.4h-9.1V29.4
		c0-5.4-1.6-8.2-5.9-8.2c-4.9,0-7.1,2.8-7.1,9.5v17.4h-9.1L94.2,15L94.2,15z"/>
	<path class="st0" d="M129.6,25.2c0.5-8.6,8.2-11.1,15.6-11.1c6.6,0,14.6,1.5,14.6,9.5v17.3c0,3,0.4,6,1.1,7.4h-9.3
		c-0.4-1.1-0.6-2.1-0.6-3.2c-2.9,3-7.1,4.1-11.2,4.1c-6.3,0-11.3-3.2-11.3-10c0-7.5,5.7-9.3,11.3-10.1c5.6-0.8,10.8-0.6,10.8-4.4
		c0-3.9-2.7-4.5-5.9-4.5c-3.5,0-5.7,1.4-6.1,5L129.6,25.2L129.6,25.2z M150.7,32c-1.6,1.3-4.7,1.4-7.6,1.9c-2.8,0.6-5.4,1.6-5.4,4.9
		c0,3.4,2.6,4.2,5.6,4.2c7.1,0,7.4-5.7,7.4-7.6V32L150.7,32z"/>
</g>
<g>
	<path d="M163.5,2.3h9.1V19h0.1c2.3-3.4,6.4-4.9,10.5-4.9c6.6,0,13.8,5.3,13.8,17.5s-7.1,17.5-13.8,17.5c-4.9,0-8.9-1.5-11-5.2h-0.1
		v4.2h-8.7L163.5,2.3L163.5,2.3z M180.1,21c-5.4,0-7.8,5.1-7.8,10.7c0,5.5,2.4,10.6,7.8,10.6s7.8-5.1,7.8-10.6
		C187.9,26.1,185.5,21,180.1,21z"/>
	<path d="M200,25.2c0.5-8.6,8.2-11.1,15.6-11.1c6.6,0,14.6,1.5,14.6,9.5v17.3c0,3,0.4,6,1.1,7.4H222c-0.4-1.1-0.6-2.1-0.6-3.2
		c-2.9,3-7.1,4.1-11.2,4.1c-6.3,0-11.3-3.2-11.3-10c0-7.5,5.7-9.3,11.3-10.1c5.6-0.8,10.8-0.6,10.8-4.4c0-3.9-2.7-4.5-5.9-4.5
		c-3.5,0-5.7,1.4-6.1,5L200,25.2L200,25.2z M221.1,32c-1.6,1.3-4.7,1.4-7.6,1.9c-2.8,0.6-5.4,1.6-5.4,4.9c0,3.4,2.6,4.2,5.6,4.2
		c7.1,0,7.4-5.7,7.4-7.6V32L221.1,32z"/>
	<path d="M234.1,15h8.7v4.6h0.2c2.3-3.7,6.3-5.5,10.2-5.5c9.7,0,12.2,5.4,12.2,13.7v20.4h-9.1V29.4c0-5.4-1.6-8.2-5.9-8.2
		c-4.9,0-7.1,2.8-7.1,9.5v17.4h-9.1L234.1,15L234.1,15z"/>
	<path d="M301.8,60h-9.1V44.1h-0.1c-2.1,3.6-6.5,5.1-10.5,5.1c-6.1,0-14.1-4.5-14.1-17.3c0-9.1,4.8-17.7,14.9-17.7
		c4.1,0,8.1,1.5,10.1,5.2h0.1v-4.2h8.7V60L301.8,60z M285.1,42.3c5.9,0,8-5,8-10.5c0-5.2-2.1-10.8-7.8-10.8c-5.9,0-8.1,5.3-8.1,10.7
		C277.2,37,279.1,42.3,285.1,42.3z"/>
</g>
</svg>
