<?xml version="1.0" encoding="UTF-8"?> <svg xmlns="http://www.w3.org/2000/svg" viewBox="0 0 362 61.9"><title>n26_3</title><g id="Calque_2" data-name="Calque 2"><g id="Calque_1-2" data-name="Calque 1"><g id="Calque_2-2" data-name="Calque 2"><g id="Calque_2-2-2" data-name="Calque 2-2"><path d="M134,51.4V10h15.48a19.38,19.38,0,0,1,7.61,1.23,9.84,9.84,0,0,1,4.49,3.87,10.37,10.37,0,0,1,1.64,5.48,9.25,9.25,0,0,1-1.46,5,10.5,10.5,0,0,1-4.33,3.81,10.7,10.7,0,0,1,5.76,3.75,9.89,9.89,0,0,1,2,6.18A12.32,12.32,0,0,1,164,44.81a10.79,10.79,0,0,1-3.09,3.84,12.37,12.37,0,0,1-4.55,2.07,28.13,28.13,0,0,1-6.65.68Zm5.48-24h9.07a18.56,18.56,0,0,0,5.2-.5,5.67,5.67,0,0,0,3.09-2,5.83,5.83,0,0,0,1-3.62,6.27,6.27,0,0,0-1-3.62A5,5,0,0,0,154,15.47a24.28,24.28,0,0,0-6.19-.55h-8.36Zm0,19.09h10.31a24.17,24.17,0,0,0,3.71-.09,9.35,9.35,0,0,0,3.1-1.14A6.33,6.33,0,0,0,158.7,43a7.49,7.49,0,0,0,.8-3.5,7,7,0,0,0-1.17-4A6.19,6.19,0,0,0,155,33.08a19.92,19.92,0,0,0-6.19-.71h-9.35Z"></path><path d="M191.88,51.4V47a11.08,11.08,0,0,1-9.54,5.08,12.07,12.07,0,0,1-5-1A8,8,0,0,1,174,48.5a9.58,9.58,0,0,1-1.58-3.75A28.18,28.18,0,0,1,172.1,40V21.42h5.08V38.07a30.88,30.88,0,0,0,.31,5.35,5.35,5.35,0,0,0,2,3,6.16,6.16,0,0,0,3.83,1.15,8.41,8.41,0,0,0,4.24-1.15,6.65,6.65,0,0,0,2.82-3.09,16.31,16.31,0,0,0,.84-5.88v-16h5.1v30Z"></path><path d="M202.24,42.46l5.11-.8a7.16,7.16,0,0,0,2.38,4.64,8.26,8.26,0,0,0,5.39,1.61,8,8,0,0,0,5.1-1.49,4.33,4.33,0,0,0,1.71-3.34,3.08,3.08,0,0,0-1.52-2.72,23,23,0,0,0-5.17-1.74,47.36,47.36,0,0,1-7.89-2.35,7.73,7.73,0,0,1-3.28-10.58,8.19,8.19,0,0,1,2.51-2.85,10.15,10.15,0,0,1,3.09-1.49,16,16,0,0,1,4.4-.62,17.15,17.15,0,0,1,6.18,1,8.36,8.36,0,0,1,3.94,2.75,10.65,10.65,0,0,1,1.73,4.64l-5,.68A5.43,5.43,0,0,0,219,26.21a7.2,7.2,0,0,0-4.58-1.3,8.41,8.41,0,0,0-5,1.18,3.36,3.36,0,0,0-1.48,2.69,2.81,2.81,0,0,0,.62,1.8,4.69,4.69,0,0,0,1.95,1.36c.52.18,2,.62,4.48,1.3a61.24,61.24,0,0,1,7.52,2.35,7.36,7.36,0,0,1,3.35,2.66,7.47,7.47,0,0,1,1.2,4.33,8.44,8.44,0,0,1-1.45,4.8,9.55,9.55,0,0,1-4.3,3.47,15.35,15.35,0,0,1-6.19,1.24,14,14,0,0,1-9-2.57A11.21,11.21,0,0,1,202.24,42.46Z"></path><path d="M233.22,15.88V10h5.08v5.85Zm0,35.52v-30h5.08v30Z"></path><path d="M246,51.4v-30h4.65v4.27a10.86,10.86,0,0,1,9.56-5,12.81,12.81,0,0,1,4.89.93,8,8,0,0,1,3.4,2.54A10.25,10.25,0,0,1,270.11,28a28.89,28.89,0,0,1,.28,4.92V51.47h-5.08V33.18a13.53,13.53,0,0,0-.61-4.65,4.82,4.82,0,0,0-2.11-2.47,6.71,6.71,0,0,0-3.53-.9,8.29,8.29,0,0,0-5.6,2A10.22,10.22,0,0,0,251.11,35V51.4Z"></path><path d="M298.71,41.75l5.23.65a13,13,0,0,1-4.58,7.12,14.07,14.07,0,0,1-8.61,2.53,13.75,13.75,0,0,1-10.43-4,15.83,15.83,0,0,1-3.83-11.36,16.59,16.59,0,0,1,3.9-11.76,13.15,13.15,0,0,1,10.09-4.15,12.93,12.93,0,0,1,9.71,4A16.25,16.25,0,0,1,304,36.27v1.36H281.62a11.59,11.59,0,0,0,2.82,7.55,8.22,8.22,0,0,0,6.19,2.63,7.64,7.64,0,0,0,4.92-1.39A9.53,9.53,0,0,0,298.71,41.75ZM282,33.55h16.71a10.16,10.16,0,0,0-1.92-5.7,7.83,7.83,0,0,0-6.19-2.94,8.16,8.16,0,0,0-5.88,2.35A9.27,9.27,0,0,0,282,33.55Z"></path><path d="M308.3,42.46l5-.8a7,7,0,0,0,2.36,4.76A8.33,8.33,0,0,0,321.08,48a8.13,8.13,0,0,0,5.2-1.42A4.29,4.29,0,0,0,328,43.26a3.11,3.11,0,0,0-1.48-2.72,23.36,23.36,0,0,0-5.2-1.73,46.6,46.6,0,0,1-7.74-2.42,7.64,7.64,0,0,1-3.68-10.16c.07-.14.14-.28.22-.42A7.89,7.89,0,0,1,312.54,23a10.81,10.81,0,0,1,3.13-1.61,15.84,15.84,0,0,1,4.39-.62,17.39,17.39,0,0,1,6.19,1,8.52,8.52,0,0,1,3.93,2.75A11.43,11.43,0,0,1,332,29.15l-5,.68A5.35,5.35,0,0,0,325,26.21a7.27,7.27,0,0,0-4.61-1.3,8.29,8.29,0,0,0-5,1.18,3.4,3.4,0,0,0-1.49,2.69,2.79,2.79,0,0,0,.62,1.8,4.69,4.69,0,0,0,1.95,1.36c.5.18,2,.62,4.49,1.3a61.78,61.78,0,0,1,7.52,2.35,7.34,7.34,0,0,1,3.34,2.66,7.48,7.48,0,0,1,1.21,4.33,8.46,8.46,0,0,1-1.49,4.8,9.55,9.55,0,0,1-4.27,3.47,15.28,15.28,0,0,1-6.19,1.24,14,14,0,0,1-8.91-2.45A11.13,11.13,0,0,1,308.3,42.46Z"></path><path d="M337.33,42.46l5-.8a7,7,0,0,0,2.36,4.64,8.32,8.32,0,0,0,5.41,1.61,8.14,8.14,0,0,0,5.2-1.43A4.29,4.29,0,0,0,357,43.14a3.09,3.09,0,0,0-1.48-2.72,24.65,24.65,0,0,0-5.2-1.74,46.57,46.57,0,0,1-7.74-2.41,7.64,7.64,0,0,1-3.68-10.16q.11-.22.21-.42a7.93,7.93,0,0,1,2.48-2.85,10.76,10.76,0,0,1,3.09-1.49,16,16,0,0,1,4.4-.62,17.39,17.39,0,0,1,6.19,1,8.52,8.52,0,0,1,3.93,2.75,11.41,11.41,0,0,1,1.76,4.64l-5,.68A5.43,5.43,0,0,0,354,26.21a7.29,7.29,0,0,0-4.61-1.3,8.27,8.27,0,0,0-5,1.18,3.37,3.37,0,0,0-1.49,2.69,2.69,2.69,0,0,0,.62,1.8,4.69,4.69,0,0,0,1.95,1.36c.49.18,2,.62,4.49,1.3a62.33,62.33,0,0,1,7.52,2.35,7.39,7.39,0,0,1,3.34,2.66A7.48,7.48,0,0,1,362,42.58a8.54,8.54,0,0,1-1.49,4.8,9.61,9.61,0,0,1-4.27,3.47,15.28,15.28,0,0,1-6.19,1.24,14,14,0,0,1-8.91-2.45A11.13,11.13,0,0,1,337.33,42.46Z"></path><path d="M5,19.28,27.51,52.39h4.12V9.28h-5V42.06L5,10l-.62-.75H0V52.61H5ZM64.5,35.13C72.08,30.51,75.08,26.58,75.08,21A12.07,12.07,0,0,0,63.6,8.38a10.7,10.7,0,0,0-1.7,0A15.12,15.12,0,0,0,48,17.52l-.77,1.67,4.51,2.07.87-1.61a10.21,10.21,0,0,1,9.29-6.19,7.23,7.23,0,0,1,8,6.35A6.33,6.33,0,0,1,70,21c0,3.1-1.33,5.82-8,9.88C50.17,38.19,47.57,41.41,47.23,49.21V52.3H75.08V47.44H52.39C52.86,43.33,54.62,41.16,64.5,35.13Zm38.71-10.81a17.53,17.53,0,0,0-10.37,3.75c.78-9.28,4.86-14.76,11.27-14.76a10.42,10.42,0,0,1,7.58,3.09l1.42,1.24,3.25-3.81L115,12.38a15.83,15.83,0,0,0-10.86-4.12c-10.09,0-16.37,8.85-16.37,23.09,0,16,8,21.66,15.47,21.66a14.17,14.17,0,0,0,14.34-14c0-.22,0-.44,0-.66C117.6,27.85,109.86,24.32,103.21,24.32Zm9.28,14a9.28,9.28,0,0,1-8.61,9.92l-.67,0c-4.21,0-9.28-3.59-10.27-13.59a14.63,14.63,0,0,1,10.3-5.44,8.45,8.45,0,0,1,9.33,7.47,8.77,8.77,0,0,1,0,1.62ZM0,58H31.69V61.9H0ZM0,0H31.57V3.71H0Z"></path></g></g></g></g></svg> 