<?xml version="1.0" encoding="UTF-8"?> <svg xmlns="http://www.w3.org/2000/svg" viewBox="0 0 216.69 52.1"><defs><style>.cls-1{fill:#1c1c1f;}.cls-2{fill:#1e1e21;}.cls-3{fill:#1d1d1f;}.cls-4{fill:#1d1d20;}</style></defs><title>prismea</title><g id="Calque_2" data-name="Calque 2"><g id="Calque_1-2" data-name="Calque 1"><path class="cls-1" d="M143.32,25.13c0,3.43-.07,6.87,0,10.3,0,1.8,0,2.9-2.44,2.88s-2.26-1.09-2.24-2.74c.06-6,0-12,.07-18,0-.91-.88-2.64,1-2.65s3.88-1.11,4.93,1.73c1.72,4.63,3.8,9.12,5.73,13.67.13.31.27.62.69,1.55,2.26-5.37,4.3-10.2,6.33-15,.48-1.14,1-1.95,2.55-2.06,2.73-.2,3.67.49,3.53,3.44-.27,6-.16,12,0,18,0,1.93-.78,2.11-2.32,2.06s-2.53.06-2.44-2a58.83,58.83,0,0,0-.51-11c-1.45,3.44-2.88,6.88-4.34,10.31-.56,1.31-.73,2.79-2.9,2.74s-2.12-1.56-2.63-2.72c-1.54-3.48-3-7-4.43-10.53Z"></path><path class="cls-2" d="M172.48,26.33c0-3.19.06-6.38,0-9.56,0-1.44.38-2,1.89-1.94,3.47.09,6.94.13,10.4,0,2.07-.08,1.63,1.23,1.67,2.39s.21,2.28-1.61,2.12c-1.58-.13-3.2.13-4.77-.06-2.37-.29-3,.58-2.93,2.91.08,1.78.62,2.34,2.29,2.12a20.88,20.88,0,0,1,2.24,0c1.43,0,2.71-.3,2.61,2-.08,2-.6,2.73-2.55,2.43a11.77,11.77,0,0,0-1.68,0c-2.62,0-3.74,1.78-2.8,4.28.38,1,1.17.76,1.86.77a58,58,0,0,0,5.9,0c1.85-.16,1.67,1,1.65,2.1s.29,2.46-1.71,2.4c-3.56-.12-7.12-.08-10.68,0-1.34,0-1.8-.46-1.78-1.8C172.53,33.07,172.48,29.7,172.48,26.33Z"></path><path class="cls-1" d="M122.27,38.54a8.09,8.09,0,0,1-6.51-2.74c-.72-.87-2.47-2-.88-3.36,1.18-1,2.64-2.09,4,.2a3.85,3.85,0,0,0,3.73,1.54c1.39-.07,2.58-.56,2.86-2.17a2.49,2.49,0,0,0-1.7-2.87c-2-.9-4-1.67-5.86-2.65-2.46-1.27-3.24-3.47-3-6.12A5.68,5.68,0,0,1,119,15.2c3.37-1.16,6.47-.77,9,1.89.67.7,2.19,1.55,1.09,2.6s-2.4,2.7-4,.37a3.23,3.23,0,0,0-3.29-1.17c-1,.19-2,.61-2.22,1.84a2.2,2.2,0,0,0,1.28,2.55c1.42.67,2.93,1.19,4.37,1.84,4.11,1.83,5.75,4.49,5,8C129.54,36.27,126.18,38.56,122.27,38.54Z"></path><path class="cls-1" d="M101,26.51c0-3.28.11-6.56,0-9.84-.09-1.88.89-1.88,2.23-1.83s2.56-.3,2.52,1.86q-.18,9.84,0,19.68c0,2.17-1.27,1.77-2.56,1.85s-2.27-.08-2.19-1.88C101.08,33.07,101,29.79,101,26.51Z"></path><path class="cls-1" d="M22.5.85c-.85-.26-1.87,0-2.56-.8C13.86.05,7.78.13,1.71,0,.11,0,0,.49,0,1.82.05,18.57,0,35.31,0,52.05H1.45c2.71,0,2.71,0,2.71-2.79v-30c0-.9-.32-1.91,1.29-1.87,3.78.1,7.57,0,11.36.08a4.14,4.14,0,0,1,4.13,4.33,4.23,4.23,0,0,1-4.23,4.27,17.91,17.91,0,0,1-2.43,0c-1.25-.13-1.74.19-1.72,1.6.08,7.64.1,15.29,0,22.93,0,1.84,1,1.51,2,1.47s2.43.59,2.22-1.49c-.16-1.53.13-3.12-.08-4.65-.27-2,.56-2.51,2.47-2.73C29.37,42,36.9,33.72,37.72,23A21.85,21.85,0,0,0,22.5.85ZM33.29,24.66A17.16,17.16,0,0,1,18.93,39c-1.57.26-2.48.07-2.19-1.82a8.33,8.33,0,0,0,0-2.23c-.33-2.7-.1-4.54,3.34-5.38,3.72-.9,5.7-5.53,4.92-9.39a8.39,8.39,0,0,0-8.19-7.07c-3.73,0-7.45,0-11.17,0-1.11,0-1.56-.24-1.51-1.44.1-2,.09-3.93,0-5.89,0-1.09.35-1.4,1.39-1.37,2.17.07,4.33,0,6.5,0,4.11,0,8.24-.28,12.1,1.74A17.59,17.59,0,0,1,33.29,24.66Z"></path><path class="cls-1" d="M89.05,31.85c-1-1.39-1.33-2.27.31-3.62,2.54-2.07,2.61-5.11,1.82-8a6.85,6.85,0,0,0-5.51-5c-2.7-.62-5.42-.14-8.12-.36-1.59-.13-2.1.43-2.08,2,.08,6.37.12,12.74,0,19.11,0,2,.78,2.22,2.46,2.28,1.89.07,2.28-.58,2.35-2.37S79,31.43,81,30.63c3.2-1.26,3.89,2.17,4.93,4.08,1.52,2.8,3.33,4.35,7,3.17C91.55,35.77,90.39,33.74,89.05,31.85Zm-7-5.53c-3.32.11-1.23-2.38-1.91-3.38.29-1.63-1-3.91,2.29-3.63,3,.25,4.46,1.13,4.5,3.43C87,25.25,85.49,26.21,82,26.32Z"></path><path class="cls-3" d="M207.79,15.76c-.68-1.67-2.29-.64-3.46-.89s-1.71.32-2.1,1.31q-4.08,10.26-8.19,20.5c-.19.48-.59,1,.08,1.44.95.63,4.47-.08,4.67-1.11.57-3.09,2.65-3.25,5.13-3.06a47.22,47.22,0,0,0,4.76,0c.89,0,1.71,0,1.92,1.14.66,3.56,3.14,3.45,6.09,2.87C213.71,30.54,210.79,23.13,207.79,15.76Zm-6.07,14c1.05-2.77,2.08-5.53,3.38-9,1.3,3.4,2.32,6.07,3.44,9Z"></path><path class="cls-4" d="M60.38,15.08c-2.49-.34-5.05-.1-7.57-.25-1.54-.09-1.9.55-1.86,2,.08,3.19,0,6.37,0,9.56s.08,6.56,0,9.84c-.06,1.59.45,2,2,2.09,2.08.09,2.92-.47,2.66-2.64-.17-1.48-.48-3.23.12-4.44.82-1.65,2.85-.53,4.33-.77,4.27-.69,6.94-3.39,7-7.42A7.4,7.4,0,0,0,60.38,15.08ZM57.66,26.31c-4,0-1.49-3-2-4.56-.6-1.86.39-2.82,2.16-2.41,3.26.07,4.63,1.2,4.61,3.58S61,26.31,57.66,26.31Z"></path></g></g></svg> 