<svg width="121px" height="28px" viewBox="0 0 121 28" xmlns="http://www.w3.org/2000/svg" data-testid="logo-svg" class="styles__StyledSvg-a7znz5-1 ccHFrG"><defs><linearGradient id="logo0_line" x1="-6.6752" y1="149.299" x2="34.9995" y2="-97.5341" gradientUnits="userSpaceOnUse"><stop offset="0.202987" stop-color="#0D59EC"></stop><stop offset="0.742913" stop-color="#008FE1"></stop><stop offset="0.930486" stop-color="#20AFFF"></stop></linearGradient><linearGradient id="logo1_line" x1="-6.6752" y1="149.299" x2="34.9995" y2="-97.5341" gradientUnits="userSpaceOnUse"><stop offset="0.202987" stop-color="#0D59EC"></stop><stop offset="0.742913" stop-color="#008FE1"></stop><stop offset="0.930486" stop-color="#20AFFF"></stop></linearGradient><linearGradient id="logo2_line" x1="-6.6752" y1="149.299" x2="34.9995" y2="-97.5341" gradientUnits="userSpaceOnUse"><stop offset="0.202987" stop-color="#0D59EC"></stop><stop offset="0.742913" stop-color="#008FE1"></stop><stop offset="0.930486" stop-color="#20AFFF"></stop></linearGradient><linearGradient id="logo3_line" x1="-6.6752" y1="149.299" x2="34.9995" y2="-97.5341" gradientUnits="userSpaceOnUse"><stop offset="0.202987" stop-color="#0D59EC"></stop><stop offset="0.742913" stop-color="#008FE1"></stop><stop offset="0.930486" stop-color="#20AFFF"></stop></linearGradient><linearGradient id="logo4_line" x1="-6.6752" y1="149.299" x2="34.9995" y2="-97.5341" gradientUnits="userSpaceOnUse"><stop offset="0.202987" stop-color="#0D59EC"></stop><stop offset="0.742913" stop-color="#008FE1"></stop><stop offset="0.930486" stop-color="#20AFFF"></stop></linearGradient><linearGradient id="logo5_line" x1="-6.6752" y1="149.299" x2="34.9995" y2="-97.5341" gradientUnits="userSpaceOnUse"><stop offset="0.202987" stop-color="#0D59EC"></stop><stop offset="0.742913" stop-color="#008FE1"></stop><stop offset="0.930486" stop-color="#20AFFF"></stop></linearGradient><linearGradient id="logo6_line" x1="-6.6752" y1="149.299" x2="34.9995" y2="-97.5341" gradientUnits="userSpaceOnUse"><stop offset="0.202987" stop-color="#0D59EC"></stop><stop offset="0.742913" stop-color="#008FE1"></stop><stop offset="0.930486" stop-color="#20AFFF"></stop></linearGradient></defs><path id="logo0" d="M78.3568 10.035C76.3334 8.25726 73.8909 7.38842 71.0667 7.38842C68.2815 7.38842 65.839 8.25869 63.8141 10.035C61.7907 11.7741 60.7624 14.1948 60.7624 17.2958C60.7624 20.3967 61.7907 22.8161 63.8141 24.5937C65.8375 26.3329 68.2815 27.2031 71.0667 27.2031C73.8909 27.2031 76.3334 26.3329 78.3568 24.5937C80.4191 22.8161 81.4474 20.3967 81.4474 17.2958C81.4474 14.1948 80.4177 11.7741 78.3568 10.035ZM67.2518 21.2656C66.1846 20.2453 65.6474 18.9206 65.6474 17.2958C65.6474 15.6696 66.1803 14.3463 67.2518 13.3631C68.3189 12.3428 69.5805 11.8512 71.0653 11.8512C72.5515 11.8512 73.8506 12.3428 74.9192 13.3631C76.0238 14.3463 76.5609 15.6696 76.5609 17.2958C76.5609 18.922 76.0281 20.2453 74.9192 21.2656C73.852 22.2487 72.553 22.7403 71.0653 22.7403C69.5805 22.7403 68.3218 22.2487 67.2518 21.2656Z"></path><path id="logo1" d="M88.664 26.6724V0.724404H83.8553V26.6724H88.664Z"></path><path id="logo2" d="M104.186 7.91679V18.27C104.186 20.765 102.825 22.4184 100.234 22.4184C97.6 22.4184 96.275 20.7665 96.275 18.27V7.91679H91.4577V19.0645C91.4577 23.383 94.2055 27.2013 100.234 27.2013H100.271C106.263 27.2013 109.006 23.2987 109.006 19.0645V7.91679H104.186Z"></path><path id="logo3" d="M55.6434 7.91679L50.8347 20.6221L46.026 7.91679H40.912L48.5852 26.6726H53.09L60.7617 7.91679H55.6434Z"></path><path id="logo4" d="M40.9368 16.7656C40.9368 14.0433 40.0598 11.8126 38.3417 10.035C36.6235 8.25726 34.4129 7.38842 31.7025 7.38842C28.9173 7.38842 26.5496 8.33443 24.6025 10.1864C22.6929 12.0399 21.741 14.3834 21.741 17.2958C21.741 20.2081 22.6943 22.5903 24.5651 24.4423C26.4748 26.2957 28.7646 27.2031 31.4735 27.2031C35.6356 27.2031 38.5735 25.3883 40.3636 21.72L36.7776 19.6779C35.5967 21.9844 33.8772 23.119 31.5499 23.119C28.6883 23.119 26.6649 21.3042 26.3595 18.4304H40.9354V16.7656H40.9368ZM31.547 11.0181C34.2559 11.0181 36.0518 12.53 36.5083 14.9508H26.3567C27.0839 12.7201 29.0656 11.0181 31.547 11.0181Z"></path><path id="logo5" d="M21.7411 26.6727L15.2892 15.4807C19.3706 14.006 21.394 11.4352 21.394 7.69116C21.3983 3.11545 17.7317 0.203125 11.8933 0.203125H0.484375V26.6727H5.52205V15.9337H9.79788L15.979 26.6727H21.7411ZM11.8933 4.58877C14.8701 4.58877 16.3592 5.76056 16.3592 8.06699C16.3592 10.3734 14.8687 11.5452 11.8933 11.5452H5.52205V4.58877H11.8933Z"></path><path id="logo6" d="M117.158 27.2015C114.063 27.2015 111.553 24.7136 111.553 21.6426V2.84968H116.361V7.9241H120.484V11.781H116.361V21.3368C116.361 22.2371 117.097 22.9659 118.007 22.9659H120.484V27.2015H117.158Z"></path></svg>