<?xml version="1.0" encoding="UTF-8"?> <svg xmlns="http://www.w3.org/2000/svg" viewBox="0 0 227.01 51.09"><defs><style>.cls-1{fill:#22252f;}.cls-2{fill:#21262e;}.cls-3{fill:#aaaeb4;}.cls-4{fill:#fefefe;}.cls-5{fill:#fdfdfd;}</style></defs><title>revolut_2</title><g id="Calque_2" data-name="Calque 2"><g id="Calque_1-2" data-name="Calque 1"><path class="cls-1" d="M128.13,51.09c-.45-.75-1.3-.68-2-.94-8.4-3.19-12.72-10.45-12.07-19.39,1.07-14.87,17.49-20.76,29.07-14.89,7.44,3.77,11,10.89,9.84,19.61-1,7.82-6.51,13.58-14.52,15.27-.14,0-.25.22-.37.34Z"></path><path class="cls-2" d="M53.71,51.09c-.13-.56-.67-.55-1.05-.69C43.38,47,38.54,37.76,40.86,27.88A18.43,18.43,0,0,1,61,13.75c9.24.9,15.48,7.85,15.64,17.39,0,3.52,0,3.52-3.45,3.52-7.48,0-14.95.05-22.42,0-1.62,0-1.78.43-1.37,1.83,1.06,3.71,3.37,6.16,7.17,6.89,4.34.83,8.09-.33,10.81-4,1.59-2.17,1.59-2.17,3.94-.81.5.28,1,.59,1.48.87,3,1.74,3,1.72,1,4.67-2.55,3.76-6.22,5.83-10.47,7.06Z"></path><path class="cls-1" d="M183.36,51.09c-.7-.85-1.82-.78-2.72-1.2-5.61-2.63-8.38-7.18-8.53-13.23-.17-6.9,0-13.81-.1-20.71,0-1.19.46-1.36,1.46-1.33,2,.07,4,.11,5.95,0,1.31-.07,1.73.27,1.71,1.65-.09,5.63,0,11.25,0,16.88a17.13,17.13,0,0,0,.14,2.68c.68,4.52,3.5,6.73,8.14,6.42,4.06-.27,6.6-3.05,6.64-7.42q.09-9.3,0-18.61c0-1.23.28-1.66,1.57-1.6,2.17.11,4.35,0,6.52,0,.62,0,1.12,0,1.1.87-.16,7.67.52,15.36-.32,23-.73,6.56-4.77,10.63-11.2,12.23-.14,0-.24.23-.35.36Z"></path><path class="cls-1" d="M217.51,51.09c-5.61-2.33-7.73-6.6-7.61-12.56.2-10.59.07-21.19,0-31.79,0-1.28.22-1.83,1.65-1.74,2.1.13,4.21.07,6.32,0,.94,0,1.19.29,1.17,1.19-.06,2.37,0,4.73,0,7.09,0,1.06.24,1.46,1.35,1.41,1.72-.08,3.45,0,5.17,0,1-.05,1.34.29,1.3,1.29q-.09,2.49,0,5c0,.83-.23,1.12-1.08,1.09-1.85-.05-3.7,0-5.55,0-.93,0-1.19.3-1.19,1.21,0,5.55,0,11.11,0,16.66,0,2.24,1.2,3.37,3.43,3.51h.19c1.37.16,3.2-.65,4,.38.65.85.16,2.58.15,3.92,0,1.15-.07,2.29-.11,3.44Z"></path><path class="cls-3" d="M.41,50.3l-.41,0V.07H.4A3.48,3.48,0,0,1,1,2.62Q1,25.2,1,47.76A3.49,3.49,0,0,1,.41,50.3Z"></path><path class="cls-1" d="M.41,50.3Q.41,25.19.4.08c8,0,16.1-.23,24.13.08C30,.37,35,2.3,37.94,7.37c4.1,7,1.32,15.91-6,20-1.18.66-3.19.72-3.35,2.05-.14,1,1.18,2.29,1.84,3.45L40.18,50s0,.12-.11.35c-3.23,0-6.53,0-9.82,0-1.06,0-1.2-.84-1.55-1.45C25.29,43,21.89,37.11,18.55,31.17a2,2,0,0,0-2-1.27,50.44,50.44,0,0,1-5.36,0c-1.23-.06-1.48.43-1.47,1.56.05,5.74,0,11.49.06,17.24,0,1.34-.32,1.74-1.67,1.68C5.52,50.26,3,50.32.41,50.3Z"></path><path class="cls-1" d="M76.67,14.64c2.94,0,5.63,0,8.31,0,1,0,1.4.35,1.74,1.28,2.5,6.81,5.08,13.59,7.64,20.39.27.71.55,1.41,1,2.49,1.83-4.85,3.52-9.35,5.22-13.85,1.14-3,2.31-6.08,3.41-9.14a1.43,1.43,0,0,1,1.62-1.17c2.74.08,5.49,0,8.47,0-1.64,4.09-3.2,8.05-4.8,12-3,7.38-6.07,14.73-9,22.13-.52,1.32-1.17,1.78-2.48,1.61-.5-.06-1,0-1.53,0-1.72-.05-3.8.48-5-.31s-1.42-2.87-2-4.4Q83.18,31,77.23,16.26C77.05,15.8,76.9,15.32,76.67,14.64Z"></path><path class="cls-2" d="M157.66,25.75c0-7.74,0-15.47,0-23.21,0-1.23.29-1.68,1.58-1.61a46,46,0,0,0,5.75,0c1.58-.12,1.88.49,1.88,2-.06,14.77,0,29.54,0,44.3,0,3.18,0,3.23-3.22,3.16-2,0-4.57.87-5.66-.41-.95-1.11-.25-3.66-.26-5.57Z"></path><path class="cls-4" d="M143.88,32.55a10.31,10.31,0,1,1-20.61-.06,10.31,10.31,0,1,1,20.61.06Z"></path><path class="cls-5" d="M49.22,28c1.64-4.91,6-7.89,10.51-7.4,4.91.53,7.86,3.13,8.36,7.4Z"></path><path class="cls-4" d="M17.61,21.55c-2.61,0-4.65,0-6.69,0-.9,0-1.25-.23-1.24-1.18,0-3.58.05-7.16,0-10.73,0-1,.3-1.37,1.31-1.34,4.34.11,8.7-.2,13,.18,4.73.42,7.13,3.89,5.95,8.48-.63,2.46-2.4,3.63-4.71,4.22C22.55,21.87,19.78,21.37,17.61,21.55Z"></path></g></g></svg> 