<?xml version="1.0" encoding="UTF-8"?> <svg xmlns="http://www.w3.org/2000/svg" viewBox="0 0 179.21 52.2"><defs><style>.cls-1{fill:#5bc2fe;}.cls-2{fill:#fe418a;}.cls-3{fill:#5dc3fe;}.cls-4{fill:#3cefc8;}.cls-5{fill:#f9d66c;}.cls-6{fill:#f9d870;}.cls-7{fill:#5469fb;}.cls-8{fill:#c70546;}.cls-9{fill:#5cc2fe;}.cls-10{fill:#586cf9;}.cls-11{fill:#e94e95;}.cls-12{fill:#596ffb;}.cls-13{fill:#f9d66b;}.cls-14{fill:#566afb;}.cls-15{fill:#fb4b8e;}.cls-16{fill:#ebf7fe;}</style></defs><title>shine_3</title><g id="Calque_2" data-name="Calque 2"><g id="Calque_1-2" data-name="Calque 1"><path class="cls-1" d="M144.17,33.64c.57-9.26,6-14.67,14.51-16.44,7.9-1.63,14.4,1.2,18.23,8.79-2.34,2.26-7,3.07-5,8-5,2.71-11.36,2-16.71,5.78,5.58,4.71,10.29,4.16,14.92-.26,2.39-2.26,5.33-4.29,7.92-1.15,2.84,3.45,0,6.27-2.55,8.61-9.75,8.87-23.6,6.09-29.93-6C150,37.66,149.28,35.24,144.17,33.64Z"></path><path class="cls-2" d="M115.51,18.84c12.55-4.07,21.69,1.91,22.49,14.84.25,4,.07,8.07.08,12.1,0,3.06-.85,6-4.29,6.08-4.07.12-4.83-3.08-4.81-6.48,0-3.1-.07-6.2,0-9.31.1-3.88-.23-7.62-4.29-9.48-3.9-1.78-6.37.94-8.87,3.29C112.54,26.29,112.72,22.6,115.51,18.84Z"></path><path class="cls-3" d="M57.84,18.5c11.91-3.23,20.5,2.1,22,14,.53,4.27.22,8.66.19,13,0,3.37-1,6.52-5,6.32-3.53-.18-4.13-3.12-4.1-6.15,0-3.41.13-6.83,0-10.23-.42-9-4-10.89-12.69-6.92C55,25.27,55,21.93,57.84,18.5Z"></path><path class="cls-4" d="M3.77,7.21C14.89-2,26.85-2.4,35.49,6.08c2.4,2.36,4.46,5.18,2,8.05-1.83,2.16-5,2-7.62,0-5.41-4-11.1-5.29-17.16-1.31a2.29,2.29,0,0,1-2.37.45C7.74,11.72,5.17,10.1,3.77,7.21Z"></path><path class="cls-1" d="M11.55,12.84a9.31,9.31,0,0,1,1.18,0C18.85,21.92,30.1,25.63,35.92,35c-1.43,3-4.17,4.19-7.08,5.15a4.28,4.28,0,0,1-2.47-.57C19.3,30.78,8.07,26.32,2,16.4,4.69,13.82,8,13,11.55,12.84Z"></path><path class="cls-5" d="M26.37,39.61c.4,0,.81-.07,1.21-.08a13,13,0,0,1,7.9,5.52C24.55,54.21,12.4,54.59,3.81,46.1c-2-2-4.51-4.36-2.82-7.17,2-3.28,5.46-2.31,8.22-.65C14.77,41.63,20.26,44.1,26.37,39.61Z"></path><path class="cls-6" d="M97.07,34.54c0,4.05.06,8.09,0,12.13,0,2.69-.85,5-4,5.25-2.72.18-4.07-2-4.33-4.07a105.84,105.84,0,0,1,0-26.91c.29-2.15,1.7-4.14,4.43-3.91S96.91,19.1,97,21.49c.11,4.34,0,8.7,0,13.05Z"></path><path class="cls-7" d="M57.84,18.5l.3,10c-.13,5.81-.29,11.62-.39,17.43-.07,3.45-1.08,6.19-5.12,6.07-3.74-.11-4.2-2.88-4.16-5.86q.14-9.18.25-18.36c1.87-4.25,2.23-10,9.17-9.24Z"></path><path class="cls-8" d="M115.51,18.84q.17,5.52.32,11c0,5.52-.12,11.05-.14,16.57,0,3.18-1.27,5.6-4.64,5.59s-4.65-2.4-4.59-5.61c.11-6.13.19-12.26.28-18.39,1.06-4.18,2.07-8.4,7.18-9.52A4.14,4.14,0,0,1,115.51,18.84Z"></path><path class="cls-9" d="M57.89,18.55c-4.22,1.93-6.46,5.82-9.17,9.24-.08-7.14-.18-14.28-.24-21.42,0-2.95.33-6,4-6.17,4.18-.24,5,2.85,5.07,6.24C57.7,10.47,57.79,14.51,57.89,18.55Z"></path><path class="cls-10" d="M35.48,45.05c-3.95.05-6.19-2.36-7.9-5.53,2.69-1.65,4.81-4.37,8.34-4.49C41.18,38.6,40.36,41.91,35.48,45.05Z"></path><path class="cls-11" d="M11.55,12.84A9.33,9.33,0,0,1,2,16.4C-1.67,12.53.15,9.7,3.77,7.21A8.89,8.89,0,0,1,11.55,12.84Z"></path><path class="cls-12" d="M144.17,33.64c2.75,1.63,7.48-5.29,8.66,1.59.86,5-3.32,5.76-7.29,5.8C143.36,38.89,143.63,36.29,144.17,33.64Z"></path><path class="cls-13" d="M92.89,1.8c2.59-.09,4,1.05,4,3.75,0,2.1-.93,3.6-3.06,3.85-2.41.28-4.26-.63-4.48-3.34C89.16,3.58,90.13,1.91,92.89,1.8Z"></path><path class="cls-14" d="M171.89,34c-7-8.1-.56-7.8,5-8C178.07,30.44,176.67,33.28,171.89,34Z"></path><path class="cls-15" d="M113.92,18.52q-3.58,4.76-7.18,9.52C106.45,16.44,106.52,16.35,113.92,18.52Z"></path><path class="cls-16" d="M164.89,26.92c-2.41,3.1-5.75,3.11-9.24,3.39C159,26.21,159,26.21,164.89,26.92Z"></path></g></g></svg> 