<svg width="96" height="28" viewBox="0 0 96 28" fill="none" xmlns="http://www.w3.org/2000/svg">
<mask id="mask0" mask-type="alpha" maskUnits="userSpaceOnUse" x="0" y="18" width="21" height="10">
<path fill-rule="evenodd" clip-rule="evenodd" d="M17.1482 19.367C17.0034 19.4599 16.8678 19.5669 16.743 19.6914C16.6206 19.8134 16.5266 19.9455 16.3959 20.0788C10.9346 25.1559 6.14611 21.8105 4.46014 20.3117C4.36087 20.211 4.27201 20.1162 4.17084 20.0154C4.05723 19.9021 3.93462 19.8034 3.80608 19.7171C2.85922 19.0835 1.56766 19.1828 0.732335 20.0154C-0.185689 20.9302 -0.213382 22.393 0.643694 23.3443C0.667299 23.3773 0.694774 23.4038 0.722031 23.4309C11.0287 33.5846 20.2348 23.125 20.2348 23.125C21.1844 22.1789 21.131 20.6377 20.1815 19.6914C19.7071 19.2186 19.0856 18.9825 18.4639 18.9825C18.0058 18.9825 17.5477 19.1106 17.1482 19.367Z" fill="white"/>
</mask>
<g mask="url(#mask0)">
<path d="M-0.410553 28.2979H21.3531V18.5502H-0.410553V28.2979Z" fill="#FAD668"/>
</g>
<mask id="mask1" mask-type="alpha" maskUnits="userSpaceOnUse" x="0" y="0" width="22" height="10">
<path fill-rule="evenodd" clip-rule="evenodd" d="M0.860719 4.95785C-0.0887049 5.904 -0.0887049 7.43837 0.860719 8.38452C1.68471 9.20573 2.95249 9.31312 3.89401 8.70904C4.03886 8.6161 4.17444 8.50903 4.29922 8.38452C4.42161 8.26257 4.55517 8.14733 4.68578 8.01404C10.147 2.937 14.8781 6.27437 16.5641 7.77325C16.6634 7.8741 16.7703 7.9598 16.8715 8.0606C16.9851 8.17388 17.1077 8.27266 17.2362 8.35884C18.1831 8.99252 19.4746 8.89319 20.3099 8.0606C21.228 7.14579 21.2556 5.68305 20.3986 4.73167C20.375 4.69874 20.3475 4.67219 20.3202 4.64515C16.954 1.32893 13.7102 0.212254 10.8689 0.212036C5.01053 0.2116 0.860719 4.95785 0.860719 4.95785Z" fill="white"/>
</mask>
<g mask="url(#mask1)">
<path d="M-0.283539 9.52573H21.4529V-0.220154H-0.283539V9.52573Z" fill="#36F0C7"/>
</g>
<mask id="mask2" mask-type="alpha" maskUnits="userSpaceOnUse" x="0" y="4" width="22" height="20">
<path fill-rule="evenodd" clip-rule="evenodd" d="M2.72496 4.15527C2.0396 4.15527 1.35561 4.42572 0.853148 4.96067C-0.107234 5.98331 -0.0531009 7.61242 0.973025 8.56953C2.96569 10.9271 3.07412 11.5377 8.26406 15.6753C14.6031 20.7287 15.073 21.4487 16.7029 23.241C17.7315 24.2007 19.3611 24.1469 20.3239 23.1215C21.2868 22.0964 21.2328 20.4723 20.204 19.5129C17.7186 16.9927 17.6341 16.5109 12.279 12.409C12.2092 12.3554 12.1357 12.2981 12.0686 12.2414C6.39334 7.46572 6.80188 7.4788 4.47427 4.84117C3.98233 4.38244 3.35318 4.15527 2.72518 4.15527C2.72507 4.15527 2.72507 4.15527 2.72496 4.15527Z" fill="white"/>
</mask>
<g mask="url(#mask2)">
<path d="M-0.265503 24.3593H21.4445V3.72308H-0.265503V24.3593Z" fill="#58C2FF"/>
</g>
<mask id="mask3" mask-type="alpha" maskUnits="userSpaceOnUse" x="14" y="18" width="8" height="6">
<path fill-rule="evenodd" clip-rule="evenodd" d="M17.2615 19.3293C17.2614 19.3291 17.2614 19.329 17.2614 19.329C17.2606 19.3293 17.2601 19.33 17.2593 19.3307C17.1167 19.4222 16.9813 19.5293 16.8564 19.6538C16.734 19.7758 16.6399 19.9079 16.5094 20.0411C15.9115 20.5968 15.4623 20.9499 14.8838 21.3173L16.7028 23.241C17.7209 24.1906 19.3252 24.1444 20.2915 23.1497C20.3287 23.1096 20.3483 23.0874 20.3483 23.0874C20.3603 23.0755 20.3677 23.0612 20.3793 23.049C20.9324 22.416 21.1234 21.5792 20.9483 20.8077C20.9463 20.8008 20.9437 20.7941 20.9418 20.7872C20.9129 20.6653 20.8696 20.5471 20.8231 20.43C20.6997 20.148 20.5248 19.8828 20.2948 19.6538C19.8204 19.181 19.1988 18.9448 18.5771 18.9448C18.119 18.9448 17.661 19.0729 17.2615 19.3293Z" fill="white"/>
</mask>
<g mask="url(#mask3)">
<path d="M14.4516 24.3576H21.4433V18.5126H14.4516V24.3576Z" fill="#5465FC"/>
</g>
<mask id="mask4" mask-type="alpha" maskUnits="userSpaceOnUse" x="0" y="4" width="7" height="6">
<path fill-rule="evenodd" clip-rule="evenodd" d="M0.875597 4.94123C0.86682 4.95104 0.860769 4.95786 0.860769 4.95786C0.830023 4.98833 0.80898 5.02426 0.780306 5.05604C0.25037 5.6769 0.0644213 6.48601 0.224258 7.23863C0.242139 7.31245 0.264326 7.38511 0.289294 7.45724C0.304667 7.50717 0.320203 7.55656 0.33852 7.60541C0.457089 7.88845 0.629791 8.15442 0.860769 8.38458C1.68476 9.20579 2.95249 9.31318 3.89401 8.70911C4.03885 8.61605 4.17449 8.50898 4.29922 8.38458C4.4216 8.26263 4.55516 8.14739 4.68583 8.0141C5.27426 7.46694 5.60593 7.18586 6.17468 6.82122L4.47426 4.84125C3.98298 4.38306 3.35502 4.15649 2.72816 4.15649C2.05175 4.15644 1.37664 4.42018 0.875597 4.94123Z" fill="white"/>
</mask>
<g mask="url(#mask4)">
<path d="M-0.263367 9.52578H6.60688V3.72424H-0.263367V9.52578Z" fill="#FF3C87"/>
</g>
<mask id="mask5" mask-type="alpha" maskUnits="userSpaceOnUse" x="26" y="9" width="17" height="19">
<path fill-rule="evenodd" clip-rule="evenodd" d="M26.1109 17.5702C26.1109 17.6307 26.116 17.6901 26.1174 17.7503V25.4293C26.1156 25.4655 26.1066 25.4996 26.1066 25.5363C26.1066 26.7668 27.1075 27.7643 28.3423 27.7643C29.577 27.7643 30.5779 26.7668 30.5779 25.5363C30.5779 25.5053 30.57 25.4766 30.5689 25.4461H30.5756V17.7061H30.5751V17.4998C30.5751 15.4366 32.2689 13.7488 34.3391 13.7488C36.4093 13.7488 38.103 15.4366 38.103 17.4998V22.6598C38.103 22.6716 38.1013 22.683 38.1013 22.6948V24.825C38.102 24.8245 38.1026 24.824 38.1035 24.8236V25.4461H38.118C38.1165 25.479 38.108 25.5099 38.108 25.5433C38.108 26.7738 39.1091 27.7713 40.3438 27.7713C41.5785 27.7713 42.5796 26.7738 42.5796 25.5433C42.5796 25.483 42.5665 25.4264 42.5617 25.3672V17.7061H42.5286C42.5295 17.6606 42.5335 17.616 42.5335 17.5702C42.5335 13.0505 38.8572 9.3869 34.3223 9.3869C29.7873 9.3869 26.1109 13.0505 26.1109 17.5702Z" fill="white"/>
</mask>
<g mask="url(#mask5)">
<path d="M25.6744 28.2034H43.0118V8.95471H25.6744V28.2034Z" fill="#58C2FF"/>
</g>
<mask id="mask6" mask-type="alpha" maskUnits="userSpaceOnUse" x="26" y="0" width="5" height="28">
<path fill-rule="evenodd" clip-rule="evenodd" d="M26.1041 2.30381V25.5359C26.1041 26.7679 27.1156 27.7761 28.352 27.7761C29.5885 27.7761 30.5999 26.7679 30.5999 25.5359V2.30381C30.5999 1.07156 29.5885 0.0635376 28.352 0.0635376C27.1156 0.0635376 26.1041 1.07156 26.1041 2.30381Z" fill="white"/>
</mask>
<g mask="url(#mask6)">
<path d="M25.6719 28.2083H31.0321V-0.368652H25.6719V28.2083Z" fill="#58C2FF"/>
</g>
<mask id="mask7" mask-type="alpha" maskUnits="userSpaceOnUse" x="26" y="10" width="5" height="18">
<path fill-rule="evenodd" clip-rule="evenodd" d="M26.111 17.5701C26.111 17.6308 26.116 17.6902 26.1173 17.7503V25.4294C26.1156 25.4655 26.1065 25.4996 26.1065 25.5362C26.1065 26.7667 27.1076 27.7644 28.3423 27.7644C29.577 27.7644 30.5779 26.7667 30.5779 25.5362C30.5779 25.5053 30.5701 25.4766 30.5688 25.446L30.5756 17.7063L30.575 17.4999C30.575 17.3589 30.5847 17.2201 30.6 17.083V10.2825C27.9378 11.6358 26.111 14.3876 26.111 17.5701Z" fill="white"/>
</mask>
<g mask="url(#mask7)">
<path d="M25.6743 28.1965H31.0322V9.85028H25.6743V28.1965Z" fill="#5465FC"/>
</g>
<mask id="mask8" mask-type="alpha" maskUnits="userSpaceOnUse" x="47" y="0" width="6" height="6">
<path fill-rule="evenodd" clip-rule="evenodd" d="M47.6546 2.97378V3.15608C47.6546 4.35954 48.6795 5.38087 49.9602 5.38087C51.1679 5.38087 52.1926 4.35954 52.1926 3.15608V2.97378C52.1926 1.69716 51.1679 0.712463 49.9602 0.712463C48.6795 0.712463 47.6546 1.69716 47.6546 2.97378Z" fill="white"/>
</mask>
<g mask="url(#mask8)">
<path d="M47.2224 5.81306H52.6248V0.280334H47.2224V5.81306Z" fill="#FAD668"/>
</g>
<mask id="mask9" mask-type="alpha" maskUnits="userSpaceOnUse" x="47" y="9" width="6" height="19">
<path fill-rule="evenodd" clip-rule="evenodd" d="M47.6546 11.4625V25.5403C47.6546 26.7802 48.6795 27.8016 49.9602 27.8016C51.1679 27.8016 52.1926 26.7802 52.1926 25.5403V11.4625C52.1926 10.2223 51.1679 9.23785 49.9602 9.23785C48.6795 9.23785 47.6546 10.2223 47.6546 11.4625Z" fill="white"/>
</mask>
<g mask="url(#mask9)">
<path d="M47.2224 28.2337H52.6248V8.80566H47.2224V28.2337Z" fill="#FAD668"/>
</g>
<mask id="mask10" mask-type="alpha" maskUnits="userSpaceOnUse" x="57" y="8" width="5" height="10">
<path fill-rule="evenodd" clip-rule="evenodd" d="M57.3456 11.0371L57.3363 17.2631C57.4877 15.4425 58.354 13.6236 59.5171 12.2772C60.1771 11.5133 60.9512 10.8477 61.8186 10.318C61.5015 9.45705 60.6599 8.84894 59.6649 8.84894C58.3894 8.84894 57.3456 9.83363 57.3456 11.0371Z" fill="white"/>
</mask>
<g mask="url(#mask10)">
<path d="M56.9041 17.6953H62.2508V8.41675H56.9041V17.6953Z" fill="#FF3C87"/>
</g>
<mask id="mask11" mask-type="alpha" maskUnits="userSpaceOnUse" x="57" y="9" width="17" height="19">
<path fill-rule="evenodd" clip-rule="evenodd" d="M57.3282 17.5804C57.3282 17.6409 57.3333 17.7002 57.3347 17.7605L57.3206 25.4381C57.3188 25.4744 57.3239 25.5099 57.3239 25.5465C57.3239 26.777 58.3248 27.7744 59.5596 27.7744C60.7943 27.7744 61.7952 26.777 61.7952 25.5465C61.7952 25.5156 61.7873 25.4868 61.7862 25.4562H61.7929V17.7163H61.7924V17.51C61.7924 15.4469 63.4862 13.7589 65.5564 13.7589C67.6266 13.7589 69.3203 15.4469 69.3203 17.51V22.6701C69.3203 22.6818 69.3186 22.6932 69.3186 22.705V24.8352C69.3193 24.8347 69.32 24.8342 69.3208 24.8338V25.4562H69.3353C69.3338 25.4892 69.3254 25.5201 69.3254 25.5535C69.3254 26.7841 70.3264 27.7815 71.5612 27.7815C72.7959 27.7815 73.7969 26.7841 73.7969 25.5535C73.7969 25.4932 73.7837 25.4366 73.779 25.3774V17.7163H73.746C73.7468 17.6708 73.7508 17.6261 73.7508 17.5804C73.7508 13.0608 70.0745 9.39709 65.5396 9.39709C61.0046 9.39709 57.3282 13.0608 57.3282 17.5804Z" fill="white"/>
</mask>
<g mask="url(#mask11)">
<path d="M56.888 28.2137H74.2291V8.9649H56.888V28.2137Z" fill="#FF3C87"/>
</g>
<mask id="mask12" mask-type="alpha" maskUnits="userSpaceOnUse" x="57" y="10" width="5" height="18">
<path fill-rule="evenodd" clip-rule="evenodd" d="M57.3282 17.5803C57.3282 17.641 57.3333 17.7001 57.3347 17.7605L57.3206 25.438C57.3188 25.4743 57.3239 25.5098 57.3239 25.5464C57.3239 26.7769 58.3249 27.7746 59.5596 27.7746C60.7943 27.7746 61.7952 26.7769 61.7952 25.5464C61.7952 25.5155 61.7875 25.4868 61.7862 25.4562H61.7929V17.7164H61.7924V17.5099C61.7924 17.369 61.8018 17.2304 61.8173 17.0932V10.2926C59.1551 11.646 57.3282 14.3978 57.3282 17.5803Z" fill="white"/>
</mask>
<g mask="url(#mask12)">
<path d="M56.888 28.2067H62.2495V9.86047H56.888V28.2067Z" fill="#C60143"/>
</g>
<mask id="mask13" mask-type="alpha" maskUnits="userSpaceOnUse" x="77" y="19" width="19" height="9">
<path fill-rule="evenodd" clip-rule="evenodd" d="M93.0806 19.76C92.5455 19.9028 92.1154 20.2259 91.8148 20.6361C91.1079 21.8553 89.9393 22.8055 88.47 23.1979C86.096 23.8319 83.6692 22.817 82.3962 20.858L77.9682 22.0405C79.4198 25.5402 82.9729 27.7669 86.8858 27.7756H86.9316C87.8192 27.7737 88.7252 27.6576 89.6287 27.4163C92.278 26.7087 94.3961 25.0559 95.6941 22.961C95.8655 22.6402 95.9646 22.2823 95.9676 21.9125V21.879C95.9662 21.7021 95.9427 21.5227 95.8945 21.3435C95.6246 20.3396 94.7026 19.6797 93.6897 19.6796C93.4888 19.6796 93.2843 19.7056 93.0806 19.76Z" fill="white"/>
</mask>
<g mask="url(#mask13)">
<path d="M77.536 28.2078H96.3998V19.2474H77.536V28.2078Z" fill="#58C2FF"/>
</g>
<path d="M81.1544 17.3178L82.1256 20.9296L92.0349 18.2835L91.0638 14.6718L81.1544 17.3178Z" fill="#58C2FF"/>
<mask id="mask14" mask-type="alpha" maskUnits="userSpaceOnUse" x="77" y="9" width="18" height="14">
<path fill-rule="evenodd" clip-rule="evenodd" d="M84.2819 9.5111C79.2622 10.8515 76.2834 15.9934 77.6283 20.9958C77.7257 21.3578 77.8484 21.7056 77.9841 22.0454L82.4034 20.8653C82.2309 20.5431 82.0886 20.1992 81.9896 19.8313C81.2901 17.2293 82.8394 14.5547 85.4504 13.8575C87.1165 13.4125 88.8099 13.8834 90.0008 14.9564L94.7475 13.689C93.0482 10.9091 89.9945 9.18958 86.72 9.18958C85.915 9.18958 85.0967 9.29353 84.2819 9.5111Z" fill="white"/>
</mask>
<g mask="url(#mask14)">
<path d="M76.8733 22.4775H95.1798V8.75739H76.8733V22.4775Z" fill="#58C2FF"/>
</g>
<mask id="mask15" mask-type="alpha" maskUnits="userSpaceOnUse" x="77" y="17" width="6" height="6">
<path fill-rule="evenodd" clip-rule="evenodd" d="M77.3109 18.3441C77.2901 19.218 77.3864 20.1086 77.6248 20.9956C77.7214 21.3551 77.843 21.7007 77.9777 22.0385L82.3961 20.8585C82.2253 20.5383 82.0844 20.1964 81.9861 19.831C81.733 18.8897 81.7778 17.9399 82.0572 17.0766L77.3109 18.3441Z" fill="white"/>
</mask>
<g mask="url(#mask15)">
<path d="M76.8759 22.4707H82.8283V16.6444H76.8759V22.4707Z" fill="#5465FC"/>
</g>
<mask id="mask16" mask-type="alpha" maskUnits="userSpaceOnUse" x="90" y="13" width="6" height="6">
<path fill-rule="evenodd" clip-rule="evenodd" d="M90.0025 14.9558C90.6776 15.5642 91.1929 16.3642 91.446 17.3058C91.5443 17.6711 91.5937 18.0373 91.6065 18.3998L92.7101 18.1053C92.7237 18.0999 92.7359 18.0974 92.7482 18.095L92.8236 18.0748C94.4582 17.6167 95.4244 15.9334 94.9835 14.2942C94.9285 14.0892 94.8537 13.8946 94.7622 13.7117C94.7577 13.7041 94.7536 13.6958 94.7491 13.6882L90.0025 14.9558Z" fill="white"/>
</mask>
<g mask="url(#mask16)">
<path d="M89.5704 18.832H95.5223V13.2561H89.5704V18.832Z" fill="#5465FC"/>
</g>
</svg>
