<?xml version="1.0" encoding="UTF-8"?> <svg xmlns="http://www.w3.org/2000/svg" viewBox="0 0 156.81 46"><defs><style>.cls-1{fill:#155a9f;}.cls-2{fill:#2479b7;}.cls-3{fill:#2e80bc;}.cls-4{fill:#5dadde;}.cls-5{fill:#3e91c9;}.cls-6{fill:#4498ce;}.cls-7{fill:#398ac4;}.cls-8{fill:#4da0d4;}.cls-9{fill:#3687c1;}.cls-10{fill:#68b8e5;}.cls-11{fill:#3283bf;}.cls-12{fill:#4a9dd2;}.cls-13{fill:#146faf;}.cls-14{fill:#1069aa;}.cls-15{fill:#79c8f0;}.cls-16{fill:#1068aa;}.cls-17{fill:#11110e;}.cls-18{fill:#2379b7;}.cls-19{fill:#fefefe;}</style></defs><title>sogexia_2</title><g id="Calque_2" data-name="Calque 2"><g id="Calque_1-2" data-name="Calque 1"><path class="cls-1" d="M44.14,0c.52,0,1,0,1.57,0,.25,0,.35.08.32.34a2.8,2.8,0,0,0,0,.29V45.41c0,.19,0,.39,0,.58H.45C.08,46,0,45.91,0,45.55a7.69,7.69,0,0,0,0-.83,2.48,2.48,0,0,1,1.28-.23,37.05,37.05,0,0,0,5.35-.56c1.63-.29,3.25-.6,4.86-1,.15,0,.28-.1.42-.15a5.31,5.31,0,0,1,1.54-.05,1.58,1.58,0,0,0,1.45-.6,1.69,1.69,0,0,1,.62-.53,2.11,2.11,0,0,0,1.24-.47c.32-.27.77-.24,1.15-.41a27.11,27.11,0,0,0,4.36-2.38A2.21,2.21,0,0,1,23,38c.17,0,.37-.09.45.16a1.11,1.11,0,0,1-.39.49c-1.26,1.21-2.39,2.55-3.65,3.76a.68.68,0,0,0-.18.23c.09.16.24.1.35.1h7.75a1,1,0,0,0,.86-.37s0,0,0,0c4.6-4.67,9.34-9.19,14-13.84a1.71,1.71,0,0,0,.54-1.3c0-2.43,0-4.87,0-7.3a.84.84,0,0,0-.08-.55A32.3,32.3,0,0,0,40,21.79,16.26,16.26,0,0,0,37.81,24c-.21.17-.31.54-.7.41a.33.33,0,0,1,0-.41c.26-.43.48-.88.74-1.32.7-1.18,1.41-2.35,2-3.58a23.66,23.66,0,0,0,1-2.34c.36-1,.7-2,1-3,.18-.68.45-1.33.65-2,.41-1.36.6-2.77.88-4.16A30.83,30.83,0,0,0,44,2.48a15,15,0,0,1,0-1.9C44,.39,44,.18,44.14,0Z"></path><path class="cls-2" d="M32.18,0h1.47a.56.56,0,0,1,.13.41,32.36,32.36,0,0,1-.27,4.28C33.34,6,33,7.18,32.71,8.42c-.18.94-.53,1.85-.77,2.78a18,18,0,0,1-1,2.67,22.2,22.2,0,0,1-1.62,3.28c-.31.5-.54,1-.83,1.55a10.9,10.9,0,0,1-1.07,1.63c-.14.17-.32.33-.26.6s-.15.38-.3.53l-11,11a.89.89,0,0,1-.52.34c-1.13.37-2.21.86-3.34,1.24A42,42,0,0,1,5.4,35.78,41.22,41.22,0,0,1,1,36.29a1.45,1.45,0,0,1-.93-.2V32.66a.57.57,0,0,1,.45-.13,26.1,26.1,0,0,0,4.34-.33,38.16,38.16,0,0,0,3.78-.85,32.42,32.42,0,0,0,5.17-1.93,15,15,0,0,0,3.18-1.81c.76-.59,1.62-1,2.39-1.61,1-.72,1.83-1.53,2.71-2.33a24,24,0,0,0,2.45-2.59c.92-1.13,1.72-2.34,2.52-3.55A26.16,26.16,0,0,0,29,14a29.25,29.25,0,0,0,2.12-6.15c.27-1.26.54-2.51.69-3.8S31.9,1.66,32,.48A.7.7,0,0,1,32.18,0Z"></path><path class="cls-3" d="M32.18,0c0,.89-.12,1.77-.15,2.65A31.92,31.92,0,0,1,30.67,10a30.09,30.09,0,0,1-2.23,5.35,36.64,36.64,0,0,1-3,4.68,23.89,23.89,0,0,1-2.16,2.57c-1,1.13-2.25,2.08-3.39,3.11A11.41,11.41,0,0,1,18.09,27c-.59.36-1.16.75-1.72,1.15A25.28,25.28,0,0,1,12.82,30a20.2,20.2,0,0,1-2.67,1A20.19,20.19,0,0,1,6.54,32c-.73.1-1.41.36-2.15.42A42.71,42.71,0,0,1,0,32.66V30.6a.64.64,0,0,1,.52-.23,40,40,0,0,0,4.76-.48,13.56,13.56,0,0,0,1.52-.39A31.12,31.12,0,0,0,11.55,28a41.25,41.25,0,0,0,5.67-3.14c1.07-.69,2-1.58,3-2.33.49-.36.77-1,1.25-1.36a14,14,0,0,0,2.93-3.53,32.71,32.71,0,0,0,2-3.19c.59-1.27,1.19-2.53,1.67-3.85a34.4,34.4,0,0,0,1.51-6.22A19.82,19.82,0,0,0,29.79.72a1,1,0,0,1,.13-.7Z"></path><path class="cls-4" d="M10.41,0h4.81a4.24,4.24,0,0,1,.08,2,15.49,15.49,0,0,1-2,6.06,14.42,14.42,0,0,1-3.25,4.07A15.42,15.42,0,0,1,3,15.65a9.06,9.06,0,0,1-2.38.27A.77.77,0,0,1,0,15.79V11a4.64,4.64,0,0,1,1.76-.31,4,4,0,0,0,1.55-.4c.73-.36,1.47-.71,2.18-1.11a5.14,5.14,0,0,0,1.12-.86A11.59,11.59,0,0,0,8.07,6.94a11.86,11.86,0,0,0,2-3.93A7.09,7.09,0,0,0,10.35.3.31.31,0,0,1,10.41,0Z"></path><path class="cls-5" d="M22.67,0H25a3,3,0,0,1,.12,1.59A25.71,25.71,0,0,1,24.61,6a25.57,25.57,0,0,1-1.93,5.38A33.82,33.82,0,0,1,20,15.85a28.38,28.38,0,0,1-2.36,2.54,19.74,19.74,0,0,1-4.76,3.72A24.7,24.7,0,0,1,6.09,25a19.77,19.77,0,0,1-5.47.73c-.21,0-.43,0-.6-.13V23.24A2.14,2.14,0,0,1,1.1,23a20.5,20.5,0,0,0,3.66-.57,28.91,28.91,0,0,0,5.29-1.87,13.27,13.27,0,0,0,2.46-1.5c.89-.59,1.65-1.32,2.51-1.93a8.48,8.48,0,0,0,2.15-2.32c.51-.78,1.19-1.41,1.7-2.2a23,23,0,0,0,1.89-3.74c.43-1,.67-2.08,1-3.1A20.75,20.75,0,0,0,22.34,3c.17-.82,0-1.66.18-2.48A.77.77,0,0,1,22.67,0Z"></path><path class="cls-6" d="M22.67,0c-.15,1.45-.19,2.91-.42,4.36a22.55,22.55,0,0,1-.91,3.32,20.46,20.46,0,0,1-1.72,4c-.32.55-.67,1.07-1,1.58-.76,1-1.54,2.08-2.39,3.05a19.93,19.93,0,0,1-1.64,1.38,30.57,30.57,0,0,1-2.68,2,18.69,18.69,0,0,1-4.26,2c-.51.2-1,.42-1.54.57-.75.21-1.51.36-2.26.54a23.15,23.15,0,0,1-3.8.43V20.5c.76-.16,1.55-.08,2.32-.23a20.34,20.34,0,0,0,3.6-.88c.82-.31,1.66-.6,2.47-.95.37-.17.72-.37,1.08-.57a20.53,20.53,0,0,0,2.24-1.4,16.3,16.3,0,0,0,2.37-2.18c.55-.62,1.16-1.19,1.67-1.85a12.91,12.91,0,0,0,1.09-1.73c.34-.63.62-1.28,1-1.9A14.76,14.76,0,0,0,19.42,4.2c.1-.56.16-1.12.29-1.68a4.25,4.25,0,0,0,.05-1.07A5.32,5.32,0,0,1,19.92,0Z"></path><path class="cls-7" d="M0,25.6a23.26,23.26,0,0,0,4.78-.46A22.82,22.82,0,0,0,11,23a21.51,21.51,0,0,0,4.8-3,28.17,28.17,0,0,0,4.34-4.46,22.87,22.87,0,0,0,1.62-2.65c.24-.44.48-.87.7-1.31A22.76,22.76,0,0,0,24.59,5.4a17.45,17.45,0,0,0,.36-3C25,1.62,25,.82,25,0h2.06a1.67,1.67,0,0,1,.12,1.1,32.54,32.54,0,0,1-.34,3.55,35,35,0,0,1-2.14,7,27.81,27.81,0,0,1-3.57,5.82,26.93,26.93,0,0,1-4.92,4.8,24.84,24.84,0,0,1-5.6,3.2,25.31,25.31,0,0,1-5.21,1.67,32.31,32.31,0,0,1-4.8.61.75.75,0,0,1-.6-.12Z"></path><path class="cls-8" d="M0,15.79a13.7,13.7,0,0,0,5.72-1.14,11.86,11.86,0,0,0,2.69-1.41,13.76,13.76,0,0,0,1.9-1.52,22,22,0,0,0,2-2.31,17.86,17.86,0,0,0,2.42-5.15A14.09,14.09,0,0,0,15.22,0h2.94a.59.59,0,0,1,.12.46A18.14,18.14,0,0,1,18,3.6a20.76,20.76,0,0,1-2.15,6,13.5,13.5,0,0,1-3,3.81c-.54.47-1,1.05-1.53,1.5A18.62,18.62,0,0,1,2,18.77a8.62,8.62,0,0,1-1.52.09.64.64,0,0,1-.5-.13Z"></path><path class="cls-9" d="M0,27.66a26.51,26.51,0,0,0,3.66-.35A28.14,28.14,0,0,0,7,26.66a25.18,25.18,0,0,0,3.16-1.11,30.05,30.05,0,0,0,3.09-1.45A27.56,27.56,0,0,0,17.67,21a25.66,25.66,0,0,0,3.2-3.31,32.84,32.84,0,0,0,3.05-4.52,22.68,22.68,0,0,0,1.27-3,29.23,29.23,0,0,0,1.56-5.63A15.67,15.67,0,0,0,27,2c0-.67.07-1.33.08-2h1.57c.15.16.12.36.13.56a18.28,18.28,0,0,1-.46,4.9,20.37,20.37,0,0,1-1.2,4.23c-.28.57-.36,1.24-.66,1.82-.47.93-1,1.86-1.36,2.82a23.74,23.74,0,0,1-3.75,5.28A16.62,16.62,0,0,1,18,22.76,19.33,19.33,0,0,0,16.5,24a7.8,7.8,0,0,1-1.76,1.14,28.75,28.75,0,0,1-2.86,1.49c-1.14.36-2.17,1-3.32,1.28-.83.24-1.65.52-2.48.73a18,18,0,0,1-2.64.48c-1,.11-1.94.19-2.92.21a.59.59,0,0,1-.5-.11Z"></path><path class="cls-10" d="M10.41,0a5.27,5.27,0,0,1,0,2A8.66,8.66,0,0,1,9,5.8,8.21,8.21,0,0,1,7.16,8.07,16.91,16.91,0,0,1,4.3,10a7.3,7.3,0,0,1-3.22.92A6.34,6.34,0,0,1,0,11V5.79c.32-.31.76-.21,1.15-.31A4.71,4.71,0,0,0,4.73,2.39,4.81,4.81,0,0,0,5.09.48.53.53,0,0,1,5.22,0Z"></path><path class="cls-11" d="M0,29.22c1.12-.09,2.24-.08,3.37-.23.73-.1,1.45-.26,2.18-.36a13.6,13.6,0,0,0,1.63-.45c.5-.14,1-.33,1.48-.42a11,11,0,0,0,1.66-.69A13.58,13.58,0,0,0,12.89,26c.94-.59,2-1,2.89-1.6a13.34,13.34,0,0,0,1.88-1.58c.34-.36.83-.55,1.2-.9a24.34,24.34,0,0,0,2.74-2.82c.6-.8,1.24-1.57,1.9-2.33a14.07,14.07,0,0,0,1.7-2.93,21.34,21.34,0,0,0,1.58-3.44c.4-1.3.83-2.59,1.16-3.93A27.63,27.63,0,0,0,28.65,0h1.27a30,30,0,0,1-.73,6.81,32.48,32.48,0,0,1-1.26,4.39,13.71,13.71,0,0,1-1,2.25c-.35.58-.51,1.27-.92,1.82-1,1.39-1.78,3-2.93,4.3-.48.57-1,1.08-1.53,1.63a28.9,28.9,0,0,1-3,2.79A25,25,0,0,1,16,25.76c-.32.19-.6.43-.93.62a28.71,28.71,0,0,1-6.17,2.71,27.84,27.84,0,0,1-5.21,1.15c-1.05.08-2.1.21-3.15.26a2.46,2.46,0,0,0-.47.1Z"></path><path class="cls-12" d="M0,18.73A15.78,15.78,0,0,0,6.2,17.61,15.11,15.11,0,0,0,9.46,16.1a12.15,12.15,0,0,0,3.09-2.54,5.17,5.17,0,0,1,1-1,7.47,7.47,0,0,0,1.55-2,16.19,16.19,0,0,0,2.09-4.38A14.32,14.32,0,0,0,18.08,2c0-.64.06-1.3.08-1.95h1.76a22.54,22.54,0,0,1-.34,4,26.82,26.82,0,0,1-1.17,4.05,5.93,5.93,0,0,1-.56,1,21.38,21.38,0,0,1-1.7,3.12,26,26,0,0,1-2.76,3,12.19,12.19,0,0,1-1.61,1.44,23.62,23.62,0,0,1-5.62,2.86c-1.12.36-2.28.56-3.4.92a3.21,3.21,0,0,1-.82.06A6.19,6.19,0,0,1,0,20.5Z"></path><path class="cls-13" d="M0,36.09A7,7,0,0,0,2.68,36a28.75,28.75,0,0,0,4.5-.75c.83-.25,1.71-.38,2.54-.65a40,40,0,0,0,4.51-1.56,2.16,2.16,0,0,1,1.08-.32c.07.25-.13.36-.26.48-1,1-1.9,2-2.94,2.87-.89.76-1.58,1.73-2.44,2.52a1.4,1.4,0,0,1-.37.32c-.12,0-.26.13-.29-.1s.17-.27-.1-.26a1.65,1.65,0,0,0-.44,0,23.76,23.76,0,0,1-4,.76,16.79,16.79,0,0,1-3,.18,3.29,3.29,0,0,0-.77.06.75.75,0,0,1-.65-.1Z"></path><path class="cls-14" d="M0,39.52a38.75,38.75,0,0,0,7.88-.88,5.24,5.24,0,0,1,1.18-.23c.1,0,.22-.13.3,0s-.07.17-.13.24L9,38.93c0,.25-.25.38-.41.54-.93,1-2,1.87-2.81,2.92a.68.68,0,0,0-.18.23c.16.16.34.09.51.09h5.13c.24,0,.5-.06.7.14a1.6,1.6,0,0,1-.9.33,8.07,8.07,0,0,1-2.37.44c-.38,0-.57.3-.94.32-1.29.08-2.55.38-3.83.51s-2.62.11-3.92.26Z"></path><path class="cls-15" d="M5.22,0a6.19,6.19,0,0,1-1,3.65,2.84,2.84,0,0,1-1,1,4.86,4.86,0,0,1-2.12,1A8.78,8.78,0,0,0,0,5.79V0Z"></path><path class="cls-16" d="M23.45,38.15c-.37-.22-.66,0-.93.2A21.64,21.64,0,0,1,20,39.9a11,11,0,0,1-2.87,1.21.57.57,0,0,0-.34.18,1.19,1.19,0,0,1-1.15.38c0-.23.16-.35.29-.48,2.48-2.48,4.92-5,7.46-7.43,1.85-1.78,3.63-3.62,5.47-5.4a1.34,1.34,0,0,0,.36-.46c.06-1.66,0-3.31,0-5a3.4,3.4,0,0,1,0-.78A29.64,29.64,0,0,0,32,18.06a27.42,27.42,0,0,0,1.44-3,24.65,24.65,0,0,0,1.37-3.71c.4-1.53.86-3,1.13-4.61a38,38,0,0,0,.54-5.63,1.91,1.91,0,0,1,.23-1h7.45c0,1.67,0,3.34-.21,5a7,7,0,0,1-.31,1.41c-.12.37,0,.74-.11,1.11-.43,1.44-.5,3-1,4.4s-.88,2.8-1.35,4.19a29.41,29.41,0,0,1-1.55,3.76c-.3.61-.72,1.16-1,1.78-.39.84-1,1.54-1.39,2.38a.4.4,0,0,0,0,.41c0,.26-.24.38-.39.54-1.6,1.73-3.33,3.31-5,5-2.56,2.62-5.21,5.17-7.79,7.78C23.87,37.93,23.75,38.19,23.45,38.15Z"></path><path class="cls-17" d="M101.1,31.33c0,1.13,0,2.26,0,3.38,0,.25,0,.42-.33.5a24,24,0,0,1-8.4.69c-3.18-.38-5.71-1.76-6.94-4.9A8.46,8.46,0,0,1,91,19.53a15,15,0,0,1,8.74,0,.56.56,0,0,1,.48.58c0,.41,0,.82.06,1.22s.07.65-.34.87-.65.09-1-.09a8,8,0,0,0-6.36-.87A5.07,5.07,0,0,0,89,24.89a8.56,8.56,0,0,0,.47,6.17,4.88,4.88,0,0,0,3.76,2.74,9.38,9.38,0,0,0,3.84-.07c.35-.08.43-.23.42-.56,0-1.74,0-3.47,0-5.2,0-.4.12-.49.5-.48.92,0,1.83,0,2.75,0,.31,0,.42.08.41.41C101.09,29,101.1,30.19,101.1,31.33Z"></path><path class="cls-17" d="M124.56,29.32c-.68,1-1.33,1.9-2,2.83s-1.49,2.14-2.22,3.23a.65.65,0,0,1-.63.34c-1,0-2,0-3.18,0L118.72,33c1.4-1.77,2.79-3.54,4.21-5.29a.48.48,0,0,0,0-.71c-1.71-2.41-3.4-4.83-5.1-7.25l-.26-.39c.1-.18.24-.11.36-.11,1.09,0,2.19,0,3.28,0a.64.64,0,0,1,.63.35c1.08,1.69,2.18,3.37,3.25,5.07.2.31.28.35.51,0,1.16-1.7,2.36-3.37,3.53-5.06a.74.74,0,0,1,.71-.38c1,0,2,0,3,0,0,.23-.12.32-.21.43-1.83,2.27-3.64,4.54-5.49,6.78a.71.71,0,0,0,0,1.07c1.87,2.57,3.72,5.17,5.57,7.76.08.11.15.24.29.45H131.5c-.83,0-1.67,0-2.5,0a.65.65,0,0,1-.66-.37C127.1,33.36,125.84,31.37,124.56,29.32Z"></path><path class="cls-17" d="M103.63,27.48c0-2.59,0-5.19,0-7.79,0-.36.08-.47.46-.46h11c.37,0,.5.08.47.46a7.62,7.62,0,0,0,0,1.17c0,.36-.1.43-.44.42-2.48,0-5,0-7.44,0-.36,0-.47.07-.46.45q0,1.94,0,3.87c0,.35.1.43.44.43h6.42c.62,0,.62,0,.62.64,0,.31,0,.63,0,.93s-.08.5-.48.5c-2.17,0-4.34,0-6.51,0-.39,0-.5.09-.49.48,0,1.51,0,3,0,4.51,0,.4.12.48.49.48,2.55,0,5.1,0,7.65,0,.36,0,.53.06.49.47a10.44,10.44,0,0,0,0,1.37c0,.27-.06.37-.35.37H104c-.39,0-.36-.19-.36-.45Z"></path><path class="cls-17" d="M58.46,18.92a15.8,15.8,0,0,1,3.49.43.69.69,0,0,1,.61.7c0,.34.08.68.11,1s.18.66-.27.88a1.08,1.08,0,0,1-1.24,0,5.52,5.52,0,0,0-4.34-.87,2,2,0,0,0-1.66,1.54,1.73,1.73,0,0,0,.63,1.83,11.67,11.67,0,0,0,2.28,1.23c.83.41,1.68.78,2.51,1.21,1.63.84,2.84,2,2.77,4a4.81,4.81,0,0,1-2.82,4.26,7.47,7.47,0,0,1-3.74.84,20.31,20.31,0,0,1-4.46-.55c-.42-.1-.66-.29-.68-.75s-.11-.91-.17-1.36c0-.29-.1-.59.26-.75s.67-.47,1.15-.11a6.56,6.56,0,0,0,2.76,1.19,5.41,5.41,0,0,0,2.85,0A2.12,2.12,0,0,0,60,32.24a1.77,1.77,0,0,0-.73-2.14,18.19,18.19,0,0,0-2.8-1.38A18,18,0,0,1,54,27.51a4.24,4.24,0,0,1-2.24-4.25,4.38,4.38,0,0,1,2.94-3.65A9.16,9.16,0,0,1,58.46,18.92Z"></path><path class="cls-18" d="M36.69,0c-.15,1.68-.16,3.37-.37,5.05a41.68,41.68,0,0,1-2.2,8.66c-.21.59-.5,1.16-.76,1.74-.37.83-.72,1.67-1.15,2.47A21.7,21.7,0,0,1,31,19.89c-.43.63-.8,1.3-1.29,1.89a.65.65,0,0,1-.37.3c-.21-.17-.14-.42-.15-.64a18.46,18.46,0,0,0-.06-2.23c-.22,0-.31.18-.47.27a1.39,1.39,0,0,0-.56.54,3.7,3.7,0,0,1-1,1c-.3-.25-.07-.44.08-.61a10.15,10.15,0,0,0,1.26-2c.17-.34.35-.68.55-1a45,45,0,0,0,2.14-4.28A17.22,17.22,0,0,0,32,10.48a19.85,19.85,0,0,0,.74-2.8c.11-.73.45-1.43.5-2.15s.27-1.51.31-2.28c.06-1.08.06-2.15.08-3.23Z"></path><path class="cls-17" d="M138,27.46c0,2.58,0,5.16,0,7.74,0,.39-.08.54-.51.53-.91,0-1.82,0-2.74,0-.32,0-.41-.1-.41-.42q0-7.83,0-15.67c0-.34.12-.41.43-.4.93,0,1.86,0,2.79,0,.35,0,.44.1.44.44C138,22.27,138,24.86,138,27.46Z"></path><path class="cls-19" d="M27.07,21l1-1a2,2,0,0,1,.6-.59l.48-.43c.21.07.14.24.14.37v8.51c0,.09,0,.19-.07.27-.74.73-1.49,1.45-2.23,2.19L15.81,41.41c-.08.08-.14.17-.22.26l-.08,0a2.65,2.65,0,0,1-2.85,1.12,3.84,3.84,0,0,0-.68,0l-6,0H5.27C6.47,41.41,7.78,40.2,9,38.93c.13,0,.2-.09.27-.17q3-2.94,5.92-5.9a1.25,1.25,0,0,0,.08-.12c1.15-1.13,2.31-2.25,3.45-3.39q4-4,8-8C26.91,21.22,27.05,21.15,27.07,21Z"></path><path class="cls-19" d="M23.45,38.15c.15,0,.21-.14.3-.23Q30.38,31.3,37,24.68a2,2,0,0,0,.19-.22l.58-.56c.69-.72,1.4-1.43,2.12-2.13.91-.95,1.86-1.87,2.84-2.75.18.12.1.28.1.41,0,2.73,0,5.46,0,8.19a.94.94,0,0,1-.31.72L28.16,42.59a.61.61,0,0,1-.45.25H18.85Z"></path><path class="cls-19" d="M32.56,42.81,42.75,32.57c.15,0,.08.19.08.28,0,3.19,0,6.37,0,9.55,0,.24,0,.45-.34.44H32.61Z"></path><path class="cls-16" d="M39.89,21.77a22.44,22.44,0,0,1-2.12,2.13,10,10,0,0,1,1.54-1.65C39.47,22.07,39.61,21.83,39.89,21.77Z"></path><path class="cls-2" d="M29.21,28.14a5.06,5.06,0,0,0,.06-.53V19.53c0-.18.09-.4-.13-.54.18,0,.19,0,.19.16,0,1,0,2,0,2.93,0,1.84,0,3.68,0,5.52C29.33,27.78,29.43,28,29.21,28.14Z"></path><path class="cls-17" d="M83.43,26.07a7.51,7.51,0,0,0-4.84-6.37A11.2,11.2,0,0,0,71,19.38c-3.47,1.1-5.91,3.31-6.38,7.1a8.06,8.06,0,0,0,2.71,7.46,9.42,9.42,0,0,0,6.37,2.13c.63,0,1.27-.08,1.9-.17A9.43,9.43,0,0,0,81.48,33,8.17,8.17,0,0,0,83.43,26.07Zm-5.3,6.27a5.53,5.53,0,0,1-8.32-.56,7.83,7.83,0,0,1-.47-8.37,5.46,5.46,0,0,1,9.1,0,7.67,7.67,0,0,1,1.28,4.68A6,6,0,0,1,78.13,32.34Z"></path><path class="cls-17" d="M155.83,33.35Q153,26.5,150.2,19.63a.53.53,0,0,0-.61-.4c-.6,0-1.21,0-1.81,0a.6.6,0,0,0-.66.42c-1,2-1.92,4-2.88,6.05q-2.3,4.8-4.58,9.58c-.16.32-.17.46.25.44.78,0,1.57,0,2.35,0a.47.47,0,0,0,.54-.36c.55-1.39,1.12-2.78,1.67-4.18a.51.51,0,0,1,.57-.38h5.53a.51.51,0,0,1,.57.39c.5,1.39,1,2.78,1.53,4.17.08.21.14.37.43.36,1.21,0,2.41,0,3.71,0C156.46,34.88,156.14,34.12,155.83,33.35Zm-6-4.52c-1.32,0-2.65,0-4,0-.19,0-.42.06-.28-.29.78-1.92,1.55-3.84,2.37-5.89.41,1.08.77,2,1.12,3s.68,1.87,1,2.8C150.24,28.77,150.15,28.83,149.81,28.83Z"></path><path class="cls-2" d="M28.66,19.42a1.27,1.27,0,0,1-.6.59C28.09,19.64,28.36,19.52,28.66,19.42Z"></path></g></g></svg> 